STARTFONT 2.3
FONT -FontForge-Monofett-Book-R-Normal--36-360-72-72-P-200-ISO10646-1
SIZE 36 72 72  2
FONTBOUNDINGBOX 23 41 0 -6
COMMENT "Generated by fontforge, http://fontforge.sourceforge.net"
COMMENT "Copyright (c) 2011 by vernon adams. All rights reserved."
STARTPROPERTIES 41
FOUNDRY "FontForge"
FAMILY_NAME "Monofett"
WEIGHT_NAME "Book"
SLANT "R"
SETWIDTH_NAME "Normal"
ADD_STYLE_NAME ""
PIXEL_SIZE 36
POINT_SIZE 360
RESOLUTION_X 72
RESOLUTION_Y 72
SPACING "P"
AVERAGE_WIDTH 200
CHARSET_REGISTRY "ISO10646"
CHARSET_ENCODING "1"
FONTNAME_REGISTRY ""
CHARSET_COLLECTIONS "ISO8859-2 ISO8859-9 ISO8859-4 ISO10646-1"
BITS_PER_PIXEL 2
FONT_NAME "Monofett"
FACE_NAME "Monofett"
COPYRIGHT "Copyright (c) 2011 by vernon adams. All rights reserved."
FONT_VERSION "1.000"
FONT_ASCENT 29
FONT_DESCENT 7
UNDERLINE_POSITION -5
UNDERLINE_THICKNESS 1
X_HEIGHT 23
CAP_HEIGHT 23
RAW_ASCENT 799
RAW_DESCENT 200
NORM_SPACE 5
RELATIVE_WEIGHT 40
RELATIVE_SETWIDTH 50
SUPERSCRIPT_X 0
SUPERSCRIPT_Y 17
SUPERSCRIPT_SIZE 23
SUBSCRIPT_X 0
SUBSCRIPT_Y 5
SUBSCRIPT_SIZE 23
FIGURE_WIDTH 21
AVG_LOWERCASE_WIDTH 210
AVG_UPPERCASE_WIDTH 210
ENDPROPERTIES
CHARS 409
STARTCHAR uni000D
ENCODING 13
SWIDTH 144 0
DWIDTH 5 0
BBX 1 1 0 0
BITMAP
00
ENDCHAR
STARTCHAR space
ENCODING 32
SWIDTH 144 0
DWIDTH 5 0
BBX 1 1 0 0
BITMAP
00
ENDCHAR
STARTCHAR exclam
ENCODING 33
SWIDTH 424 0
DWIDTH 15 0
BBX 16 24 0 0
BITMAP
00AFF900
07FABF80
2FF83FE0
7FF83FF4
BFF87FFC
FFF87FFD
FFFC7FFD
FFFC7FFD
FFFC7FFD
FFFCBFFD
FFFCBFFD
FFFCBFFD
FFFDBFFD
FFFFFFFD
FFFDBFFD
FFFC3FFD
FFFEBFFD
FFFFFFFD
FFFFFFFD
BFFFFFFC
7FFFFFF4
1FFFFFE0
07FFFF80
006FE800
ENDCHAR
STARTCHAR quotedbl
ENCODING 34
SWIDTH 424 0
DWIDTH 15 0
BBX 16 24 0 0
BITMAP
00AFF900
07FAAF80
2FE24FE0
7FE24FF4
BFE24FFC
FFE24FFD
FFFFFFFD
FFFFFFFD
FFFFFFFD
FFFFFFFD
FFFFFFFD
FFFFFFFD
FFFFFFFD
FFFFFFFD
FFFFFFFD
FFFFFFFD
FFFFFFFD
FFFFFFFD
FFFFFFFD
BFFFFFFC
7FFFFFF4
1FFFFFE0
07FFFF80
006FE800
ENDCHAR
STARTCHAR numbersign
ENCODING 35
SWIDTH 482 0
DWIDTH 17 0
BBX 18 24 0 0
BITMAP
00AFFF9000
07FFFFF800
2FFFFFFE00
7FF9B5FF80
BFF8B0FFC0
FFE4507FD0
FFD0003FD0
FFE4A1BFD0
FFF4E1FFD0
FFF0E2FFD0
FFF0D2FFD0
FF9040BFD0
FF8000BFD0
FFE1C3FFD0
FFE2C3FFD0
FFFBEBFFD0
FFFFFFFFD0
FFFFFFFFD0
FFFFFFFFD0
BFFFFFFFC0
7FFFFFFF80
1FFFFFFE00
07FFFFF800
006FFE9000
ENDCHAR
STARTCHAR dollar
ENCODING 36
SWIDTH 578 0
DWIDTH 21 0
BBX 21 24 0 0
BITMAP
00AFFFFE4000
07FFFAFFF400
2FFFF2FFFD00
7FF80007FF00
BFE01042FF40
FFE1F2E1FF80
FFE2F2FBFFC0
FFE2F2FFFFC0
FFE1A1AFFFC0
FFF40007FFC0
FFFEA192FFC0
FFFFF2E1FFC0
FFFBF2E1FFC0
FFE1F2E1FFC0
FFE00002FFC0
FFF80007FFC0
FFFFF2FFFFC0
FFFFF2FFFFC0
FFFFFFFFFF80
BFFFFFFFFF40
7FFFFFFFFF00
1FFFFFFFFD00
07FFFFFFF400
006FFFFE4000
ENDCHAR
STARTCHAR percent
ENCODING 37
SWIDTH 578 0
DWIDTH 21 0
BBX 21 24 0 0
BITMAP
00AFFFFE4000
07FFFFFFF400
2F96FEBFFD00
7E007C3FFF00
BD283C7FFF40
FD3D387FFF80
FD1434BFFFC0
FE00B0FFFFC0
FFEBE1FFFFC0
FFFFD2E9BFC0
FFFFC3801FC0
FFFF874A0FC0
FFFF8B4F4FC0
FFFF4F450FC0
FFFF1F802FC0
FFFFFFFABFC0
FFFFFFFFFFC0
FFFFFFFFFFC0
FFFFFFFFFF80
BFFFFFFFFF40
7FFFFFFFFF00
1FFFFFFFFD00
07FFFFFFF400
006FFFFE4000
ENDCHAR
STARTCHAR ampersand
ENCODING 38
SWIDTH 578 0
DWIDTH 21 0
BBX 21 24 0 0
BITMAP
00AFFFFE4000
07FFAAAFF400
2FFD000BFD00
7FF86AAFFF00
BFF4BFFFFF40
FFF4BFFFFF80
FFF8BFF0FFC0
FFFC6AA0BFC0
FFFE00007FC0
FFFD1550FFC0
FFF8BFF0FFC0
FFF4BFF0FFC0
FFF4BFF0FFC0
FFF8BFF0FFC0
FFF80501FFC0
FFFE0007FFC0
FFFFFFFFFFC0
FFFFFFFFFFC0
FFFFFFFFFF80
BFFFFFFFFF40
7FFFFFFFFF00
1FFFFFFFFD00
07FFFFFFF400
006FFFFE4000
ENDCHAR
STARTCHAR quotesingle
ENCODING 39
SWIDTH 424 0
DWIDTH 15 0
BBX 16 24 0 0
BITMAP
00AFF900
07FEBF80
2FFC7FE0
7FFC7FF4
BFFC7FFC
FFFC7FFD
FFFFFFFD
FFFFFFFD
FFFFFFFD
FFFFFFFD
FFFFFFFD
FFFFFFFD
FFFFFFFD
FFFFFFFD
FFFFFFFD
FFFFFFFD
FFFFFFFD
FFFFFFFD
FFFFFFFD
BFFFFFFC
7FFFFFF4
1FFFFFE0
07FFFF80
006FE800
ENDCHAR
STARTCHAR parenleft
ENCODING 40
SWIDTH 483 0
DWIDTH 17 0
BBX 18 24 0 0
BITMAP
00AFFF9000
07FE97F800
2FF403FF00
7FF0ABFF80
BFF1FFFFC0
FFF1FFFFD0
FFF1FFFFD0
FFF1FFFFD0
FFF1FFFFD0
FFF1FFFFD0
FFF1FFFFD0
FFF1FFFFD0
FFF1FFFFD0
FFF1FFFFD0
FFF1FFFFD0
FFF1FFFFD0
FFF057FFD0
FFF803FFD0
FFFFABFFD0
BFFFFFFFC0
7FFFFFFF80
1FFFFFFE00
07FFFFF800
006FFE9000
ENDCHAR
STARTCHAR parenright
ENCODING 41
SWIDTH 483 0
DWIDTH 17 0
BBX 18 24 0 0
BITMAP
00AFFF9000
07F96FF800
2FF403FF00
7FFA92FF80
BFFFE1FFC0
FFFFE1FFD0
FFFFE1FFD0
FFFFE1FFD0
FFFFE1FFD0
FFFFE1FFD0
FFFFE1FFD0
FFFFE1FFD0
FFFFE1FFD0
FFFFE1FFD0
FFFFE1FFD0
FFFFE1FFD0
FFF942FFD0
FFF407FFD0
FFFAAFFFD0
BFFFFFFFC0
7FFFFFFF80
1FFFFFFE00
07FFFFF800
006FFE9000
ENDCHAR
STARTCHAR asterisk
ENCODING 42
SWIDTH 428 0
DWIDTH 15 0
BBX 16 24 0 0
BITMAP
00AFF900
07FBFB80
2FE1D2F0
7FF047F8
BFA40ABC
FF00007D
FF5405BD
FFF407FD
FFE0C2FD
FFF6E7FD
FFFFFFFD
FFFFFFFD
FFFFFFFD
FFFFFFFD
FFFFFFFD
FFFFFFFD
FFFFFFFD
FFFFFFFD
FFFFFFFD
BFFFFFFC
7FFFFFF8
1FFFFFE0
07FFFF80
006FE900
ENDCHAR
STARTCHAR plus
ENCODING 43
SWIDTH 428 0
DWIDTH 15 0
BBX 16 24 0 0
BITMAP
00AFF900
07FDBF80
2FFC7FF0
7FFC7FF8
BFFC7FFC
FE0000BD
FE5415FD
FFFC7FFD
FFFC7FFD
FFFC7FFD
FFFEFFFD
FFFFFFFD
FFFFFFFD
FFFFFFFD
FFFFFFFD
FFFFFFFD
FFFFFFFD
FFFFFFFD
FFFFFFFD
BFFFFFFC
7FFFFFF8
1FFFFFE0
07FFFF80
006FE900
ENDCHAR
STARTCHAR comma
ENCODING 44
SWIDTH 428 0
DWIDTH 15 0
BBX 16 24 0 0
BITMAP
00AFF900
07FFFF80
2FFFFFF0
7FFFFFF8
BFFFFFFC
FFFFFFFD
FFFFFFFD
FFFFFFFD
FFFFFFFD
FFFFFFFD
FFFFFFFD
FFFFFFFD
FFFFFFFD
FFFEBFFD
FFF82FFD
FFF82FFD
FFFD3FFD
FFFD7FFD
FFFFFFFD
BFFFFFFC
7FFFFFF8
1FFFFFE0
07FFFF80
006FE900
ENDCHAR
STARTCHAR hyphen
ENCODING 45
SWIDTH 428 0
DWIDTH 15 0
BBX 16 24 0 0
BITMAP
00AFF900
07FFFF80
2FFFFFF0
7FFFFFF8
BFFFFFFC
FFFFFFFD
FF4003FD
FF4003FD
FFFFFFFD
FFFFFFFD
FFFFFFFD
FFFFFFFD
FFFFFFFD
FFFFFFFD
FFFFFFFD
FFFFFFFD
FFFFFFFD
FFFFFFFD
FFFFFFFD
BFFFFFFC
7FFFFFF8
1FFFFFE0
07FFFF80
006FE900
ENDCHAR
STARTCHAR period
ENCODING 46
SWIDTH 428 0
DWIDTH 15 0
BBX 16 24 0 0
BITMAP
00AFF900
07FFFF80
2FFFFFF0
7FFFFFF8
BFFFFFFC
FFFFFFFD
FFFFFFFD
FFFFFFFD
FFFFFFFD
FFFFFFFD
FFFFFFFD
FFFFFFFD
FFFFFFFD
FFFEBFFD
FFF83FFD
FFF83FFD
FFFFFFFD
FFFFFFFD
FFFFFFFD
BFFFFFFC
7FFFFFF8
1FFFFFE0
07FFFF80
006FE900
ENDCHAR
STARTCHAR slash
ENCODING 47
SWIDTH 428 0
DWIDTH 15 0
BBX 16 24 0 0
BITMAP
00AFF900
07FFFF80
2FFF1FF0
7FFE1FF8
BFFE2FFC
FFFD2FFD
FFFD3FFD
FFFC3FFD
FFFC7FFD
FFF87FFD
FFF8BFFD
FFF4BFFD
FFF4FFFD
FFF0FFFD
FFF1FFFD
FFE1FFFD
FFE6FFFD
FFFFFFFD
FFFFFFFD
BFFFFFFC
7FFFFFF8
1FFFFFE0
07FFFF80
006FE900
ENDCHAR
STARTCHAR zero
ENCODING 48
SWIDTH 578 0
DWIDTH 21 0
BBX 21 24 0 0
BITMAP
00AFFFFE4000
07FEAAABF400
2FF40000FD00
7FE1AAA4BF00
BFE2FFF87F40
FFE2FFF87F80
FFE2FFF87FC0
FFE2FFF87FC0
FFE2FFF87FC0
FFE2FFF87FC0
FFE2FFF87FC0
FFE2FFF87FC0
FFE2FFF87FC0
FFE1FFF87FC0
FFF01540BFC0
FFF80001FFC0
FFFFFFFFFFC0
FFFFFFFFFFC0
FFFFFFFFFF80
BFFFFFFFFF40
7FFFFFFFFF00
1FFFFFFFFD00
07FFFFFFF400
006FFFFE4000
ENDCHAR
STARTCHAR one
ENCODING 49
SWIDTH 578 0
DWIDTH 21 0
BBX 21 24 0 0
BITMAP
00AFFFFE4000
07FFE6FFF400
2FFE00FFFD00
7FFE10FFFF00
BFFFF0FFFF40
FFFFF0FFFF80
FFFFF0FFFFC0
FFFFF0FFFFC0
FFFFF0FFFFC0
FFFFF0FFFFC0
FFFFF0FFFFC0
FFFFF0FFFFC0
FFFFF0FFFFC0
FFFFF0FFFFC0
FFFFF0FFFFC0
FFFFF0FFFFC0
FFFFFFFFFFC0
FFFFFFFFFFC0
FFFFFFFFFF80
BFFFFFFFFF40
7FFFFFFFFF00
1FFFFFFFFD00
07FFFFFFF400
006FFFFE4000
ENDCHAR
STARTCHAR two
ENCODING 50
SWIDTH 578 0
DWIDTH 21 0
BBX 21 24 0 0
BITMAP
00AFFFFE4000
07FEAAABF400
2FF40001FD00
7FE1AAA0FF00
BFE6FFF4BF40
FFFFFFF4BF80
FFFFFFF4BFC0
FFFFFFF0FFC0
FFFD4000FFC0
FFF0001BFFC0
FFE1FFFFFFC0
FFE2FFFFFFC0
FFE2FFFFFFC0
FFE2FFFFFFC0
FFE05556FFC0
FFF40001FFC0
FFFFFFFFFFC0
FFFFFFFFFFC0
FFFFFFFFFF80
BFFFFFFFFF40
7FFFFFFFFF00
1FFFFFFFFD00
07FFFFFFF400
006FFFFE4000
ENDCHAR
STARTCHAR three
ENCODING 51
SWIDTH 578 0
DWIDTH 21 0
BBX 21 24 0 0
BITMAP
00AFFFFE4000
07FAAAABF400
2FE00002FD00
7FC1AA90FF00
BFD3FFF0FF40
FFFFFFF0FF80
FFFFFFF0FFC0
FFFFFFE0FFC0
FFFF0001FFC0
FFFF5551FFC0
FFFFFFF0FFC0
FFFFFFF0FFC0
FFEBFFF0FFC0
FFC3FFF0FFC0
FFD05541FFC0
FFF40007FFC0
FFFFFFFFFFC0
FFFFFFFFFFC0
FFFFFFFFFF80
BFFFFFFFFF40
7FFFFFFFFF00
1FFFFFFFFD00
07FFFFFFF400
006FFFFE4000
ENDCHAR
STARTCHAR four
ENCODING 52
SWIDTH 578 0
DWIDTH 21 0
BBX 21 24 0 0
BITMAP
00AFFFFE4000
07FAFFABF400
2FF4BF8BFD00
7FF4BF8BFF00
BFF4BF8BFF40
FFF4BF8BFF80
FFF4BF8BFFC0
FFF4BF8BFFC0
FFF4BF8BFFC0
FFF4BF8BFFC0
FFF46A46BFC0
FFF800003FC0
FFFE55457FC0
FFFFFF8BFFC0
FFFFFF8BFFC0
FFFFFF8BFFC0
FFFFFFFFFFC0
FFFFFFFFFFC0
FFFFFFFFFF80
BFFFFFFFFF40
7FFFFFFFFF00
1FFFFFFFFD00
07FFFFFFF400
006FFFFE4000
ENDCHAR
STARTCHAR five
ENCODING 53
SWIDTH 578 0
DWIDTH 21 0
BBX 21 24 0 0
BITMAP
00AFFFFE4000
07FEAAAAF400
2FF00001FD00
7FF1AAAAFF00
BFF1FFFFFF40
FFF1FFFFFF80
FFF1FFFFFFC0
FFF04016FFC0
FFF00000FFC0
FFFAFFF4BFC0
FFFFFFF8BFC0
FFFFFFF8BFC0
FFFFFFF8BFC0
FFF5FFF4BFC0
FFF01540BFC0
FFF90002FFC0
FFFFFFFFFFC0
FFFFFFFFFFC0
FFFFFFFFFF80
BFFFFFFFFF40
7FFFFFFFFF00
1FFFFFFFFD00
07FFFFFFF400
006FFFFE4000
ENDCHAR
STARTCHAR six
ENCODING 54
SWIDTH 578 0
DWIDTH 21 0
BBX 21 24 0 0
BITMAP
00AFFFFE4000
07FEAAABF400
2FF40001FD00
7FF05556FF00
BFF1FFFFFF40
FFF1FFFFFF80
FFF1FFFFFFC0
FFF04005FFC0
FFF000007FC0
FFF0FFF87FC0
FFF1FFFC3FC0
FFF1FFFC3FC0
FFF1FFFC3FC0
FFF0FFFC3FC0
FFF015507FC0
FFF80001FFC0
FFFFFFFFFFC0
FFFFFFFFFFC0
FFFFFFFFFF80
BFFFFFFFFF40
7FFFFFFFFF00
1FFFFFFFFD00
07FFFFFFF400
006FFFFE4000
ENDCHAR
STARTCHAR seven
ENCODING 55
SWIDTH 578 0
DWIDTH 21 0
BBX 21 24 0 0
BITMAP
00AFFFFE4000
07FEAAABF400
2FFD0003FD00
7FFEAA47FF00
BFFFFF4BFF40
FFFFFF0FFF80
FFFFFE1FFFC0
FFFFFD2FFFC0
FFFFFC3FFFC0
FFFFF87FFFC0
FFFFF4BFFFC0
FFFFF0FFFFC0
FFFFE1FFFFC0
FFFFC2FFFFC0
FFFF83FFFFC0
FFFF47FFFFC0
FFFFFFFFFFC0
FFFFFFFFFFC0
FFFFFFFFFF80
BFFFFFFFFF40
7FFFFFFFFF00
1FFFFFFFFD00
07FFFFFFF400
006FFFFE4000
ENDCHAR
STARTCHAR eight
ENCODING 56
SWIDTH 578 0
DWIDTH 21 0
BBX 21 24 0 0
BITMAP
00AFFFFE4000
07FEAAABF400
2FF40000FD00
7FE1AAA4BF00
BFE2FFF87F40
FFE2FFF87F80
FFE2FFF87FC0
FFE1AAA4BFC0
FFF00000FFC0
FFE05550BFC0
FFE2FFF87FC0
FFE2FFF87FC0
FFE2FFF87FC0
FFE1FFF87FC0
FFE01540BFC0
FFF80002FFC0
FFFFFFFFFFC0
FFFFFFFFFFC0
FFFFFFFFFF80
BFFFFFFFFF40
7FFFFFFFFF00
1FFFFFFFFD00
07FFFFFFF400
006FFFFE4000
ENDCHAR
STARTCHAR nine
ENCODING 57
SWIDTH 578 0
DWIDTH 21 0
BBX 21 24 0 0
BITMAP
00AFFFFE4000
07FEAAABF400
2FE00001FD00
7FD1AAA0BF00
BFD2FFF4BF40
FFD2FFF4BF80
FFD2FFF4BFC0
FFD2FFF4BFC0
FFD1AA90BFC0
FFF00000BFC0
FFFEAAA4BFC0
FFFFFFF4BFC0
FFFFFFF4BFC0
FFFFFFF4BFC0
FFF80000FFC0
FFF80002FFC0
FFFFFFFFFFC0
FFFFFFFFFFC0
FFFFFFFFFF80
BFFFFFFFFF40
7FFFFFFFFF00
1FFFFFFFFD00
07FFFFFFF400
006FFFFE4000
ENDCHAR
STARTCHAR colon
ENCODING 58
SWIDTH 428 0
DWIDTH 15 0
BBX 16 24 0 0
BITMAP
00AFF900
07FFFF80
2FFFFFF0
7FFFFFF8
BFFFFFFC
FFFFFFFD
FFFFFFFD
FFFFFFFD
FFFEBFFD
FFF83FFD
FFF83FFD
FFFFFFFD
FFFFFFFD
FFFEBFFD
FFF83FFD
FFF83FFD
FFFFFFFD
FFFFFFFD
FFFFFFFD
BFFFFFFC
7FFFFFF8
1FFFFFE0
07FFFF80
006FE900
ENDCHAR
STARTCHAR semicolon
ENCODING 59
SWIDTH 428 0
DWIDTH 15 0
BBX 16 24 0 0
BITMAP
00AFF900
07FFFF80
2FFFFFF0
7FFFFFF8
BFFFFFFC
FFFFFFFD
FFFFFFFD
FFFFFFFD
FFFEBFFD
FFFC3FFD
FFFC3FFD
FFFFFFFD
FFFFFFFD
FFFEBFFD
FFF82FFD
FFF82FFD
FFFD3FFD
FFFD7FFD
FFFFFFFD
BFFFFFFC
7FFFFFF8
1FFFFFE0
07FFFF80
006FE900
ENDCHAR
STARTCHAR less
ENCODING 60
SWIDTH 482 0
DWIDTH 17 0
BBX 18 27 0 1
BITMAP
0005540000
01BFFF9000
0BFFFFF800
2FFFFFFF00
7FFFFFFF80
BFFFFFFFC0
FFFFFFFFD0
FFFFF7FFD0
FFFFD7FFD0
FFFF4FFFD0
FFFE3FFFD0
FFF8BFFFD0
FFE2FFFFD0
FFCBFFFFD0
FFCBFFFFD0
FFE2FFFFD0
FFF8BFFFD0
FFFE3FFFD0
FFFF4FFFD0
FFFFD7FFD0
FFFFF7FFD0
BFFFFFFFC0
7FFFFFFF80
1FFFFFFE00
07FFFFF800
00BFFF9000
0001500000
ENDCHAR
STARTCHAR equal
ENCODING 61
SWIDTH 482 0
DWIDTH 17 0
BBX 18 27 0 1
BITMAP
0005540000
01BFFFD000
0BFFFFF800
2FFFFFFF00
7FFFFFFF80
BFFFFFFFC0
FFFFFFFFD0
FFFFFFFFD0
FFFFFFFFD0
FFFFFFFFD0
FFFFFFFFD0
FFE000BFD0
FFFAAAFFD0
FFFFFFFFD0
FFEAAABFD0
FFE555BFD0
FFFFFFFFD0
FFFFFFFFD0
FFFFFFFFD0
FFFFFFFFD0
FFFFFFFFD0
BFFFFFFFC0
7FFFFFFF80
1FFFFFFE00
07FFFFF800
00BFFF9000
0001540000
ENDCHAR
STARTCHAR greater
ENCODING 62
SWIDTH 482 0
DWIDTH 17 0
BBX 18 27 0 1
BITMAP
0005540000
01BFFFD000
0BFFFFF800
2FFFFFFF00
7FFFFFFF80
BFFFFFFFC0
FFFFFFFFD0
FFFAFFFFD0
FFF8FFFFD0
FFFD3FFFD0
FFFF5FFFD0
FFFFD7FFD0
FFFFF1FFD0
FFFFFCBFD0
FFFFF8BFD0
FFFFF1FFD0
FFFFD7FFD0
FFFF5FFFD0
FFFD3FFFD0
FFF8FFFFD0
FFFAFFFFD0
BFFFFFFFC0
7FFFFFFF80
1FFFFFFE00
07FFFFF800
00BFFF9000
0001540000
ENDCHAR
STARTCHAR question
ENCODING 63
SWIDTH 578 0
DWIDTH 21 0
BBX 21 24 0 0
BITMAP
00AFFFFE4000
07FFEAAFF400
2FFD0001FD00
7FF86AA4FF00
BFF9FFF8BF40
FFFFFFF8BF80
FFFFFFF8BFC0
FFFFFFF8BFC0
FFFFFEA4FFC0
FFFFF402FFC0
FFFFF5BFFFC0
FFFFF5FFFFC0
FFFFF5FFFFC0
FFFFFFFFFFC0
FFFFF0FFFFC0
FFFFF5FFFFC0
FFFFFFFFFFC0
FFFFFFFFFFC0
FFFFFFFFFF80
BFFFFFFFFF40
7FFFFFFFFF00
1FFFFFFFFD00
07FFFFFFF400
006FFFFE4000
ENDCHAR
STARTCHAR at
ENCODING 64
SWIDTH 578 0
DWIDTH 21 0
BBX 21 24 0 0
BITMAP
00AFFFFE4000
07FE955BF400
2FD00000BD00
7F46FFF82F00
BE1FFFFF1F40
FD3E001F4F80
FD7FAA4B8BC0
FD7FFFC7CBC0
FD7FFFC7CBC0
FD7F0007CBC0
FD7C6A47CBC0
FD787FC7CBC0
FD7C2A47CBC0
FD3F40578BC0
FE2FFFE00FC0
FF1FFFFABFC0
FF8156FFFFC0
FFE501FFFFC0
FFFFFFFFFF80
BFFFFFFFFF40
7FFFFFFFFF00
1FFFFFFFFD00
07FFFFFFF400
006FFFFE4000
ENDCHAR
STARTCHAR A
ENCODING 65
SWIDTH 578 0
DWIDTH 21 0
BBX 21 24 0 0
BITMAP
00AFFFFE4000
07FFAAAFF400
2FFC0007FD00
7FF86A92FF00
BFF4BFE1FF40
FFF4BFE1FF80
FFF4FFE1FFC0
FFF0FFF1FFC0
FFF0FFF0FFC0
FFF00000FFC0
FFE05550FFC0
FFE1FFF4BFC0
FFE1FFF4BFC0
FFD2FFF8BFC0
FFD2FFF87FC0
FFD2FFF87FC0
FFFFFFFFFFC0
FFFFFFFFFFC0
FFFFFFFFFF80
BFFFFFFFFF40
7FFFFFFFFF00
1FFFFFFFFD00
07FFFFFFF400
006FFFFE4000
ENDCHAR
STARTCHAR B
ENCODING 66
SWIDTH 578 0
DWIDTH 21 0
BBX 21 24 0 0
BITMAP
00AFFFFE4000
07EAAAABF400
2FD00002FD00
7FD1AA91FF00
BFD2FFF0FF40
FFD2FFF0FF80
FFD2FFF0FFC0
FFD1AA91FFC0
FFD00007FFC0
FFD15551FFC0
FFD2FFF0FFC0
FFD2FFF0FFC0
FFD2FFF0FFC0
FFD2FFF0FFC0
FFD05501FFC0
FFD00007FFC0
FFFFFFFFFFC0
FFFFFFFFFFC0
FFFFFFFFFF80
BFFFFFFFFF40
7FFFFFFFFF00
1FFFFFFFFD00
07FFFFFFF400
006FFFFE4000
ENDCHAR
STARTCHAR C
ENCODING 67
SWIDTH 578 0
DWIDTH 21 0
BBX 21 24 0 0
BITMAP
00AFFFFE4000
07FEAAABF400
2FF00007FD00
7FE1AAABFF00
BFD2FFFFFF40
FFD2FFFFFF80
FFD2FFFFFFC0
FFD2FFFFFFC0
FFD2FFFFFFC0
FFD2FFFFFFC0
FFD2FFFFFFC0
FFD2FFFFFFC0
FFD2FFFFFFC0
FFE2FFFFFFC0
FFE01547FFC0
FFF80007FFC0
FFFFFFFFFFC0
FFFFFFFFFFC0
FFFFFFFFFF80
BFFFFFFFFF40
7FFFFFFFFF00
1FFFFFFFFD00
07FFFFFFF400
006FFFFE4000
ENDCHAR
STARTCHAR D
ENCODING 68
SWIDTH 578 0
DWIDTH 21 0
BBX 21 24 0 0
BITMAP
00AFFFFE4000
07FAAAABF400
2FE00000BD00
7FE1AAA47F00
BFE1FFFC7F40
FFE1FFFC7F80
FFE1FFFC7FC0
FFE1FFFC7FC0
FFE1FFFC7FC0
FFE1FFFC7FC0
FFE1FFFC7FC0
FFE1FFFC7FC0
FFE1FFFC7FC0
FFE1FFF87FC0
FFE055407FC0
FFE00001FFC0
FFFFFFFFFFC0
FFFFFFFFFFC0
FFFFFFFFFF80
BFFFFFFFFF40
7FFFFFFFFF00
1FFFFFFFFD00
07FFFFFFF400
006FFFFE4000
ENDCHAR
STARTCHAR E
ENCODING 69
SWIDTH 578 0
DWIDTH 21 0
BBX 21 24 0 0
BITMAP
00AFFFFE4000
07FEAAAAF400
2FFC0001FD00
7FFC2AAAFF00
BFFC3FFFFF40
FFFC3FFFFF80
FFFC3FFFFFC0
FFFC3FFFFFC0
FFFC0007FFC0
FFFC1557FFC0
FFFC3FFFFFC0
FFFC3FFFFFC0
FFFC3FFFFFC0
FFFC3FFFFFC0
FFFC1555FFC0
FFFC0000FFC0
FFFFFFFFFFC0
FFFFFFFFFFC0
FFFFFFFFFF80
BFFFFFFFFF40
7FFFFFFFFF00
1FFFFFFFFD00
07FFFFFFF400
006FFFFE4000
ENDCHAR
STARTCHAR F
ENCODING 70
SWIDTH 578 0
DWIDTH 21 0
BBX 21 24 0 0
BITMAP
00AFFFFE4000
07FEAAAAF400
2FFC0001FD00
7FFC2AAAFF00
BFFC3FFFFF40
FFFC3FFFFF80
FFFC3FFFFFC0
FFFC2AABFFC0
FFFC0007FFC0
FFFC2AABFFC0
FFFC3FFFFFC0
FFFC3FFFFFC0
FFFC3FFFFFC0
FFFC3FFFFFC0
FFFC3FFFFFC0
FFFC3FFFFFC0
FFFFFFFFFFC0
FFFFFFFFFFC0
FFFFFFFFFF80
BFFFFFFFFF40
7FFFFFFFFF00
1FFFFFFFFD00
07FFFFFFF400
006FFFFE4000
ENDCHAR
STARTCHAR G
ENCODING 71
SWIDTH 578 0
DWIDTH 21 0
BBX 21 24 0 0
BITMAP
00AFFFFE4000
07FEAAAAF400
2FF80001FD00
7FF06AAAFF00
BFF0FFFFFF40
FFF0FFFFFF80
FFF0FFFFFFC0
FFF0FFFFFFC0
FFF0FFAABFC0
FFF0FE007FC0
FFF0FEA47FC0
FFF0FFFC7FC0
FFF0FFFC7FC0
FFF0FFF87FC0
FFF41540BFC0
FFFD0001FFC0
FFFFFFFFFFC0
FFFFFFFFFFC0
FFFFFFFFFF80
BFFFFFFFFF40
7FFFFFFFFF00
1FFFFFFFFD00
07FFFFFFF400
006FFFFE4000
ENDCHAR
STARTCHAR H
ENCODING 72
SWIDTH 578 0
DWIDTH 21 0
BBX 21 24 0 0
BITMAP
00AFFFFE4000
07FAFFFEB400
2FE1FFFC7D00
7FE1FFFC7F00
BFE1FFFC7F40
FFE1FFFC7F80
FFE1FFFC7FC0
FFE1AAA87FC0
FFE000007FC0
FFE1AAA47FC0
FFE1FFFC7FC0
FFE1FFFC7FC0
FFE1FFFC7FC0
FFE1FFFC7FC0
FFE1FFFC7FC0
FFE1FFFC7FC0
FFFFFFFFFFC0
FFFFFFFFFFC0
FFFFFFFFFF80
BFFFFFFFFF40
7FFFFFFFFF00
1FFFFFFFFD00
07FFFFFFF400
006FFFFE4000
ENDCHAR
STARTCHAR I
ENCODING 73
SWIDTH 578 0
DWIDTH 21 0
BBX 21 24 0 0
BITMAP
00AFFFFE4000
07FAAAAAB400
2FF40000BD00
7FFAA46AFF00
BFFFF4BFFF40
FFFFF4BFFF80
FFFFF4BFFFC0
FFFFF4BFFFC0
FFFFF4BFFFC0
FFFFF4BFFFC0
FFFFF4BFFFC0
FFFFF4BFFFC0
FFFFF4BFFFC0
FFFFF4BFFFC0
FFF55015BFC0
FFF40000BFC0
FFFFFFFFFFC0
FFFFFFFFFFC0
FFFFFFFFFF80
BFFFFFFFFF40
7FFFFFFFFF00
1FFFFFFFFD00
07FFFFFFF400
006FFFFE4000
ENDCHAR
STARTCHAR J
ENCODING 74
SWIDTH 578 0
DWIDTH 21 0
BBX 21 24 0 0
BITMAP
00AFFFFE4000
07FFFFAFF400
2FFFFF1FFD00
7FFFFF1FFF00
BFFFFF1FFF40
FFFFFF1FFF80
FFFFFF1FFFC0
FFFFFF1FFFC0
FFFFFF1FFFC0
FFFFFF1FFFC0
FFFFFF1FFFC0
FFFFFF1FFFC0
FFFFFF1FFFC0
FFFFFF1FFFC0
FFFF501FFFC0
FFFF007FFFC0
FFFFFFFFFFC0
FFFFFFFFFFC0
FFFFFFFFFF80
BFFFFFFFFF40
7FFFFFFFFF00
1FFFFFFFFD00
07FFFFFFF400
006FFFFE4000
ENDCHAR
STARTCHAR K
ENCODING 75
SWIDTH 578 0
DWIDTH 21 0
BBX 21 24 0 0
BITMAP
00AFFFFE4000
07FEBFFE7400
2FFD3FF82D00
7FFD3FE07F00
BFFD3F82FF40
FFFD3E0BFF80
FFFD382FFFC0
FFFD20BFFFC0
FFFD01FFFFC0
FFFD00BFFFC0
FFFD282FFFC0
FFFD3E0BFFC0
FFFD3F43FFC0
FFFD3FD0FFC0
FFFD3FF47FC0
FFFD3FFC7FC0
FFFFFFFFFFC0
FFFFFFFFFFC0
FFFFFFFFFF80
BFFFFFFFFF40
7FFFFFFFFF00
1FFFFFFFFD00
07FFFFFFF400
006FFFFE4000
ENDCHAR
STARTCHAR L
ENCODING 76
SWIDTH 578 0
DWIDTH 21 0
BBX 21 24 0 0
BITMAP
00AFFFFE4000
07FFAFFFF400
2FFF1FFFFD00
7FFF1FFFFF00
BFFF1FFFFF40
FFFF1FFFFF80
FFFF1FFFFFC0
FFFF1FFFFFC0
FFFF1FFFFFC0
FFFF1FFFFFC0
FFFF1FFFFFC0
FFFF1FFFFFC0
FFFF1FFFFFC0
FFFF1FFFFFC0
FFFF0557FFC0
FFFF0003FFC0
FFFFFFFFFFC0
FFFFFFFFFFC0
FFFFFFFFFF80
BFFFFFFFFF40
7FFFFFFFFF00
1FFFFFFFFD00
07FFFFFFF400
006FFFFE4000
ENDCHAR
STARTCHAR M
ENCODING 77
SWIDTH 578 0
DWIDTH 21 0
BBX 21 24 0 0
BITMAP
00AFFFFE4000
07FAAFAAF400
2F8005003D00
7F86A0A92F00
BF8BF0FE2F40
FF8BF0FE2F80
FF8BF0FE2FC0
FF8BF0FE2FC0
FF8BF0FE2FC0
FF8BF0FE2FC0
FF8BF0FE2FC0
FF8BFFFE2FC0
FF8BFFFE2FC0
FF8BFFFE2FC0
FF8BFFFE2FC0
FF8BFFFE2FC0
FFFFFFFFFFC0
FFFFFFFFFFC0
FFFFFFFFFF80
BFFFFFFFFF40
7FFFFFFFFF00
1FFFFFFFFD00
07FFFFFFF400
006FFFFE4000
ENDCHAR
STARTCHAR N
ENCODING 78
SWIDTH 578 0
DWIDTH 21 0
BBX 21 24 0 0
BITMAP
00AFFFFE4000
07FAAAABF400
2FE00001FD00
7FE1AAA4BF00
BFE1FFF4BF40
FFE1FFF8BF80
FFE1FFF8BFC0
FFE1FFF8BFC0
FFE1FFF8BFC0
FFE1FFF8BFC0
FFE1FFF8BFC0
FFE1FFF8BFC0
FFE1FFF8BFC0
FFE1FFF8BFC0
FFE1FFF8BFC0
FFE1FFF8BFC0
FFFFFFFFFFC0
FFFFFFFFFFC0
FFFFFFFFFF80
BFFFFFFFFF40
7FFFFFFFFF00
1FFFFFFFFD00
07FFFFFFF400
006FFFFE4000
ENDCHAR
STARTCHAR O
ENCODING 79
SWIDTH 578 0
DWIDTH 21 0
BBX 21 24 0 0
BITMAP
00AFFFFE4000
07FEAAABF400
2FF40000BD00
7FF0AAA47F00
BFE1FFFC7F40
FFE1FFFC7F80
FFE1FFFC7FC0
FFE1FFFC7FC0
FFE1FFFC7FC0
FFE1FFFC7FC0
FFE1FFFC7FC0
FFE1FFFC7FC0
FFE1FFFC7FC0
FFE1FFF87FC0
FFF01540BFC0
FFF80001FFC0
FFFFFFFFFFC0
FFFFFFFFFFC0
FFFFFFFFFF80
BFFFFFFFFF40
7FFFFFFFFF00
1FFFFFFFFD00
07FFFFFFF400
006FFFFE4000
ENDCHAR
STARTCHAR P
ENCODING 80
SWIDTH 578 0
DWIDTH 21 0
BBX 21 24 0 0
BITMAP
00AFFFFE4000
07FAAAABF400
2FF80001FD00
7FF86AA0BF00
BFF8BFF4BF40
FFF8BFF4BF80
FFF8BFF4BFC0
FFF8BFF4BFC0
FFF8BFF4BFC0
FFF80000FFC0
FFF80016FFC0
FFF8BFFFFFC0
FFF8BFFFFFC0
FFF8BFFFFFC0
FFF8BFFFFFC0
FFF8BFFFFFC0
FFFFFFFFFFC0
FFFFFFFFFFC0
FFFFFFFFFF80
BFFFFFFFFF40
7FFFFFFFFF00
1FFFFFFFFD00
07FFFFFFF400
006FFFFE4000
ENDCHAR
STARTCHAR Q
ENCODING 81
SWIDTH 578 0
DWIDTH 21 0
BBX 21 24 0 0
BITMAP
00AFFFFE4000
07FEAAABF400
2FF40000BD00
7FF0AAA47F00
BFE1FFFC7F40
FFE1FFFC7F80
FFE1FFFC7FC0
FFE1FFFC7FC0
FFE1FFFC7FC0
FFE1FFFC7FC0
FFE1FFFC7FC0
FFE1FFFC7FC0
FFE1FDBC7FC0
FFE1F8787FC0
FFF010007FC0
FFF80001FFC0
FFFFFF4BFFC0
FFFFFF87FFC0
FFFFFFDBFF80
BFFFFFFFFF40
7FFFFFFFFF00
1FFFFFFFFD00
07FFFFFFF400
006FFFFE4000
ENDCHAR
STARTCHAR R
ENCODING 82
SWIDTH 578 0
DWIDTH 21 0
BBX 21 24 0 0
BITMAP
00AFFFFE4000
07FAAAAFF400
2FF00003FD00
7FF0AA91FF00
BFF0FFE1FF40
FFF0FFF1FF80
FFF0FFF1FFC0
FFF0FFE2FFC0
FFF05547FFC0
FFF0001BFFC0
FFF0AA92FFC0
FFF0FFF1FFC0
FFF0FFF0FFC0
FFF0FFF0FFC0
FFF0FFF0FFC0
FFF0FFF0FFC0
FFFFFFFFFFC0
FFFFFFFFFFC0
FFFFFFFFFF80
BFFFFFFFFF40
7FFFFFFFFF00
1FFFFFFFFD00
07FFFFFFF400
006FFFFE4000
ENDCHAR
STARTCHAR S
ENCODING 83
SWIDTH 578 0
DWIDTH 21 0
BBX 21 24 0 0
BITMAP
00AFFFFE4000
07FEAAAAF400
2FF80001FD00
7FF46AA6FF00
BFF0FFFFFF40
FFF0FFFFFF80
FFF0FFFFFFC0
FFF4AAAFFFC0
FFF80001FFC0
FFFE9550BFC0
FFFFFFF4BFC0
FFFFFFF8BFC0
FFFFFFF8BFC0
FFFFFFF4BFC0
FFFC1540BFC0
FFF80002FFC0
FFFFFFFFFFC0
FFFFFFFFFFC0
FFFFFFFFFF80
BFFFFFFFFF40
7FFFFFFFFF00
1FFFFFFFFD00
07FFFFFFF400
006FFFFE4000
ENDCHAR
STARTCHAR T
ENCODING 84
SWIDTH 578 0
DWIDTH 21 0
BBX 21 24 0 0
BITMAP
00AFFFFE4000
07FAAAAAB400
2FF40000BD00
7FFAA46AFF00
BFFFF4BFFF40
FFFFF4BFFF80
FFFFF4BFFFC0
FFFFF4BFFFC0
FFFFF4BFFFC0
FFFFF4BFFFC0
FFFFF4BFFFC0
FFFFF4BFFFC0
FFFFF4BFFFC0
FFFFF4BFFFC0
FFFFF4BFFFC0
FFFFF4BFFFC0
FFFFFFFFFFC0
FFFFFFFFFFC0
FFFFFFFFFF80
BFFFFFFFFF40
7FFFFFFFFF00
1FFFFFFFFD00
07FFFFFFF400
006FFFFE4000
ENDCHAR
STARTCHAR U
ENCODING 85
SWIDTH 578 0
DWIDTH 21 0
BBX 21 24 0 0
BITMAP
00AFFFFE4000
07EAFFFEB400
2FE2FFF87D00
7FE2FFF87F00
BFE2FFF87F40
FFE2FFF87F80
FFE2FFF87FC0
FFE2FFF87FC0
FFE2FFF87FC0
FFE2FFF87FC0
FFE2FFF87FC0
FFE2FFF87FC0
FFE2FFF87FC0
FFE1FFF87FC0
FFF01540BFC0
FFF80001FFC0
FFFFFFFFFFC0
FFFFFFFFFFC0
FFFFFFFFFF80
BFFFFFFFFF40
7FFFFFFFFF00
1FFFFFFFFD00
07FFFFFFF400
006FFFFE4000
ENDCHAR
STARTCHAR V
ENCODING 86
SWIDTH 578 0
DWIDTH 21 0
BBX 21 24 0 0
BITMAP
00AFFFFE4000
07FAFFFAF400
2FE1FFF47D00
7FF0FFF4BF00
BFF0BFF0FF40
FFF4BFE1FF80
FFF87FD2FFC0
FFFC3FD2FFC0
FFFD2FC3FFC0
FFFD2F87FFC0
FFFE1F4BFFC0
FFFF0F0FFFC0
FFFF4B0FFFC0
FFFF8A1FFFC0
FFFF802FFFC0
FFFFE07FFFC0
FFFFFFFFFFC0
FFFFFFFFFFC0
FFFFFFFFFF80
BFFFFFFFFF40
7FFFFFFFFF00
1FFFFFFFFD00
07FFFFFFF400
006FFFFE4000
ENDCHAR
STARTCHAR W
ENCODING 87
SWIDTH 578 0
DWIDTH 21 0
BBX 21 24 0 0
BITMAP
00AFFFFE4000
07AFFFFFA400
2F0FF1FE1D00
7F0FE0FE1F00
BF0FE0FE1F40
FF4BD0BE2F80
FF4BD07D2FC0
FF4BC07D2FC0
FF87C43D3FC0
FF87893C3FC0
FF87892C3FC0
FFC74A2C3FC0
FFC34E1C7FC0
FFC30F187FC0
FFD01F00BFC0
FFF47F81FFC0
FFFFFFFFFFC0
FFFFFFFFFFC0
FFFFFFFFFF80
BFFFFFFFFF40
7FFFFFFFFF00
1FFFFFFFFD00
07FFFFFFF400
006FFFFE4000
ENDCHAR
STARTCHAR X
ENCODING 88
SWIDTH 578 0
DWIDTH 21 0
BBX 21 24 0 0
BITMAP
00AFFFFE4000
07FEFFFEF400
2FF0FFF87D00
7FF87FF0FF00
BFFC2FD1FF40
FFFE0F83FF80
FFFF4B0BFFC0
FFFFC11FFFC0
FFFFE03FFFC0
FFFFD02FFFC0
FFFF820FFFC0
FFFF0B47FFC0
FFFE1FC3FFC0
FFFC3FE1FFC0
FFF4BFF4BFC0
FFF5FFFCBFC0
FFFFFFFFFFC0
FFFFFFFFFFC0
FFFFFFFFFF80
BFFFFFFFFF40
7FFFFFFFFF00
1FFFFFFFFD00
07FFFFFFF400
006FFFFE4000
ENDCHAR
STARTCHAR Y
ENCODING 89
SWIDTH 578 0
DWIDTH 21 0
BBX 21 24 0 0
BITMAP
00AFFFFE4000
07FAFFFAB400
2FF4BFF0BD00
7FF83FE1FF00
BFFC2FD2FF40
FFFE1F83FF80
FFFF0F4BFFC0
FFFF4B0FFFC0
FFFF821FFFC0
FFFFD02FFFC0
FFFFE07FFFC0
FFFFF0BFFFC0
FFFFF4FFFFC0
FFFFF4FFFFC0
FFFFF4FFFFC0
FFFFF4FFFFC0
FFFFFFFFFFC0
FFFFFFFFFFC0
FFFFFFFFFF80
BFFFFFFFFF40
7FFFFFFFFF00
1FFFFFFFFD00
07FFFFFFF400
006FFFFE4000
ENDCHAR
STARTCHAR Z
ENCODING 90
SWIDTH 578 0
DWIDTH 21 0
BBX 21 24 0 0
BITMAP
00AFFFFE4000
07FEAAABF400
2FFC0003FD00
7FFEAA43FF00
BFFFFF4BFF40
FFFFFE1FFF80
FFFFFC2FFFC0
FFFFF87FFFC0
FFFFF0FFFFC0
FFFFD1FFFFC0
FFFFC3FFFFC0
FFFF4BFFFFC0
FFFE0FFFFFC0
FFFD2FFFFFC0
FFF81556FFC0
FFFC0001FFC0
FFFFFFFFFFC0
FFFFFFFFFFC0
FFFFFFFFFF80
BFFFFFFFFF40
7FFFFFFFFF00
1FFFFFFFFD00
07FFFFFFF400
006FFFFE4000
ENDCHAR
STARTCHAR bracketleft
ENCODING 91
SWIDTH 484 0
DWIDTH 17 0
BBX 18 24 0 0
BITMAP
00AFFF9000
07FD0BF800
2FFD0BFF00
7FFD2FFF80
BFFD2FFFC0
FFFD2FFFD0
FFFD2FFFE0
FFFD2FFFE0
FFFD2FFFE0
FFFD2FFFE0
FFFD2FFFE0
FFFD2FFFE0
FFFD2FFFE0
FFFD2FFFE0
FFFD2FFFE0
FFFD2FFFE0
FFFD0BFFE0
FFFD5BFFE0
FFFFFFFFD0
BFFFFFFFC0
7FFFFFFF80
1FFFFFFF00
07FFFFF800
006FFF9000
ENDCHAR
STARTCHAR backslash
ENCODING 92
SWIDTH 516 0
DWIDTH 19 0
BBX 19 24 0 0
BITMAP
00AFFFE400
07FEAFFF40
2FFE1FFFC0
7FFE1FFFE0
BFFF0FFFF4
FFFF0FFFF8
FFFF4BFFF8
FFFF4BFFF8
FFFF87FFF8
FFFF87FFF8
FFFFC3FFF8
FFFFC3FFF8
FFFFD2FFF8
FFFFD2FFF8
FFFFE1FFF8
FFFFE1FFF8
FFFFFFFFF8
FFFFFFFFF8
FFFFFFFFF8
BFFFFFFFF4
7FFFFFFFE0
1FFFFFFFC0
07FFFFFE00
006FFFE400
ENDCHAR
STARTCHAR bracketright
ENCODING 93
SWIDTH 484 0
DWIDTH 17 0
BBX 18 24 0 0
BITMAP
00AFFF9000
07FC0FF800
2FFC0FFF00
7FFF4FFF80
BFFF4FFFC0
FFFF4FFFD0
FFFF4FFFE0
FFFF4FFFE0
FFFF4FFFE0
FFFF4FFFE0
FFFF4FFFE0
FFFF4FFFE0
FFFF4FFFE0
FFFF4FFFE0
FFFF4FFFE0
FFFF4FFFE0
FFFC0FFFE0
FFFD5FFFE0
FFFFFFFFD0
BFFFFFFFC0
7FFFFFFF80
1FFFFFFF00
07FFFFF800
006FFF9000
ENDCHAR
STARTCHAR asciicircum
ENCODING 94
SWIDTH 355 0
DWIDTH 13 0
BBX 13 14 0 8
BITMAP
00150000
01FFD000
07FFF000
0BFFF800
1FE2FC00
2FC5FD00
3F9CFE00
7F6EBF40
BF7F7F80
FEBFAFC0
FFFFFF80
BFFFFF80
2FFBFE00
05405000
ENDCHAR
STARTCHAR underscore
ENCODING 95
SWIDTH 428 0
DWIDTH 15 0
BBX 16 24 0 0
BITMAP
00AFF900
07FFFF80
2FFFFFF0
7FFFFFF8
BFFFFFFC
FFFFFFFD
FFFFFFFD
FFFFFFFD
FFFFFFFD
FFFFFFFD
FFFFFFFD
FFFFFFFD
FFFFFFFD
FFFFFFFD
FFFFFFFD
FFFFFFFD
FE0001FD
FE0001FD
FFFFFFFD
BFFFFFFC
7FFFFFF8
1FFFFFE0
07FFFF80
006FE900
ENDCHAR
STARTCHAR grave
ENCODING 96
SWIDTH 308 0
DWIDTH 11 0
BBX 11 12 0 0
BITMAP
0BFE40
7FFFC0
FFFFE0
FF0FF0
FF4BF0
7FC7F4
3FD3F8
1FF2FC
0BF6FC
03FFFC
02FFF4
00AA90
ENDCHAR
STARTCHAR a
ENCODING 97
SWIDTH 578 0
DWIDTH 21 0
BBX 21 24 0 0
BITMAP
00AFFFFE4000
07FAAAAFF400
2FF40007FD00
7FFAAA92FF00
BFFFFFE2FF40
FFFFFFE2FF80
FFFFFFE2FFC0
FFFFFFE2FFC0
FFFA5552FFC0
FFE00002FFC0
FFD2AA92FFC0
FFD3FFE2FFC0
FFD3FFE2FFC0
FFD2FFE2FFC0
FFD01502FFC0
FFF40002FFC0
FFFFFFFFFFC0
FFFFFFFFFFC0
FFFFFFFFFF80
BFFFFFFFFF40
7FFFFFFFFF00
1FFFFFFFFD00
07FFFFFFF400
006FFFFE4000
ENDCHAR
STARTCHAR b
ENCODING 98
SWIDTH 578 0
DWIDTH 21 0
BBX 21 24 0 0
BITMAP
00AFFFFE4000
07EAAAABF400
2FD00002FD00
7FD1AA91FF00
BFD2FFF0FF40
FFD2FFF0FF80
FFD2FFF0FFC0
FFD1AA91FFC0
FFD00007FFC0
FFD15551FFC0
FFD2FFF0FFC0
FFD2FFF0FFC0
FFD2FFF0FFC0
FFD2FFF0FFC0
FFD05501FFC0
FFD00007FFC0
FFFFFFFFFFC0
FFFFFFFFFFC0
FFFFFFFFFF80
BFFFFFFFFF40
7FFFFFFFFF00
1FFFFFFFFD00
07FFFFFFF400
006FFFFE4000
ENDCHAR
STARTCHAR c
ENCODING 99
SWIDTH 578 0
DWIDTH 21 0
BBX 21 24 0 0
BITMAP
00AFFFFE4000
07FEAAABF400
2FF00007FD00
7FE1AAABFF00
BFD2FFFFFF40
FFD2FFFFFF80
FFD2FFFFFFC0
FFD2FFFFFFC0
FFD2FFFFFFC0
FFD2FFFFFFC0
FFD2FFFFFFC0
FFD2FFFFFFC0
FFD2FFFFFFC0
FFE2FFFFFFC0
FFE01547FFC0
FFF80007FFC0
FFFFFFFFFFC0
FFFFFFFFFFC0
FFFFFFFFFF80
BFFFFFFFFF40
7FFFFFFFFF00
1FFFFFFFFD00
07FFFFFFF400
006FFFFE4000
ENDCHAR
STARTCHAR d
ENCODING 100
SWIDTH 578 0
DWIDTH 21 0
BBX 21 24 0 0
BITMAP
00AFFFFE4000
07FAAAABF400
2FE00000BD00
7FE1AAA47F00
BFE1FFFC7F40
FFE1FFFC7F80
FFE1FFFC7FC0
FFE1FFFC7FC0
FFE1FFFC7FC0
FFE1FFFC7FC0
FFE1FFFC7FC0
FFE1FFFC7FC0
FFE1FFFC7FC0
FFE1FFF87FC0
FFE055407FC0
FFE00001FFC0
FFFFFFFFFFC0
FFFFFFFFFFC0
FFFFFFFFFF80
BFFFFFFFFF40
7FFFFFFFFF00
1FFFFFFFFD00
07FFFFFFF400
006FFFFE4000
ENDCHAR
STARTCHAR e
ENCODING 101
SWIDTH 578 0
DWIDTH 21 0
BBX 21 24 0 0
BITMAP
00AFFFFE4000
07FEAAAFF400
2FF00007FD00
7FD1AA92FF00
BFD2FFE2FF40
FFD2FFE2FF80
FFD2FFD2FFC0
FFD00002FFC0
FFD15556FFC0
FFD2FFFFFFC0
FFD2FFFFFFC0
FFD2FFFFFFC0
FFD2FFFFFFC0
FFD1AA9BFFC0
FFF00007FFC0
FFFEAAABFFC0
FFFFFFFFFFC0
FFFFFFFFFFC0
FFFFFFFFFF80
BFFFFFFFFF40
7FFFFFFFFF00
1FFFFFFFFD00
07FFFFFFF400
006FFFFE4000
ENDCHAR
STARTCHAR f
ENCODING 102
SWIDTH 578 0
DWIDTH 21 0
BBX 21 24 0 0
BITMAP
00AFFFFE4000
07FEAAAAF400
2FFC0001FD00
7FFC2AAAFF00
BFFC3FFFFF40
FFFC3FFFFF80
FFFC3FFFFFC0
FFFC2AABFFC0
FFFC0007FFC0
FFFC2AABFFC0
FFFC3FFFFFC0
FFFC3FFFFFC0
FFFC3FFFFFC0
FFFC3FFFFFC0
FFFC3FFFFFC0
FFFC3FFFFFC0
FFFFFFFFFFC0
FFFFFFFFFFC0
FFFFFFFFFF80
BFFFFFFFFF40
7FFFFFFFFF00
1FFFFFFFFD00
07FFFFFFF400
006FFFFE4000
ENDCHAR
STARTCHAR g
ENCODING 103
SWIDTH 578 0
DWIDTH 21 0
BBX 21 24 0 0
BITMAP
00AFFFFE4000
07FEAAAAF400
2FF80001FD00
7FF06AAAFF00
BFF0FFFFFF40
FFF0FFFFFF80
FFF0FFFFFFC0
FFF0FFFFFFC0
FFF0FFAABFC0
FFF0FE007FC0
FFF0FEA47FC0
FFF0FFFC7FC0
FFF0FFFC7FC0
FFF0FFF87FC0
FFF41540BFC0
FFFD0001FFC0
FFFFFFFFFFC0
FFFFFFFFFFC0
FFFFFFFFFF80
BFFFFFFFFF40
7FFFFFFFFF00
1FFFFFFFFD00
07FFFFFFF400
006FFFFE4000
ENDCHAR
STARTCHAR h
ENCODING 104
SWIDTH 578 0
DWIDTH 21 0
BBX 21 24 0 0
BITMAP
00AFFFFE4000
07FAFFFEB400
2FE1FFFC7D00
7FE1FFFC7F00
BFE1FFFC7F40
FFE1FFFC7F80
FFE1FFFC7FC0
FFE1AAA87FC0
FFE000007FC0
FFE1AAA47FC0
FFE1FFFC7FC0
FFE1FFFC7FC0
FFE1FFFC7FC0
FFE1FFFC7FC0
FFE1FFFC7FC0
FFE1FFFC7FC0
FFFFFFFFFFC0
FFFFFFFFFFC0
FFFFFFFFFF80
BFFFFFFFFF40
7FFFFFFFFF00
1FFFFFFFFD00
07FFFFFFF400
006FFFFE4000
ENDCHAR
STARTCHAR i
ENCODING 105
SWIDTH 578 0
DWIDTH 21 0
BBX 21 24 0 0
BITMAP
00AFFFFE4000
07FAAAAAB400
2FF40000BD00
7FFAA46AFF00
BFFFF4BFFF40
FFFFF4BFFF80
FFFFF4BFFFC0
FFFFF4BFFFC0
FFFFF4BFFFC0
FFFFF4BFFFC0
FFFFF4BFFFC0
FFFFF4BFFFC0
FFFFF4BFFFC0
FFFFF4BFFFC0
FFF55015BFC0
FFF40000BFC0
FFFFFFFFFFC0
FFFFFFFFFFC0
FFFFFFFFFF80
BFFFFFFFFF40
7FFFFFFFFF00
1FFFFFFFFD00
07FFFFFFF400
006FFFFE4000
ENDCHAR
STARTCHAR j
ENCODING 106
SWIDTH 578 0
DWIDTH 21 0
BBX 21 24 0 0
BITMAP
00AFFFFE4000
07FFFFAFF400
2FFFFF1FFD00
7FFFFF1FFF00
BFFFFF1FFF40
FFFFFF1FFF80
FFFFFF1FFFC0
FFFFFF1FFFC0
FFFFFF1FFFC0
FFFFFF1FFFC0
FFFFFF1FFFC0
FFFFFF1FFFC0
FFFFFF1FFFC0
FFFFFF1FFFC0
FFFF501FFFC0
FFFF007FFFC0
FFFFFFFFFFC0
FFFFFFFFFFC0
FFFFFFFFFF80
BFFFFFFFFF40
7FFFFFFFFF00
1FFFFFFFFD00
07FFFFFFF400
006FFFFE4000
ENDCHAR
STARTCHAR k
ENCODING 107
SWIDTH 578 0
DWIDTH 21 0
BBX 21 24 0 0
BITMAP
00AFFFFE4000
07FEBFFE7400
2FFD3FF82D00
7FFD3FE07F00
BFFD3F82FF40
FFFD3E0BFF80
FFFD382FFFC0
FFFD20BFFFC0
FFFD01FFFFC0
FFFD00BFFFC0
FFFD282FFFC0
FFFD3E0BFFC0
FFFD3F43FFC0
FFFD3FD0FFC0
FFFD3FF47FC0
FFFD3FFC7FC0
FFFFFFFFFFC0
FFFFFFFFFFC0
FFFFFFFFFF80
BFFFFFFFFF40
7FFFFFFFFF00
1FFFFFFFFD00
07FFFFFFF400
006FFFFE4000
ENDCHAR
STARTCHAR l
ENCODING 108
SWIDTH 578 0
DWIDTH 21 0
BBX 21 24 0 0
BITMAP
00AFFFFE4000
07FFAFFFF400
2FFF1FFFFD00
7FFF1FFFFF00
BFFF1FFFFF40
FFFF1FFFFF80
FFFF1FFFFFC0
FFFF1FFFFFC0
FFFF1FFFFFC0
FFFF1FFFFFC0
FFFF1FFFFFC0
FFFF1FFFFFC0
FFFF1FFFFFC0
FFFF1FFFFFC0
FFFF0557FFC0
FFFF0003FFC0
FFFFFFFFFFC0
FFFFFFFFFFC0
FFFFFFFFFF80
BFFFFFFFFF40
7FFFFFFFFF00
1FFFFFFFFD00
07FFFFFFF400
006FFFFE4000
ENDCHAR
STARTCHAR m
ENCODING 109
SWIDTH 578 0
DWIDTH 21 0
BBX 21 24 0 0
BITMAP
00AFFFFE4000
07FAAFAAF400
2F8005003D00
7F86A0A92F00
BF8BF0FE2F40
FF8BF0FE2F80
FF8BF0FE2FC0
FF8BF0FE2FC0
FF8BF0FE2FC0
FF8BF0FE2FC0
FF8BF0FE2FC0
FF8BFFFE2FC0
FF8BFFFE2FC0
FF8BFFFE2FC0
FF8BFFFE2FC0
FF8BFFFE2FC0
FFFFFFFFFFC0
FFFFFFFFFFC0
FFFFFFFFFF80
BFFFFFFFFF40
7FFFFFFFFF00
1FFFFFFFFD00
07FFFFFFF400
006FFFFE4000
ENDCHAR
STARTCHAR n
ENCODING 110
SWIDTH 578 0
DWIDTH 21 0
BBX 21 24 0 0
BITMAP
00AFFFFE4000
07FAAAABF400
2FE00001FD00
7FE1AAA4BF00
BFE1FFF4BF40
FFE1FFF8BF80
FFE1FFF8BFC0
FFE1FFF8BFC0
FFE1FFF8BFC0
FFE1FFF8BFC0
FFE1FFF8BFC0
FFE1FFF8BFC0
FFE1FFF8BFC0
FFE1FFF8BFC0
FFE1FFF8BFC0
FFE1FFF8BFC0
FFFFFFFFFFC0
FFFFFFFFFFC0
FFFFFFFFFF80
BFFFFFFFFF40
7FFFFFFFFF00
1FFFFFFFFD00
07FFFFFFF400
006FFFFE4000
ENDCHAR
STARTCHAR o
ENCODING 111
SWIDTH 578 0
DWIDTH 21 0
BBX 21 24 0 0
BITMAP
00AFFFFE4000
07FEAAABF400
2FF40000BD00
7FF0AAA47F00
BFE1FFFC7F40
FFE1FFFC7F80
FFE1FFFC7FC0
FFE1FFFC7FC0
FFE1FFFC7FC0
FFE1FFFC7FC0
FFE1FFFC7FC0
FFE1FFFC7FC0
FFE1FFFC7FC0
FFE1FFF87FC0
FFF01540BFC0
FFF80001FFC0
FFFFFFFFFFC0
FFFFFFFFFFC0
FFFFFFFFFF80
BFFFFFFFFF40
7FFFFFFFFF00
1FFFFFFFFD00
07FFFFFFF400
006FFFFE4000
ENDCHAR
STARTCHAR p
ENCODING 112
SWIDTH 578 0
DWIDTH 21 0
BBX 21 24 0 0
BITMAP
00AFFFFE4000
07FAAAABF400
2FF80001FD00
7FF86AA0BF00
BFF8BFF4BF40
FFF8BFF4BF80
FFF8BFF4BFC0
FFF8BFF4BFC0
FFF8BFF4BFC0
FFF80000FFC0
FFF80016FFC0
FFF8BFFFFFC0
FFF8BFFFFFC0
FFF8BFFFFFC0
FFF8BFFFFFC0
FFF8BFFFFFC0
FFFFFFFFFFC0
FFFFFFFFFFC0
FFFFFFFFFF80
BFFFFFFFFF40
7FFFFFFFFF00
1FFFFFFFFD00
07FFFFFFF400
006FFFFE4000
ENDCHAR
STARTCHAR q
ENCODING 113
SWIDTH 578 0
DWIDTH 21 0
BBX 21 24 0 0
BITMAP
00AFFFFE4000
07FEAAABF400
2FF40000BD00
7FF0AAA47F00
BFE1FFFC7F40
FFE1FFFC7F80
FFE1FFFC7FC0
FFE1FFFC7FC0
FFE1FFFC7FC0
FFE1FFFC7FC0
FFE1FFFC7FC0
FFE1FFFC7FC0
FFE1FDBC7FC0
FFE1F8787FC0
FFF010007FC0
FFF80001FFC0
FFFFFF4BFFC0
FFFFFF87FFC0
FFFFFFDBFF80
BFFFFFFFFF40
7FFFFFFFFF00
1FFFFFFFFD00
07FFFFFFF400
006FFFFE4000
ENDCHAR
STARTCHAR r
ENCODING 114
SWIDTH 578 0
DWIDTH 21 0
BBX 21 24 0 0
BITMAP
00AFFFFE4000
07FAAAAFF400
2FF00003FD00
7FF0AA91FF00
BFF0FFE1FF40
FFF0FFF1FF80
FFF0FFF1FFC0
FFF0FFE2FFC0
FFF05547FFC0
FFF0001BFFC0
FFF0AA92FFC0
FFF0FFF1FFC0
FFF0FFF0FFC0
FFF0FFF0FFC0
FFF0FFF0FFC0
FFF0FFF0FFC0
FFFFFFFFFFC0
FFFFFFFFFFC0
FFFFFFFFFF80
BFFFFFFFFF40
7FFFFFFFFF00
1FFFFFFFFD00
07FFFFFFF400
006FFFFE4000
ENDCHAR
STARTCHAR s
ENCODING 115
SWIDTH 578 0
DWIDTH 21 0
BBX 21 24 0 0
BITMAP
00AFFFFE4000
07FEAAAAF400
2FF80001FD00
7FF46AA6FF00
BFF0FFFFFF40
FFF0FFFFFF80
FFF0FFFFFFC0
FFF4AAAFFFC0
FFF80001FFC0
FFFE9550BFC0
FFFFFFF4BFC0
FFFFFFF8BFC0
FFFFFFF8BFC0
FFFFFFF4BFC0
FFFC1540BFC0
FFF80002FFC0
FFFFFFFFFFC0
FFFFFFFFFFC0
FFFFFFFFFF80
BFFFFFFFFF40
7FFFFFFFFF00
1FFFFFFFFD00
07FFFFFFF400
006FFFFE4000
ENDCHAR
STARTCHAR t
ENCODING 116
SWIDTH 578 0
DWIDTH 21 0
BBX 21 24 0 0
BITMAP
00AFFFFE4000
07FAAAAAB400
2FF40000BD00
7FFAA46AFF00
BFFFF4BFFF40
FFFFF4BFFF80
FFFFF4BFFFC0
FFFFF4BFFFC0
FFFFF4BFFFC0
FFFFF4BFFFC0
FFFFF4BFFFC0
FFFFF4BFFFC0
FFFFF4BFFFC0
FFFFF4BFFFC0
FFFFF4BFFFC0
FFFFF4BFFFC0
FFFFFFFFFFC0
FFFFFFFFFFC0
FFFFFFFFFF80
BFFFFFFFFF40
7FFFFFFFFF00
1FFFFFFFFD00
07FFFFFFF400
006FFFFE4000
ENDCHAR
STARTCHAR u
ENCODING 117
SWIDTH 578 0
DWIDTH 21 0
BBX 21 24 0 0
BITMAP
00AFFFFE4000
07EAFFFEB400
2FE2FFF87D00
7FE2FFF87F00
BFE2FFF87F40
FFE2FFF87F80
FFE2FFF87FC0
FFE2FFF87FC0
FFE2FFF87FC0
FFE2FFF87FC0
FFE2FFF87FC0
FFE2FFF87FC0
FFE2FFF87FC0
FFE1FFF87FC0
FFF01540BFC0
FFF80001FFC0
FFFFFFFFFFC0
FFFFFFFFFFC0
FFFFFFFFFF80
BFFFFFFFFF40
7FFFFFFFFF00
1FFFFFFFFD00
07FFFFFFF400
006FFFFE4000
ENDCHAR
STARTCHAR v
ENCODING 118
SWIDTH 578 0
DWIDTH 21 0
BBX 21 24 0 0
BITMAP
00AFFFFE4000
07FAFFFAF400
2FE1FFF47D00
7FF0FFF4BF00
BFF0BFF0FF40
FFF4BFE1FF80
FFF87FD2FFC0
FFFC3FD2FFC0
FFFD2FC3FFC0
FFFD2F87FFC0
FFFE1F4BFFC0
FFFF0F0FFFC0
FFFF4B0FFFC0
FFFF8A1FFFC0
FFFF802FFFC0
FFFFE07FFFC0
FFFFFFFFFFC0
FFFFFFFFFFC0
FFFFFFFFFF80
BFFFFFFFFF40
7FFFFFFFFF00
1FFFFFFFFD00
07FFFFFFF400
006FFFFE4000
ENDCHAR
STARTCHAR w
ENCODING 119
SWIDTH 578 0
DWIDTH 21 0
BBX 21 24 0 0
BITMAP
00AFFFFE4000
07AFFFFFA400
2F0FF1FE1D00
7F0FE0FE1F00
BF0FE0FE1F40
FF4BD0BE2F80
FF4BD07D2FC0
FF4BC07D2FC0
FF87C43D3FC0
FF87893C3FC0
FF87892C3FC0
FFC74A2C3FC0
FFC34E1C7FC0
FFC30F187FC0
FFD01F00BFC0
FFF47F81FFC0
FFFFFFFFFFC0
FFFFFFFFFFC0
FFFFFFFFFF80
BFFFFFFFFF40
7FFFFFFFFF00
1FFFFFFFFD00
07FFFFFFF400
006FFFFE4000
ENDCHAR
STARTCHAR x
ENCODING 120
SWIDTH 578 0
DWIDTH 21 0
BBX 21 24 0 0
BITMAP
00AFFFFE4000
07FEFFFEF400
2FF0FFF87D00
7FF87FF0FF00
BFFC2FD1FF40
FFFE0F83FF80
FFFF4B0BFFC0
FFFFC11FFFC0
FFFFE03FFFC0
FFFFD02FFFC0
FFFF820FFFC0
FFFF0B47FFC0
FFFE1FC3FFC0
FFFC3FE1FFC0
FFF4BFF4BFC0
FFF5FFFCBFC0
FFFFFFFFFFC0
FFFFFFFFFFC0
FFFFFFFFFF80
BFFFFFFFFF40
7FFFFFFFFF00
1FFFFFFFFD00
07FFFFFFF400
006FFFFE4000
ENDCHAR
STARTCHAR y
ENCODING 121
SWIDTH 578 0
DWIDTH 21 0
BBX 21 24 0 0
BITMAP
00AFFFFE4000
07FAFFFAB400
2FF4BFF0BD00
7FF83FE1FF00
BFFC2FD2FF40
FFFE1F83FF80
FFFF0F4BFFC0
FFFF4B0FFFC0
FFFF821FFFC0
FFFFD02FFFC0
FFFFE07FFFC0
FFFFF0BFFFC0
FFFFF4FFFFC0
FFFFF4FFFFC0
FFFFF4FFFFC0
FFFFF4FFFFC0
FFFFFFFFFFC0
FFFFFFFFFFC0
FFFFFFFFFF80
BFFFFFFFFF40
7FFFFFFFFF00
1FFFFFFFFD00
07FFFFFFF400
006FFFFE4000
ENDCHAR
STARTCHAR z
ENCODING 122
SWIDTH 578 0
DWIDTH 21 0
BBX 21 24 0 0
BITMAP
00AFFFFE4000
07FEAAABF400
2FFC0003FD00
7FFEAA43FF00
BFFFFF4BFF40
FFFFFE1FFF80
FFFFFC2FFFC0
FFFFF87FFFC0
FFFFF0FFFFC0
FFFFD1FFFFC0
FFFFC3FFFFC0
FFFF4BFFFFC0
FFFE0FFFFFC0
FFFD2FFFFFC0
FFF81556FFC0
FFFC0001FFC0
FFFFFFFFFFC0
FFFFFFFFFFC0
FFFFFFFFFF80
BFFFFFFFFF40
7FFFFFFFFF00
1FFFFFFFFD00
07FFFFFFF400
006FFFFE4000
ENDCHAR
STARTCHAR braceleft
ENCODING 123
SWIDTH 484 0
DWIDTH 17 0
BBX 18 24 0 0
BITMAP
00AFFF9000
07FE41F800
2FF801FF00
7FF4BFFF80
BFF4BFFFC0
FFF4BFFFD0
FFF4BFFFE0
FFF4FFFFE0
FE90FFFFE0
FC01FFFFE0
FEA0FFFFE0
FFF4BFFFE0
FFF4BFFFE0
FFF4BFFFE0
FFF4BFFFE0
FFF4BFFFE0
FFF801FFE0
FFFE51FFE0
FFFFFFFFD0
BFFFFFFFC0
7FFFFFFF80
1FFFFFFF00
07FFFFF800
006FFF9000
ENDCHAR
STARTCHAR bar
ENCODING 124
SWIDTH 484 0
DWIDTH 17 0
BBX 18 24 0 0
BITMAP
00AF2F9000
07FF2FF800
2FFF2FFF00
7FFF2FFF80
BFFF2FFFC0
FFFF2FFFD0
FFFF2FFFE0
FFFF2FFFE0
FFFF2FFFE0
FFFF2FFFE0
FFFF2FFFE0
FFFF2FFFE0
FFFF2FFFE0
FFFF2FFFE0
FFFF2FFFE0
FFFF2FFFE0
FFFF2FFFE0
FFFFAFFFE0
FFFFFFFFD0
BFFFFFFFC0
7FFFFFFF80
1FFFFFFF00
07FFFFF800
006FFF9000
ENDCHAR
STARTCHAR braceright
ENCODING 125
SWIDTH 484 0
DWIDTH 17 0
BBX 18 24 0 0
BITMAP
00AFFF9000
07E05FF800
2FE007FF00
7FFFC3FF80
BFFFD3FFC0
FFFFD3FFD0
FFFFD3FFE0
FFFFD3FFE0
FFFFD16BE0
FFFFE007E0
FFFFD1ABE0
FFFFD3FFE0
FFFFD3FFE0
FFFFD3FFE0
FFFFD3FFE0
FFFFC3FFE0
FFE007FFE0
FFE05FFFE0
FFFFFFFFD0
BFFFFFFFC0
7FFFFFFF80
1FFFFFFF00
07FFFFF800
006FFF9000
ENDCHAR
STARTCHAR asciitilde
ENCODING 126
SWIDTH 578 0
DWIDTH 21 0
BBX 21 24 0 0
BITMAP
00AFFFFE4000
07FFFFFFF400
2FFFFFFFFD00
7FFFFFFFFF00
BFFFFFFFFF40
FFFEBFF6FF80
FFF001B1FFC0
FFE19002FFC0
FFE2FE57FFC0
FFFFFFFFFFC0
FFFFFFFFFFC0
FFFFFFFFFFC0
FFFFFFFFFFC0
FFFFFFFFFFC0
FFFFFFFFFFC0
FFFFFFFFFFC0
FFFFFFFFFFC0
FFFFFFFFFFC0
FFFFFFFFFF80
BFFFFFFFFF40
7FFFFFFFFF00
1FFFFFFFFD00
07FFFFFFF400
006FFFFE4000
ENDCHAR
STARTCHAR uni00A0
ENCODING 160
SWIDTH 151 0
DWIDTH 5 0
BBX 1 1 0 0
BITMAP
00
ENDCHAR
STARTCHAR exclamdown
ENCODING 161
SWIDTH 424 0
DWIDTH 15 0
BBX 16 24 0 0
BITMAP
00AFF900
07FEBF80
2FFC7FE0
7FFEBFF4
BFFFFFFC
FFFD7FFD
FFFD7FFD
FFFD7FFD
FFFD7FFD
FFFD7FFD
FFFD7FFD
FFFD7FFD
FFFD7FFD
FFFD7FFD
FFFD7FFD
FFFD7FFD
FFFEBFFD
FFFFFFFD
FFFFFFFD
BFFFFFFC
7FFFFFF4
1FFFFFE0
07FFFF80
006FE800
ENDCHAR
STARTCHAR cent
ENCODING 162
SWIDTH 578 0
DWIDTH 21 0
BBX 21 24 0 0
BITMAP
00AFFBFE4000
07FFF5FFF400
2FFFF5FFFD00
7FFE505BFF00
BFF8000BFF40
FFF475EFFF80
FFF4B5FFFFC0
FFF4B5FFFFC0
FFF4B5FFFFC0
FFF4B5FFFFC0
FFF4B5FFFFC0
FFF4B5FFFFC0
FFF4B5FFFFC0
FFF8615BFFC0
FFFC000BFFC0
FFFFA1AFFFC0
FFFFF5FFFFC0
FFFFF5FFFFC0
FFFFFFFFFF80
BFFFFFFFFF40
7FFFFFFFFF00
1FFFFFFFFD00
07FFFFFFF400
006FFFFE4000
ENDCHAR
STARTCHAR sterling
ENCODING 163
SWIDTH 578 0
DWIDTH 21 0
BBX 21 24 0 0
BITMAP
00AFFFFE4000
07FFE9AFF400
2FFF400BFD00
7FFE1A83FF00
BFFE2FC3FF40
FFFE2FD7FF80
FFFE2FFFFFC0
FFFE2FFFFFC0
FFF9155FFFC0
FFF4055FFFC0
FFFE2FFFFFC0
FFFE2FFFFFC0
FFFE2FFFFFC0
FFFE2FFFFFC0
FFFE0557FFC0
FFFE0007FFC0
FFFFFFFFFFC0
FFFFFFFFFFC0
FFFFFFFFFF80
BFFFFFFFFF40
7FFFFFFFFF00
1FFFFFFFFD00
07FFFFFFF400
006FFFFE4000
ENDCHAR
STARTCHAR currency
ENCODING 164
SWIDTH 578 0
DWIDTH 21 0
BBX 21 24 0 0
BITMAP
00AFFFFE4000
07FFFFFFF400
2FF1FAB8BD00
7FF40001FF00
BFFC6A92FF40
FFFCBFE2FF80
FFFCBFE2FFC0
FFFCBFE2FFC0
FFFCBFE2FFC0
FFFCBFE2FFC0
FFFC6A93FFC0
FFF80001FFC0
FFF1EAB4BFC0
FFFBFFFEFFC0
FFFFFFFFFFC0
FFFFFFFFFFC0
FFFFFFFFFFC0
FFFFFFFFFFC0
FFFFFFFFFF80
BFFFFFFFFF40
7FFFFFFFFF00
1FFFFFFFFD00
07FFFFFFF400
006FFFFE4000
ENDCHAR
STARTCHAR yen
ENCODING 165
SWIDTH 578 0
DWIDTH 21 0
BBX 21 24 0 0
BITMAP
00AFFFFE4000
07EAFFFAF400
2FE0FFD1FD00
7FF0BFC3FF00
BFF87F87FF40
FFFC3F0BFF80
FFFD2E0FFFC0
FFFE1D2FFFC0
FFFF483FFFC0
FFFF807FFFC0
FFFD405FFFC0
FFFC000FFFC0
FFFD515FFFC0
FFFD000FFFC0
FFFFE1FFFFC0
FFFFE1FFFFC0
FFFFFFFFFFC0
FFFFFFFFFFC0
FFFFFFFFFF80
BFFFFFFFFF40
7FFFFFFFFF00
1FFFFFFFFD00
07FFFFFFF400
006FFFFE4000
ENDCHAR
STARTCHAR brokenbar
ENCODING 166
SWIDTH 484 0
DWIDTH 17 0
BBX 18 24 0 0
BITMAP
00AFFF9000
07FFAFF800
2FFF1FFF00
7FFF1FFF80
BFFF1FFFC0
FFFF1FFFD0
FFFF1FFFE0
FFFF6FFFE0
FFFFFFFFE0
FFFFAFFFE0
FFFF1FFFE0
FFFF1FFFE0
FFFF1FFFE0
FFFF1FFFE0
FFFF1FFFE0
FFFF1FFFE0
FFFFFFFFE0
FFFFFFFFE0
FFFFFFFFD0
BFFFFFFFC0
7FFFFFFF80
1FFFFFFF00
07FFFFF800
006FFF9000
ENDCHAR
STARTCHAR section
ENCODING 167
SWIDTH 578 0
DWIDTH 21 0
BBX 21 24 0 0
BITMAP
00AFFFFE4000
07FFAAABF400
2FFC0001FD00
7FF4AAAAFF00
BFF5FFFFFF40
FFF4FFFFFF80
FFF856BFFFC0
FFFD001FFFC0
FFFE2F4FFFC0
FFFE3F8FFFC0
FFFE2F4FFFC0
FFFF000BFFC0
FFFFEA93FFC0
FFFFFFE2FFC0
FFFFFFE2FFC0
FFFFFFE2FFC0
FFF15543FFC0
FFF5555FFFC0
FFFFFFFFFF80
BFFFFFFFFF40
7FFFFFFFFF00
1FFFFFFFFD00
07FFFFFFF400
006FFFFE4000
ENDCHAR
STARTCHAR dieresis
ENCODING 168
SWIDTH 388 0
DWIDTH 14 0
BBX 14 11 0 0
BITMAP
00154000
06FFF900
1FFFFF40
7FFFFFD0
BFFFFFE0
FD1F0BF0
FD1F0BF0
BEAFAFE0
7FFFFFD0
2FFFFF80
05555500
ENDCHAR
STARTCHAR copyright
ENCODING 169
SWIDTH 578 0
DWIDTH 21 0
BBX 21 24 0 0
BITMAP
00AFFFFE4000
07FFA5BFF400
2FF81547FD00
7FD2FFF4BF00
BF4BAAAE2F40
FE2E050F8F80
FD7E3FFFCBC0
FCFD7FFFE7C0
F8FD7FFFF3C0
F9FD7FFFF3C0
F9FD7FFFF3C0
F8FD7FFFE3C0
FCBD7FFFD7C0
FD7E155FCBC0
FF1F955F1FC0
FF87FFF87FC0
FFF46A91FFC0
FFFE401BFFC0
FFFFFFFFFF80
BFFFFFFFFF40
7FFFFFFFFF00
1FFFFFFFFD00
07FFFFFFF400
006FFFFE4000
ENDCHAR
STARTCHAR ordfeminine
ENCODING 170
SWIDTH 578 0
DWIDTH 21 0
BBX 21 24 0 0
BITMAP
00AFFFFE4000
07FFAAAFF400
2FFE0007FD00
7FFF6A92FF00
BFFFFFE2FF40
FFFFFFE2FF80
FFFFFFE2FFC0
FFFD0002FFC0
FFF81542FFC0
FFF8BFE2FFC0
FFF4BFE2FFC0
FFF86A92FFC0
FFFC0007FFC0
FFFFA5AFFFC0
FFFFFFFFFFC0
FFFFFFFFFFC0
FFFFFFFFFFC0
FFFFFFFFFFC0
FFFFFFFFFF80
BFFFFFFFFF40
7FFFFFFFFF00
1FFFFFFFFD00
07FFFFFFF400
006FFFFE4000
ENDCHAR
STARTCHAR guillemotleft
ENCODING 171
SWIDTH 578 0
DWIDTH 21 0
BBX 21 24 0 0
BITMAP
00AFFFFE4000
07FFFFFFF400
2FFFFFFFFD00
7FFFEBF7FF00
BFFFCBD7FF40
FFFF5F5FFF80
FFFD3E3FFFC0
FFF8B8BFFFC0
FFF1F1FFFFC0
FFD7D7FFFFC0
FFD3D7FFFFC0
FFF1F5FFFFC0
FFF8BCBFFFC0
FFFE3E3FFFC0
FFFF5F5FFFC0
FFFFCBD7FFC0
FFFFEBFBFFC0
FFFFFFFFFFC0
FFFFFFFFFF80
BFFFFFFFFF40
7FFFFFFFFF00
1FFFFFFFFD00
07FFFFFFF400
006FFFFE4000
ENDCHAR
STARTCHAR uni00AD
ENCODING 173
SWIDTH 428 0
DWIDTH 15 0
BBX 16 24 0 0
BITMAP
00AFF900
07FFFF80
2FFFFFF0
7FFFFFF8
BFFFFFFC
FFFFFFFD
FF4003FD
FF4003FD
FFFFFFFD
FFFFFFFD
FFFFFFFD
FFFFFFFD
FFFFFFFD
FFFFFFFD
FFFFFFFD
FFFFFFFD
FFFFFFFD
FFFFFFFD
FFFFFFFD
BFFFFFFC
7FFFFFF8
1FFFFFE0
07FFFF80
006FE900
ENDCHAR
STARTCHAR registered
ENCODING 174
SWIDTH 578 0
DWIDTH 21 0
BBX 21 24 0 0
BITMAP
00AFFFFE4000
07FFA5BFF400
2FF81547FD00
7FD2FFF4BF00
BF4A55AE2F40
FE2E150F8F80
FD7E3FCBCBC0
FCFE3FCBE7C0
F8FE3FCBF3C0
F9FE152FF3C0
F9FE154FF3C0
F8FE3FCBE3C0
FCBE3FDBD7C0
FD7E3FDBCBC0
FF1E7FDB1FC0
FF87FFF87FC0
FFF46A91FFC0
FFFE401BFFC0
FFFFFFFFFF80
BFFFFFFFFF40
7FFFFFFFFF00
1FFFFFFFFD00
07FFFFFFF400
006FFFFE4000
ENDCHAR
STARTCHAR macron
ENCODING 175
SWIDTH 428 0
DWIDTH 15 0
BBX 16 11 0 0
BITMAP
00155000
02FFFE40
1FFFFFE0
7FFFFFF8
BFFFFFFC
FF955BFD
FF0007FD
FFAAABFD
7FFFFFFC
2FFFFFF4
0BFFFFD0
ENDCHAR
STARTCHAR degree
ENCODING 176
SWIDTH 428 0
DWIDTH 15 0
BBX 16 24 0 0
BITMAP
00AFF900
07FEBF80
2FD00BF0
7F8687F8
BF8FD3FC
FF8BD3FD
FF8007FD
FFE55FFD
FFFFFFFD
FFFFFFFD
FFFFFFFD
FFFFFFFD
FFFFFFFD
FFFFFFFD
FFFFFFFD
FFFFFFFD
FFFFFFFD
FFFFFFFD
FFFFFFFD
BFFFFFFC
7FFFFFF8
1FFFFFE0
07FFFF80
006FE900
ENDCHAR
STARTCHAR plusminus
ENCODING 177
SWIDTH 428 0
DWIDTH 15 0
BBX 16 24 0 0
BITMAP
00AFF900
07FDBF80
2FFC7FF0
7FFC7FF8
BFFC7FFC
FE0000BD
FE5415FD
FFFC7FFD
FFFC7FFD
FFFC7FFD
FFFEFFFD
FFAAABFD
FF4003FD
FF9557FD
FFFFFFFD
FFFFFFFD
FFFFFFFD
FFFFFFFD
FFFFFFFD
BFFFFFFC
7FFFFFF8
1FFFFFE0
07FFFF80
006FE900
ENDCHAR
STARTCHAR uni00B2
ENCODING 178
SWIDTH 578 0
DWIDTH 21 0
BBX 21 24 0 0
BITMAP
00AFFFFE4000
07FFAABFF400
2FFE001FFD00
7FFC2A4BFF00
BFFEBF8BFF40
FFFFE50BFF80
FFFD002FFFC0
FFFC2BFFFFC0
FFFC7FFFFFC0
FFFC001FFFC0
FFFE001FFFC0
FFFFFFFFFFC0
FFFFFFFFFFC0
FFFFFFFFFFC0
FFFFFFFFFFC0
FFFFFFFFFFC0
FFFFFFFFFFC0
FFFFFFFFFFC0
FFFFFFFFFF80
BFFFFFFFFF40
7FFFFFFFFF00
1FFFFFFFFD00
07FFFFFFF400
006FFFFE4000
ENDCHAR
STARTCHAR uni00B3
ENCODING 179
SWIDTH 578 0
DWIDTH 21 0
BBX 21 24 0 0
BITMAP
00AFFFFE4000
07FFEAAFF400
2FFE0003FD00
7FFD1A91FF00
BFFFBFE1FF40
FFFFF542FF80
FFFFF002FFC0
FFFFFFE1FFC0
FFFD2FE1FFC0
FFFD0002FFC0
FFFF400BFFC0
FFFFFFFFFFC0
FFFFFFFFFFC0
FFFFFFFFFFC0
FFFFFFFFFFC0
FFFFFFFFFFC0
FFFFFFFFFFC0
FFFFFFFFFFC0
FFFFFFFFFF80
BFFFFFFFFF40
7FFFFFFFFF00
1FFFFFFFFD00
07FFFFFFF400
006FFFFE4000
ENDCHAR
STARTCHAR acute
ENCODING 180
SWIDTH 308 0
DWIDTH 11 0
BBX 11 12 0 0
BITMAP
02FF90
0FFFF4
1FFFFC
2FC3FC
3F87FC
7F4FF8
BF1FF0
FE2FD0
FE7F80
FFFF40
7FFE00
1AA800
ENDCHAR
STARTCHAR uni00B5
ENCODING 181
SWIDTH 578 0
DWIDTH 21 0
BBX 21 24 0 0
BITMAP
00AFFFFE4000
07EBFFFAF400
2FC3FFF4BD00
7FC3FFF4BF00
BFC3FFF4BF40
FFC3FFF4BF80
FFC3FFF4BFC0
FFC3FFF4BFC0
FFC3FFF4BFC0
FFC3FFF4BFC0
FFC3FFF4BFC0
FFC3FFF4BFC0
FFC3FFF4BFC0
FFC3FFF0FFC0
FFC00000FFC0
FFC00006FFC0
FFC3FFFFFFC0
FFC3FFFFFFC0
FFEBFFFFFF80
BFFFFFFFFF40
7FFFFFFFFF00
1FFFFFFFFD00
07FFFFFFF400
006FFFFE4000
ENDCHAR
STARTCHAR paragraph
ENCODING 182
SWIDTH 578 0
DWIDTH 21 0
BBX 21 24 0 0
BITMAP
00AFFFFE4000
07FFFFFFF400
2FF40003FD00
7FE000B3FF00
BFE000B3FF40
FFE000B3FF80
FFE000B3FFC0
FFE000B3FFC0
FFF400B3FFC0
FFFFA8B3FFC0
FFFFFCB3FFC0
FFFFFCB3FFC0
FFFFFCB3FFC0
FFFFFCB3FFC0
FFFFFCB3FFC0
FFFFFDB7FFC0
FFFFFFFFFFC0
FFFFFFFFFFC0
FFFFFFFFFF80
BFFFFFFFFF40
7FFFFFFFFF00
1FFFFFFFFD00
07FFFFFFF400
006FFFFE4000
ENDCHAR
STARTCHAR periodcentered
ENCODING 183
SWIDTH 428 0
DWIDTH 15 0
BBX 16 24 0 0
BITMAP
00AFF900
07FFFF80
2FFFFFF0
7FFFFFF8
BFFFFFFC
FFFFFFFD
FFF83FFD
FFF83FFD
FFFEBFFD
FFFFFFFD
FFFFFFFD
FFFFFFFD
FFFFFFFD
FFFFFFFD
FFFFFFFD
FFFFFFFD
FFFFFFFD
FFFFFFFD
FFFFFFFD
BFFFFFFC
7FFFFFF8
1FFFFFE0
07FFFF80
006FE900
ENDCHAR
STARTCHAR cedilla
ENCODING 184
SWIDTH 101 0
DWIDTH 4 0
BBX 4 6 0 -6
BITMAP
1A
BE
E0
E0
BE
15
ENDCHAR
STARTCHAR uni00B9
ENCODING 185
SWIDTH 578 0
DWIDTH 21 0
BBX 21 24 0 0
BITMAP
00AFFFFE4000
07FFE6FFF400
2FFE00FFFD00
7FFE10FFFF00
BFFFF0FFFF40
FFFFF0FFFF80
FFFFF0FFFFC0
FFFFF0FFFFC0
FFFFF0FFFFC0
FFFFF0FFFFC0
FFFFF1FFFFC0
FFFFFFFFFFC0
FFFFFFFFFFC0
FFFFFFFFFFC0
FFFFFFFFFFC0
FFFFFFFFFFC0
FFFFFFFFFFC0
FFFFFFFFFFC0
FFFFFFFFFF80
BFFFFFFFFF40
7FFFFFFFFF00
1FFFFFFFFD00
07FFFFFFF400
006FFFFE4000
ENDCHAR
STARTCHAR ordmasculine
ENCODING 186
SWIDTH 578 0
DWIDTH 21 0
BBX 21 24 0 0
BITMAP
00AFFFFE4000
07FFAAABF400
2FFC0001FD00
7FF86AA0BF00
BFF4BFF4BF40
FFF4BFF4BF80
FFF4BFF4BFC0
FFF4BFF4BFC0
FFF4BFF4BFC0
FFF4BFF4BFC0
FFF4BFF4BFC0
FFF86AA0BFC0
FFFC0001FFC0
FFFFA56BFFC0
FFFFFFFFFFC0
FFFFFFFFFFC0
FFFFFFFFFFC0
FFFFFFFFFFC0
FFFFFFFFFF80
BFFFFFFFFF40
7FFFFFFFFF00
1FFFFFFFFD00
07FFFFFFF400
006FFFFE4000
ENDCHAR
STARTCHAR guillemotright
ENCODING 187
SWIDTH 578 0
DWIDTH 21 0
BBX 21 24 0 0
BITMAP
00AFFFFE4000
07FFFFFFF400
2FFFFFFFFD00
7FF7FAFFFF00
BFF5F8FFFF40
FFFCBD7FFF80
FFFE2F2FFFC0
FFFF4F8FFFC0
FFFFD7D7FFC0
FFFFF2F2FFC0
FFFFF2F2FFC0
FFFFD7D7FFC0
FFFF4F8FFFC0
FFFE2F2FFFC0
FFFCBD7FFFC0
FFF5F4FFFFC0
FFF7FAFFFFC0
FFFFFFFFFFC0
FFFFFFFFFF80
BFFFFFFFFF40
7FFFFFFFFF00
1FFFFFFFFD00
07FFFFFFF400
006FFFFE4000
ENDCHAR
STARTCHAR onequarter
ENCODING 188
SWIDTH 578 0
DWIDTH 21 0
BBX 21 24 0 0
BITMAP
00AFFFFE4000
079BFAFFF400
2803F1FFFD00
7843E2FFFF00
BFC3D2FFFF40
FFC3C3FFFF80
FFC3C7FFFFC0
FFC386BFAFC0
FFC3493E1FC0
FFC30D3E1FC0
FFC71D3E1FC0
FFFE1D3E1FC0
FFFD2D2E1FC0
FFFD3E0401C0
FFFC7F4001C0
FFF87FFE1FC0
FFFFFFFE1FC0
FFFFFFFE6FC0
FFFFFFFFFF80
BFFFFFFFFF40
7FFFFFFFFF00
1FFFFFFFFD00
07FFFFFFF400
006FFFFE4000
ENDCHAR
STARTCHAR onehalf
ENCODING 189
SWIDTH 578 0
DWIDTH 21 0
BBX 21 24 0 0
BITMAP
00AFFFFE4000
079BFAFFF400
2803F1FFFD00
7843E2FFFF00
BFC3D2FFFF40
FFC3C3FFFF80
FFC3C7EABFC0
FFC387000BC0
FFC3491A47C0
FFC30E7FC3C0
FFC71FE547C0
FFFE1F001FC0
FFFD2D1AFFC0
FFFD3D2FFFC0
FFFC7D055FC0
FFF87F000BC0
FFFFFFFFFFC0
FFFFFFFFFFC0
FFFFFFFFFF80
BFFFFFFFFF40
7FFFFFFFFF00
1FFFFFFFFD00
07FFFFFFF400
006FFFFE4000
ENDCHAR
STARTCHAR threequarters
ENCODING 190
SWIDTH 578 0
DWIDTH 21 0
BBX 21 24 0 0
BITMAP
00AFFFFE4000
079BFAFFF400
2803F1FFFD00
7843E2FFFF00
BFC3D2FFFF40
FFC3C3FFFF80
FFC3C7EAAFC0
FFC3860007C0
FFC3491A52C0
FFC30EBFE1C0
FFC71FF542C0
FFFE1FF002C0
FFFD2FFFE2C0
FFFD3D3FE1C0
FFFC7D0502C0
FFF87F4007C0
FFFFFFFFFFC0
FFFFFFFFFFC0
FFFFFFFFFF80
BFFFFFFFFF40
7FFFFFFFFF00
1FFFFFFFFD00
07FFFFFFF400
006FFFFE4000
ENDCHAR
STARTCHAR questiondown
ENCODING 191
SWIDTH 578 0
DWIDTH 21 0
BBX 21 24 0 0
BITMAP
00AFFFFE4000
07FFFDBFF400
2FFFF87FFD00
7FFFFEFFFF00
BFFFFDBFFF40
FFFFFCBFFF80
FFFFFCBFFFC0
FFFE40BFFFC0
FFF855FFFFC0
FFF8FFFFFFC0
FFF4FFFFFFC0
FFF4FFFFFFC0
FFF4FFFAFFC0
FFF8FFF4FFC0
FFFC0001FFC0
FFFF955BFFC0
FFFFFFFFFFC0
FFFFFFFFFFC0
FFFFFFFFFF80
BFFFFFFFFF40
7FFFFFFFFF00
1FFFFFFFFD00
07FFFFFFF400
006FFFFE4000
ENDCHAR
STARTCHAR Agrave
ENCODING 192
SWIDTH 578 0
DWIDTH 21 0
BBX 21 34 0 0
BITMAP
001BF9000000
00BFFF400000
01FFFFC00000
02FD2FD00000
01FF1FE00000
00FF4FF00000
00BF8BF00000
003FD7F40000
001FE7F80000
000BFFF40000
00AFFFFE4000
07FFFFEFF400
2FFC0007FD00
7FF86A92FF00
BFF4BFE1FF40
FFF4BFE1FF80
FFF4FFE1FFC0
FFF0FFF1FFC0
FFF0FFF0FFC0
FFF00000FFC0
FFE05550FFC0
FFE1FFF4BFC0
FFE1FFF4BFC0
FFD2FFF8BFC0
FFD2FFF87FC0
FFD2FFF87FC0
FFFFFFFFFFC0
FFFFFFFFFFC0
FFFFFFFFFF80
BFFFFFFFFF40
7FFFFFFFFF00
1FFFFFFFFD00
07FFFFFFF400
006FFFFE4000
ENDCHAR
STARTCHAR Aacute
ENCODING 193
SWIDTH 578 0
DWIDTH 21 0
BBX 21 34 0 0
BITMAP
00001BF90000
00007FFF8000
0000FFFFD000
0001FE1FE000
0002FD3FD000
0003FC7FC000
0003F8BF4000
0007F5FF0000
000BF6FD0000
0007FFF80000
00AFFFFE4000
07FFFFFFF400
2FFC0007FD00
7FF86A92FF00
BFF4BFE1FF40
FFF4BFE1FF80
FFF4FFE1FFC0
FFF0FFF1FFC0
FFF0FFF0FFC0
FFF00000FFC0
FFE05550FFC0
FFE1FFF4BFC0
FFE1FFF4BFC0
FFD2FFF8BFC0
FFD2FFF87FC0
FFD2FFF87FC0
FFFFFFFFFFC0
FFFFFFFFFFC0
FFFFFFFFFF80
BFFFFFFFFF40
7FFFFFFFFF00
1FFFFFFFFD00
07FFFFFFF400
006FFFFE4000
ENDCHAR
STARTCHAR Acircumflex
ENCODING 194
SWIDTH 578 0
DWIDTH 21 0
BBX 21 35 0 0
BITMAP
00006A900000
0001FFF40000
0003FFF80000
000BFAFD0000
000FE0FE0000
001FD5BF0000
002FCA7F8000
003F8F2FC000
007F5F5FD000
00BF7FAFD000
00BFFFFFD000
00BFFFFFC000
07FFFAFFF400
2FFC0007FD00
7FF86A92FF00
BFF4BFE1FF40
FFF4BFE1FF80
FFF4FFE1FFC0
FFF0FFF1FFC0
FFF0FFF0FFC0
FFF00000FFC0
FFE05550FFC0
FFE1FFF4BFC0
FFE1FFF4BFC0
FFD2FFF8BFC0
FFD2FFF87FC0
FFD2FFF87FC0
FFFFFFFFFFC0
FFFFFFFFFFC0
FFFFFFFFFF80
BFFFFFFFFF40
7FFFFFFFFF00
1FFFFFFFFD00
07FFFFFFF400
006FFFFE4000
ENDCHAR
STARTCHAR Atilde
ENCODING 195
SWIDTH 578 0
DWIDTH 21 0
BBX 21 35 0 0
BITMAP
00005A500000
0007FFFD0000
002FFFFF8000
00BFFFFFE000
01FFFFFFF000
02FFFFFFF400
02FFFFFFF800
02FE5B87F800
02FC100BF800
01F8B95FF400
00BFFFFFE000
00BFFFFFC000
07FFAAAFF400
2FFC0007FD00
7FF86A92FF00
BFF4BFE1FF40
FFF4BFE1FF80
FFF4FFE1FFC0
FFF0FFF1FFC0
FFF0FFF0FFC0
FFF00000FFC0
FFE05550FFC0
FFE1FFF4BFC0
FFE1FFF4BFC0
FFD2FFF8BFC0
FFD2FFF87FC0
FFD2FFF87FC0
FFFFFFFFFFC0
FFFFFFFFFFC0
FFFFFFFFFF80
BFFFFFFFFF40
7FFFFFFFFF00
1FFFFFFFFD00
07FFFFFFF400
006FFFFE4000
ENDCHAR
STARTCHAR Adieresis
ENCODING 196
SWIDTH 578 0
DWIDTH 21 0
BBX 21 33 0 0
BITMAP
000015400000
0006FFF90000
002FFFFF4000
007FFFFFD000
00FFFFFFE000
00FD1F0BF000
00FD1F0BF000
00FEAFAFE000
007FFFFFD000
00BFFFFFC000
07FFFAFFF400
2FFC0007FD00
7FF86A92FF00
BFF4BFE1FF40
FFF4BFE1FF80
FFF4FFE1FFC0
FFF0FFF1FFC0
FFF0FFF0FFC0
FFF00000FFC0
FFE05550FFC0
FFE1FFF4BFC0
FFE1FFF4BFC0
FFD2FFF8BFC0
FFD2FFF87FC0
FFD2FFF87FC0
FFFFFFFFFFC0
FFFFFFFFFFC0
FFFFFFFFFF80
BFFFFFFFFF40
7FFFFFFFFF00
1FFFFFFFFD00
07FFFFFFF400
006FFFFE4000
ENDCHAR
STARTCHAR Aring
ENCODING 197
SWIDTH 578 0
DWIDTH 21 0
BBX 21 35 0 0
BITMAP
000004000000
0001BFE00000
000BFFFD0000
002FFFFF4000
007F807F8000
00BF1A1FD000
00FE3F5FD000
00FE2F5FD000
00FF042FD000
00BFD5BFD000
007FFFFFC000
00BFFFFF8000
07FFAAAFF400
2FFC0007FD00
7FF86A92FF00
BFF4BFE1FF40
FFF4BFE1FF80
FFF4FFE1FFC0
FFF0FFF1FFC0
FFF0FFF0FFC0
FFF00000FFC0
FFE05550FFC0
FFE1FFF4BFC0
FFE1FFF4BFC0
FFD2FFF8BFC0
FFD2FFF87FC0
FFD2FFF87FC0
FFFFFFFFFFC0
FFFFFFFFFFC0
FFFFFFFFFF80
BFFFFFFFFF40
7FFFFFFFFF00
1FFFFFFFFD00
07FFFFFFF400
006FFFFE4000
ENDCHAR
STARTCHAR AE
ENCODING 198
SWIDTH 578 0
DWIDTH 21 0
BBX 21 24 0 0
BITMAP
00AFFFFE4000
07FE9555B400
2FF400007D00
7FE1A0AABF00
BFE2F0FFFF40
FFE2F0FFFF80
FFD2F0FFFFC0
FFD2F0AAFFC0
FFD3F0007FC0
FFC3F055BFC0
FFC3F0FFFFC0
FFC6A0FFFFC0
FF8000FFFFC0
FF8550FFFFC0
FF8BF0007FC0
FF4BF4007FC0
FFFFFFFFFFC0
FFFFFFFFFFC0
FFFFFFFFFF80
BFFFFFFFFF40
7FFFFFFFFF00
1FFFFFFFFD00
07FFFFFFF400
006FFFFE4000
ENDCHAR
STARTCHAR Ccedilla
ENCODING 199
SWIDTH 578 0
DWIDTH 21 0
BBX 21 24 0 0
BITMAP
00AFFFFE4000
07FEAAABF400
2FF00007FD00
7FE1AAABFF00
BFD2FFFFFF40
FFD2FFFFFF80
FFD2FFFFFFC0
FFD2FFFFFFC0
FFD2FFFFFFC0
FFD2FFFFFFC0
FFD2FFFFFFC0
FFD2FFFFFFC0
FFD2FFFFFFC0
FFE2FFFFFFC0
FFE01547FFC0
FFF80007FFC0
FFFFE5FFFFC0
FFFF41FFFFC0
FFFF1BFFFF80
BFFF1FFFFF40
7FFF41FFFF00
1FFFE6FFFD00
07FFFFFFF400
006FFFFE4000
ENDCHAR
STARTCHAR Egrave
ENCODING 200
SWIDTH 578 0
DWIDTH 21 0
BBX 21 34 0 0
BITMAP
001BFE000000
00BFFF800000
00FFFFD00000
01FE1FE00000
00FF4FF00000
00BF8BF40000
003FC7F40000
002FE3F80000
000FF6FC0000
0007FFF80000
00AFFFFE4000
07FEFFEAF400
2FFC0001FD00
7FFC2AAAFF00
BFFC3FFFFF40
FFFC3FFFFF80
FFFC3FFFFFC0
FFFC3FFFFFC0
FFFC0007FFC0
FFFC1557FFC0
FFFC3FFFFFC0
FFFC3FFFFFC0
FFFC3FFFFFC0
FFFC3FFFFFC0
FFFC1555FFC0
FFFC0000FFC0
FFFFFFFFFFC0
FFFFFFFFFFC0
FFFFFFFFFF80
BFFFFFFFFF40
7FFFFFFFFF00
1FFFFFFFFD00
07FFFFFFF400
006FFFFE4000
ENDCHAR
STARTCHAR Eacute
ENCODING 201
SWIDTH 578 0
DWIDTH 21 0
BBX 21 34 0 0
BITMAP
00001BFE0000
00003FFFD000
0000BFFFF000
0000FF0FF000
0001FE2FE000
0001FD3FD000
0002FC7FC000
0003F8FF4000
0007F9FE0000
0003FFFC0000
00AFFFFE4000
07FEFFFAF400
2FFC0001FD00
7FFC2AAAFF00
BFFC3FFFFF40
FFFC3FFFFF80
FFFC3FFFFFC0
FFFC3FFFFFC0
FFFC0007FFC0
FFFC1557FFC0
FFFC3FFFFFC0
FFFC3FFFFFC0
FFFC3FFFFFC0
FFFC3FFFFFC0
FFFC1555FFC0
FFFC0000FFC0
FFFFFFFFFFC0
FFFFFFFFFFC0
FFFFFFFFFF80
BFFFFFFFFF40
7FFFFFFFFF00
1FFFFFFFFD00
07FFFFFFF400
006FFFFE4000
ENDCHAR
STARTCHAR Ecircumflex
ENCODING 202
SWIDTH 578 0
DWIDTH 21 0
BBX 21 35 0 0
BITMAP
00002A900000
0000FFF40000
0002FFFC0000
0003FAFE0000
000BF0BF0000
000FE27F4000
001FD73FC000
002FCB5FD000
003F8F8FE000
007FAFDFE000
003FFFFFE000
00BFFFFFD000
07FEAAABF400
2FFC0001FD00
7FFC2AAAFF00
BFFC3FFFFF40
FFFC3FFFFF80
FFFC3FFFFFC0
FFFC3FFFFFC0
FFFC0007FFC0
FFFC1557FFC0
FFFC3FFFFFC0
FFFC3FFFFFC0
FFFC3FFFFFC0
FFFC3FFFFFC0
FFFC1555FFC0
FFFC0000FFC0
FFFFFFFFFFC0
FFFFFFFFFFC0
FFFFFFFFFF80
BFFFFFFFFF40
7FFFFFFFFF00
1FFFFFFFFD00
07FFFFFFF400
006FFFFE4000
ENDCHAR
STARTCHAR Edieresis
ENCODING 203
SWIDTH 578 0
DWIDTH 21 0
BBX 21 33 0 0
BITMAP
000015400000
0002FFFD0000
001FFFFF8000
003FFFFFE000
007FFFFFF000
00BE0F47F400
00BE0F47F400
007FAFABF000
003FFFFFE000
00BFFFFFC000
07FEAAABF400
2FFC0001FD00
7FFC2AAAFF00
BFFC3FFFFF40
FFFC3FFFFF80
FFFC3FFFFFC0
FFFC3FFFFFC0
FFFC0007FFC0
FFFC1557FFC0
FFFC3FFFFFC0
FFFC3FFFFFC0
FFFC3FFFFFC0
FFFC3FFFFFC0
FFFC1555FFC0
FFFC0000FFC0
FFFFFFFFFFC0
FFFFFFFFFFC0
FFFFFFFFFF80
BFFFFFFFFF40
7FFFFFFFFF00
1FFFFFFFFD00
07FFFFFFF400
006FFFFE4000
ENDCHAR
STARTCHAR Igrave
ENCODING 204
SWIDTH 578 0
DWIDTH 21 0
BBX 21 34 0 0
BITMAP
001BFE000000
007FFFC00000
00FFFFD00000
00FF0FE00000
00FF4BF00000
00BF87F40000
003FD3F80000
001FE3FC0000
000BF6FC0000
0007FFFC0000
00AFFFFE4000
07FAFFEAB400
2FF40000BD00
7FFAA46AFF00
BFFFF4BFFF40
FFFFF4BFFF80
FFFFF4BFFFC0
FFFFF4BFFFC0
FFFFF4BFFFC0
FFFFF4BFFFC0
FFFFF4BFFFC0
FFFFF4BFFFC0
FFFFF4BFFFC0
FFFFF4BFFFC0
FFF55015BFC0
FFF40000BFC0
FFFFFFFFFFC0
FFFFFFFFFFC0
FFFFFFFFFF80
BFFFFFFFFF40
7FFFFFFFFF00
1FFFFFFFFD00
07FFFFFFF400
006FFFFE4000
ENDCHAR
STARTCHAR Iacute
ENCODING 205
SWIDTH 578 0
DWIDTH 21 0
BBX 21 34 0 0
BITMAP
00000BFE4000
00003FFFD000
00007FFFF000
0000BF0FF000
0000FE1FF000
0001FD2FE000
0002FC7FC000
0003FCBF4000
0003F9FE0000
0003FFFD0000
00AFFFFE4000
07FABFFAB400
2FF40000BD00
7FFAA46AFF00
BFFFF4BFFF40
FFFFF4BFFF80
FFFFF4BFFFC0
FFFFF4BFFFC0
FFFFF4BFFFC0
FFFFF4BFFFC0
FFFFF4BFFFC0
FFFFF4BFFFC0
FFFFF4BFFFC0
FFFFF4BFFFC0
FFF55015BFC0
FFF40000BFC0
FFFFFFFFFFC0
FFFFFFFFFFC0
FFFFFFFFFF80
BFFFFFFFFF40
7FFFFFFFFF00
1FFFFFFFFD00
07FFFFFFF400
006FFFFE4000
ENDCHAR
STARTCHAR Icircumflex
ENCODING 206
SWIDTH 578 0
DWIDTH 21 0
BBX 21 35 0 0
BITMAP
00002A900000
0000FFF80000
0002FFFD0000
0003FAFE0000
0007F47F4000
000FF23F8000
001FD72FC000
002FCB5FD000
003F8F8FE000
003FAFDBE000
003FFFFFE000
00BFFFFFD000
07FEAAAAF400
2FF40000BD00
7FFAA46AFF00
BFFFF4BFFF40
FFFFF4BFFF80
FFFFF4BFFFC0
FFFFF4BFFFC0
FFFFF4BFFFC0
FFFFF4BFFFC0
FFFFF4BFFFC0
FFFFF4BFFFC0
FFFFF4BFFFC0
FFFFF4BFFFC0
FFF55015BFC0
FFF40000BFC0
FFFFFFFFFFC0
FFFFFFFFFFC0
FFFFFFFFFF80
BFFFFFFFFF40
7FFFFFFFFF00
1FFFFFFFFD00
07FFFFFFF400
006FFFFE4000
ENDCHAR
STARTCHAR Idieresis
ENCODING 207
SWIDTH 578 0
DWIDTH 21 0
BBX 21 33 0 0
BITMAP
000015400000
0002FFFD0000
000FFFFF8000
002FFFFFE000
007FFFFFF400
00BF0F87F400
00BF0B47F400
007FAFABF400
003FFFFFE000
00BFFFFFD000
07FAAAAAF400
2FF40000BD00
7FFAA46AFF00
BFFFF4BFFF40
FFFFF4BFFF80
FFFFF4BFFFC0
FFFFF4BFFFC0
FFFFF4BFFFC0
FFFFF4BFFFC0
FFFFF4BFFFC0
FFFFF4BFFFC0
FFFFF4BFFFC0
FFFFF4BFFFC0
FFF55015BFC0
FFF40000BFC0
FFFFFFFFFFC0
FFFFFFFFFFC0
FFFFFFFFFF80
BFFFFFFFFF40
7FFFFFFFFF00
1FFFFFFFFD00
07FFFFFFF400
006FFFFE4000
ENDCHAR
STARTCHAR Eth
ENCODING 208
SWIDTH 578 0
DWIDTH 21 0
BBX 21 24 0 0
BITMAP
00AFFFFE4000
07FAAAABF400
2FE00000BD00
7FE1AAA47F00
BFE1FFFC7F40
FFE1FFFC7F80
FFE1FFFC7FC0
FFE1FFFC7FC0
FF803FFC7FC0
FFE1BFFC7FC0
FFE1FFFC7FC0
FFE1FFFC7FC0
FFE1FFFC7FC0
FFE1FFF87FC0
FFE055407FC0
FFE00001FFC0
FFFFFFFFFFC0
FFFFFFFFFFC0
FFFFFFFFFF80
BFFFFFFFFF40
7FFFFFFFFF00
1FFFFFFFFD00
07FFFFFFF400
006FFFFE4000
ENDCHAR
STARTCHAR Ntilde
ENCODING 209
SWIDTH 578 0
DWIDTH 21 0
BBX 21 35 0 0
BITMAP
00005A400000
000BFFF90000
007FFFFF4000
00FFFFFFD000
02FFFFFFE000
03FFFFFFF000
03FFFFFFF400
03FD5B4BF400
03F8410FF400
02F8F91FF000
01FFFFFFD000
00FFFFFFC000
07FAAAABF400
2FE00001FD00
7FE1AAA4BF00
BFE1FFF4BF40
FFE1FFF8BF80
FFE1FFF8BFC0
FFE1FFF8BFC0
FFE1FFF8BFC0
FFE1FFF8BFC0
FFE1FFF8BFC0
FFE1FFF8BFC0
FFE1FFF8BFC0
FFE1FFF8BFC0
FFE1FFF8BFC0
FFE1FFF8BFC0
FFFFFFFFFFC0
FFFFFFFFFFC0
FFFFFFFFFF80
BFFFFFFFFF40
7FFFFFFFFF00
1FFFFFFFFD00
07FFFFFFF400
006FFFFE4000
ENDCHAR
STARTCHAR Ograve
ENCODING 210
SWIDTH 578 0
DWIDTH 21 0
BBX 21 34 0 0
BITMAP
001BFE000000
00BFFF800000
01FFFFC00000
01FE1FD00000
01FF0FE00000
00BF8BF00000
007FC7F40000
002FD3F80000
000FF7F80000
0007FFF80000
00AFFFFE4000
07FFFFEBF400
2FF40000BD00
7FF0AAA47F00
BFE1FFFC7F40
FFE1FFFC7F80
FFE1FFFC7FC0
FFE1FFFC7FC0
FFE1FFFC7FC0
FFE1FFFC7FC0
FFE1FFFC7FC0
FFE1FFFC7FC0
FFE1FFFC7FC0
FFE1FFF87FC0
FFF01540BFC0
FFF80001FFC0
FFFFFFFFFFC0
FFFFFFFFFFC0
FFFFFFFFFF80
BFFFFFFFFF40
7FFFFFFFFF00
1FFFFFFFFD00
07FFFFFFF400
006FFFFE4000
ENDCHAR
STARTCHAR Oacute
ENCODING 211
SWIDTH 578 0
DWIDTH 21 0
BBX 21 34 0 0
BITMAP
00001BFE0000
00007FFFD000
0000BFFFE000
0000FE1FF000
0001FD2FE000
0002FD3FD000
0003FCBF8000
0003F8FF4000
0007F6FE0000
0003FFFC0000
00AFFFFE4000
07FEFFFBF400
2FF40000BD00
7FF0AAA47F00
BFE1FFFC7F40
FFE1FFFC7F80
FFE1FFFC7FC0
FFE1FFFC7FC0
FFE1FFFC7FC0
FFE1FFFC7FC0
FFE1FFFC7FC0
FFE1FFFC7FC0
FFE1FFFC7FC0
FFE1FFF87FC0
FFF01540BFC0
FFF80001FFC0
FFFFFFFFFFC0
FFFFFFFFFFC0
FFFFFFFFFF80
BFFFFFFFFF40
7FFFFFFFFF00
1FFFFFFFFD00
07FFFFFFF400
006FFFFE4000
ENDCHAR
STARTCHAR Ocircumflex
ENCODING 212
SWIDTH 578 0
DWIDTH 21 0
BBX 21 35 0 0
BITMAP
00006A900000
0001FFF40000
0002FFFC0000
0007FAFE0000
000BF0BF0000
000FE57F4000
002FDA3F8000
003F8F2FC000
007F5F5FD000
007FAFDFE000
007FFFFFD000
00BFFFFFD000
07FFEAAFF400
2FF40000BD00
7FF0AAA47F00
BFE1FFFC7F40
FFE1FFFC7F80
FFE1FFFC7FC0
FFE1FFFC7FC0
FFE1FFFC7FC0
FFE1FFFC7FC0
FFE1FFFC7FC0
FFE1FFFC7FC0
FFE1FFFC7FC0
FFE1FFF87FC0
FFF01540BFC0
FFF80001FFC0
FFFFFFFFFFC0
FFFFFFFFFFC0
FFFFFFFFFF80
BFFFFFFFFF40
7FFFFFFFFF00
1FFFFFFFFD00
07FFFFFFF400
006FFFFE4000
ENDCHAR
STARTCHAR Otilde
ENCODING 213
SWIDTH 578 0
DWIDTH 21 0
BBX 21 35 0 0
BITMAP
00005A500000
0006FFFE0000
002FFFFFC000
007FFFFFE000
00FFFFFFF400
01FFFFFFF800
02FFFFFFFC00
02FE5BC7FC00
01FD1047F800
00FD7D4BF400
00BFFFFFF000
00BFFFFFD000
07FEAAABF400
2FF40000BD00
7FF0AAA47F00
BFE1FFFC7F40
FFE1FFFC7F80
FFE1FFFC7FC0
FFE1FFFC7FC0
FFE1FFFC7FC0
FFE1FFFC7FC0
FFE1FFFC7FC0
FFE1FFFC7FC0
FFE1FFFC7FC0
FFE1FFF87FC0
FFF01540BFC0
FFF80001FFC0
FFFFFFFFFFC0
FFFFFFFFFFC0
FFFFFFFFFF80
BFFFFFFFFF40
7FFFFFFFFF00
1FFFFFFFFD00
07FFFFFFF400
006FFFFE4000
ENDCHAR
STARTCHAR Odieresis
ENCODING 214
SWIDTH 578 0
DWIDTH 21 0
BBX 21 33 0 0
BITMAP
000015400000
0002FFF90000
001FFFFF8000
003FFFFFE000
00BFFFFFF000
00BE0F4BF400
00BE0F47F400
00BFAFABF000
007FFFFFE000
00BFFFFFC000
07FFEAAFF400
2FF40000BD00
7FF0AAA47F00
BFE1FFFC7F40
FFE1FFFC7F80
FFE1FFFC7FC0
FFE1FFFC7FC0
FFE1FFFC7FC0
FFE1FFFC7FC0
FFE1FFFC7FC0
FFE1FFFC7FC0
FFE1FFFC7FC0
FFE1FFF87FC0
FFF01540BFC0
FFF80001FFC0
FFFFFFFFFFC0
FFFFFFFFFFC0
FFFFFFFFFF80
BFFFFFFFFF40
7FFFFFFFFF00
1FFFFFFFFD00
07FFFFFFF400
006FFFFE4000
ENDCHAR
STARTCHAR multiply
ENCODING 215
SWIDTH 578 0
DWIDTH 21 0
BBX 21 24 0 0
BITMAP
00AFFFFE4000
07FFFFFFF400
2FFFFFFFFD00
7FFFFFFFFF00
BFFFFFFFFF40
FFFF6FDFFF80
FFFF0B4BFFC0
FFFFC12FFFC0
FFFFE0BFFFC0
FFFFD02FFFC0
FFFF4B0BFFC0
FFFF6FDBFFC0
FFFFFFFFFFC0
FFFFFFFFFFC0
FFFFFFFFFFC0
FFFFFFFFFFC0
FFFFFFFFFFC0
FFFFFFFFFFC0
FFFFFFFFFF80
BFFFFFFFFF40
7FFFFFFFFF00
1FFFFFFFFD00
07FFFFFFF400
006FFFFE4000
ENDCHAR
STARTCHAR Oslash
ENCODING 216
SWIDTH 578 0
DWIDTH 21 0
BBX 21 24 0 0
BITMAP
00AFFFFE4000
07FE956BF400
2FF40000FD00
7FE1AA90BF00
BFE2FF807F40
FFE2FF487F80
FFE2FE287FC0
FFE2F8787FC0
FFE2F4F87FC0
FFE2E2F87FC0
FFE287F87FC0
FFE24BF87FC0
FFE11FF87FC0
FFE03FF4BFC0
FFE00000BFC0
FFF90006FFC0
FFFFFFFFFFC0
FFFFFFFFFFC0
FFFFFFFFFF80
BFFFFFFFFF40
7FFFFFFFFF00
1FFFFFFFFD00
07FFFFFFF400
006FFFFE4000
ENDCHAR
STARTCHAR Ugrave
ENCODING 217
SWIDTH 578 0
DWIDTH 21 0
BBX 21 34 0 0
BITMAP
001BFE000000
00BFFF800000
00FFFFD00000
01FE1FE00000
00FF4FF00000
00BF8BF40000
003FC7F40000
002FE3F80000
000FF6FC0000
0007FFF80000
00AFFFFE4000
07EBFFFEB400
2FE2FFF87D00
7FE2FFF87F00
BFE2FFF87F40
FFE2FFF87F80
FFE2FFF87FC0
FFE2FFF87FC0
FFE2FFF87FC0
FFE2FFF87FC0
FFE2FFF87FC0
FFE2FFF87FC0
FFE2FFF87FC0
FFE1FFF87FC0
FFF01540BFC0
FFF80001FFC0
FFFFFFFFFFC0
FFFFFFFFFFC0
FFFFFFFFFF80
BFFFFFFFFF40
7FFFFFFFFF00
1FFFFFFFFD00
07FFFFFFF400
006FFFFE4000
ENDCHAR
STARTCHAR Uacute
ENCODING 218
SWIDTH 578 0
DWIDTH 21 0
BBX 21 34 0 0
BITMAP
00001BFE0000
00003FFFD000
0000BFFFF000
0000FF0FF000
0001FE2FE000
0001FD3FD000
0002FC7FC000
0003F8FF4000
0007F9FE0000
0003FFFC0000
00AFFFFE4000
07EAFFFEB400
2FE2FFF87D00
7FE2FFF87F00
BFE2FFF87F40
FFE2FFF87F80
FFE2FFF87FC0
FFE2FFF87FC0
FFE2FFF87FC0
FFE2FFF87FC0
FFE2FFF87FC0
FFE2FFF87FC0
FFE2FFF87FC0
FFE1FFF87FC0
FFF01540BFC0
FFF80001FFC0
FFFFFFFFFFC0
FFFFFFFFFFC0
FFFFFFFFFF80
BFFFFFFFFF40
7FFFFFFFFF00
1FFFFFFFFD00
07FFFFFFF400
006FFFFE4000
ENDCHAR
STARTCHAR Ucircumflex
ENCODING 219
SWIDTH 578 0
DWIDTH 21 0
BBX 21 35 0 0
BITMAP
00002A900000
0000FFF40000
0002FFFC0000
0003FAFE0000
000BF0BF0000
000FE27F4000
001FD73FC000
002FCB5FD000
003F8F8FE000
007FAFDFE000
003FFFFFE000
00BFFFFFD000
07FBFFFEF400
2FE2FFF87D00
7FE2FFF87F00
BFE2FFF87F40
FFE2FFF87F80
FFE2FFF87FC0
FFE2FFF87FC0
FFE2FFF87FC0
FFE2FFF87FC0
FFE2FFF87FC0
FFE2FFF87FC0
FFE2FFF87FC0
FFE1FFF87FC0
FFF01540BFC0
FFF80001FFC0
FFFFFFFFFFC0
FFFFFFFFFFC0
FFFFFFFFFF80
BFFFFFFFFF40
7FFFFFFFFF00
1FFFFFFFFD00
07FFFFFFF400
006FFFFE4000
ENDCHAR
STARTCHAR Udieresis
ENCODING 220
SWIDTH 578 0
DWIDTH 21 0
BBX 21 33 0 0
BITMAP
000015400000
0002FFFD0000
001FFFFF8000
003FFFFFE000
007FFFFFF000
00BE0F47F400
00BE0F47F400
007FAFABF000
003FFFFFE000
00BFFFFFC000
07EBFFFEB400
2FE2FFF87D00
7FE2FFF87F00
BFE2FFF87F40
FFE2FFF87F80
FFE2FFF87FC0
FFE2FFF87FC0
FFE2FFF87FC0
FFE2FFF87FC0
FFE2FFF87FC0
FFE2FFF87FC0
FFE2FFF87FC0
FFE1FFF87FC0
FFF01540BFC0
FFF80001FFC0
FFFFFFFFFFC0
FFFFFFFFFFC0
FFFFFFFFFF80
BFFFFFFFFF40
7FFFFFFFFF00
1FFFFFFFFD00
07FFFFFFF400
006FFFFE4000
ENDCHAR
STARTCHAR Yacute
ENCODING 221
SWIDTH 578 0
DWIDTH 21 0
BBX 21 34 0 0
BITMAP
00001BFE0000
00007FFFD000
0000BFFFE000
0000FE0FF000
0001FE2FE000
0002FD3FD000
0003FCBF8000
0003F8FF4000
0007F5FE0000
0003FFFC0000
00AFFFFE4000
07FAFFFAB400
2FF4BFF0BD00
7FF83FE1FF00
BFFC2FD2FF40
FFFE1F83FF80
FFFF0F4BFFC0
FFFF4B0FFFC0
FFFF821FFFC0
FFFFD02FFFC0
FFFFE07FFFC0
FFFFF0BFFFC0
FFFFF4FFFFC0
FFFFF4FFFFC0
FFFFF4FFFFC0
FFFFF4FFFFC0
FFFFFFFFFFC0
FFFFFFFFFFC0
FFFFFFFFFF80
BFFFFFFFFF40
7FFFFFFFFF00
1FFFFFFFFD00
07FFFFFFF400
006FFFFE4000
ENDCHAR
STARTCHAR Thorn
ENCODING 222
SWIDTH 578 0
DWIDTH 21 0
BBX 21 24 0 0
BITMAP
00AFFFFE4000
07F8BFFFF400
2FF8BFFFFD00
7FF8BFFFFF00
BFF80006FF40
FFF80000FF80
FFF8BFF4BFC0
FFF8BFF4BFC0
FFF8BFF4BFC0
FFF8BFF4BFC0
FFF80000FFC0
FFF80006FFC0
FFF8BFFFFFC0
FFF8BFFFFFC0
FFF8BFFFFFC0
FFF8BFFFFFC0
FFFFFFFFFFC0
FFFFFFFFFFC0
FFFFFFFFFF80
BFFFFFFFFF40
7FFFFFFFFF00
1FFFFFFFFD00
07FFFFFFF400
006FFFFE4000
ENDCHAR
STARTCHAR germandbls
ENCODING 223
SWIDTH 578 0
DWIDTH 21 0
BBX 21 24 0 0
BITMAP
00AFFFFE4000
07FEAAABF400
2FF40002FD00
7FE0AA91FF00
BFE1FFF1FF40
FFE2FFF1FF80
FFE2FFF1FFC0
FFE2FF43FFC0
FFE2FF02FFC0
FFE2FFA4BFC0
FFE2FFF87FC0
FFE2FFF87FC0
FFE2FFF87FC0
FFE2FFF87FC0
FFE2E540BFC0
FFE2E001FFC0
FFFFFFFFFFC0
FFFFFFFFFFC0
FFFFFFFFFF80
BFFFFFFFFF40
7FFFFFFFFF00
1FFFFFFFFD00
07FFFFFFF400
006FFFFE4000
ENDCHAR
STARTCHAR agrave
ENCODING 224
SWIDTH 578 0
DWIDTH 21 0
BBX 21 34 0 0
BITMAP
001BFE000000
00BFFF800000
01FFFFD00000
01FE1FE00000
01FF4FF00000
00BF8BF00000
007FC7F40000
002FE3F80000
000FF6F80000
0007FFF80000
00AFFFFE4000
07FAFFEFF400
2FF40007FD00
7FFAAA92FF00
BFFFFFE2FF40
FFFFFFE2FF80
FFFFFFE2FFC0
FFFFFFE2FFC0
FFFA5552FFC0
FFE00002FFC0
FFD2AA92FFC0
FFD3FFE2FFC0
FFD3FFE2FFC0
FFD2FFE2FFC0
FFD01502FFC0
FFF40002FFC0
FFFFFFFFFFC0
FFFFFFFFFFC0
FFFFFFFFFF80
BFFFFFFFFF40
7FFFFFFFFF00
1FFFFFFFFD00
07FFFFFFF400
006FFFFE4000
ENDCHAR
STARTCHAR aacute
ENCODING 225
SWIDTH 578 0
DWIDTH 21 0
BBX 21 34 0 0
BITMAP
00001BFE0000
00003FFFD000
0000BFFFE000
0000FF0FF000
0001FE2FE000
0002FD3FD000
0002FC7F8000
0003F8FF4000
0007F5FE0000
0003FFFC0000
00AFFFFE4000
07FAFFFFF400
2FF40007FD00
7FFAAA92FF00
BFFFFFE2FF40
FFFFFFE2FF80
FFFFFFE2FFC0
FFFFFFE2FFC0
FFFA5552FFC0
FFE00002FFC0
FFD2AA92FFC0
FFD3FFE2FFC0
FFD3FFE2FFC0
FFD2FFE2FFC0
FFD01502FFC0
FFF40002FFC0
FFFFFFFFFFC0
FFFFFFFFFFC0
FFFFFFFFFF80
BFFFFFFFFF40
7FFFFFFFFF00
1FFFFFFFFD00
07FFFFFFF400
006FFFFE4000
ENDCHAR
STARTCHAR acircumflex
ENCODING 226
SWIDTH 578 0
DWIDTH 21 0
BBX 21 35 0 0
BITMAP
00002A900000
0001FFF40000
0002FFFC0000
0007FAFE0000
000BF0BF0000
000FE27F4000
001FD73F8000
002FCB5FD000
003F8F8FD000
007FAFDFE000
007FFFFFE000
00BFFFFFD000
07FFAABFF400
2FF40007FD00
7FFAAA92FF00
BFFFFFE2FF40
FFFFFFE2FF80
FFFFFFE2FFC0
FFFFFFE2FFC0
FFFA5552FFC0
FFE00002FFC0
FFD2AA92FFC0
FFD3FFE2FFC0
FFD3FFE2FFC0
FFD2FFE2FFC0
FFD01502FFC0
FFF40002FFC0
FFFFFFFFFFC0
FFFFFFFFFFC0
FFFFFFFFFF80
BFFFFFFFFF40
7FFFFFFFFF00
1FFFFFFFFD00
07FFFFFFF400
006FFFFE4000
ENDCHAR
STARTCHAR atilde
ENCODING 227
SWIDTH 578 0
DWIDTH 21 0
BBX 21 35 0 0
BITMAP
00001A500000
0006FFFE0000
001FFFFFC000
007FFFFFF000
00FFFFFFF400
01FFFFFFF800
01FFFFFFFC00
01FE5BD3FC00
01FD1047FC00
00FD7D4BF800
007FFFFFF000
00BFFFFFD000
07FAAAAFF400
2FF40007FD00
7FFAAA92FF00
BFFFFFE2FF40
FFFFFFE2FF80
FFFFFFE2FFC0
FFFFFFE2FFC0
FFFA5552FFC0
FFE00002FFC0
FFD2AA92FFC0
FFD3FFE2FFC0
FFD3FFE2FFC0
FFD2FFE2FFC0
FFD01502FFC0
FFF40002FFC0
FFFFFFFFFFC0
FFFFFFFFFFC0
FFFFFFFFFF80
BFFFFFFFFF40
7FFFFFFFFF00
1FFFFFFFFD00
07FFFFFFF400
006FFFFE4000
ENDCHAR
STARTCHAR adieresis
ENCODING 228
SWIDTH 578 0
DWIDTH 21 0
BBX 21 33 0 0
BITMAP
000015400000
0002FFF90000
001FFFFF8000
003FFFFFE000
00BFFFFFF000
00BE0F47F400
00BE0F47F400
00BFAFABF000
003FFFFFE000
00BFFFFFC000
07FFAABFF400
2FF40007FD00
7FFAAA92FF00
BFFFFFE2FF40
FFFFFFE2FF80
FFFFFFE2FFC0
FFFFFFE2FFC0
FFFA5552FFC0
FFE00002FFC0
FFD2AA92FFC0
FFD3FFE2FFC0
FFD3FFE2FFC0
FFD2FFE2FFC0
FFD01502FFC0
FFF40002FFC0
FFFFFFFFFFC0
FFFFFFFFFFC0
FFFFFFFFFF80
BFFFFFFFFF40
7FFFFFFFFF00
1FFFFFFFFD00
07FFFFFFF400
006FFFFE4000
ENDCHAR
STARTCHAR aring
ENCODING 229
SWIDTH 578 0
DWIDTH 21 0
BBX 21 34 0 0
BITMAP
0001BFE40000
0007FFFE0000
001FFFFF8000
003FD06FC000
007F5A4FD000
00BF2F8FE000
00BF2F8FE000
00BF451FE000
007FE5BFE000
003FFFFFC000
00BFFFFFC000
07FAAAAFF400
2FF40007FD00
7FFAAA92FF00
BFFFFFE2FF40
FFFFFFE2FF80
FFFFFFE2FFC0
FFFFFFE2FFC0
FFFA5552FFC0
FFE00002FFC0
FFD2AA92FFC0
FFD3FFE2FFC0
FFD3FFE2FFC0
FFD2FFE2FFC0
FFD01502FFC0
FFF40002FFC0
FFFFFFFFFFC0
FFFFFFFFFFC0
FFFFFFFFFF80
BFFFFFFFFF40
7FFFFFFFFF00
1FFFFFFFFD00
07FFFFFFF400
006FFFFE4000
ENDCHAR
STARTCHAR ae
ENCODING 230
SWIDTH 578 0
DWIDTH 21 0
BBX 21 24 0 0
BITMAP
00AFFFFE4000
07FE9555B400
2FF400007D00
7FE1A0AABF00
BFE2F0FFFF40
FFE2F0FFFF80
FFD2F0FFFFC0
FFD2F0AAFFC0
FFD3F0007FC0
FFC3F055BFC0
FFC3F0FFFFC0
FFC6A0FFFFC0
FF8000FFFFC0
FF8550FFFFC0
FF8BF0007FC0
FF4BF4007FC0
FFFFFFFFFFC0
FFFFFFFFFFC0
FFFFFFFFFF80
BFFFFFFFFF40
7FFFFFFFFF00
1FFFFFFFFD00
07FFFFFFF400
006FFFFE4000
ENDCHAR
STARTCHAR ccedilla
ENCODING 231
SWIDTH 578 0
DWIDTH 21 0
BBX 21 24 0 0
BITMAP
00AFFFFE4000
07FEAAABF400
2FF00007FD00
7FE1AAABFF00
BFD2FFFFFF40
FFD2FFFFFF80
FFD2FFFFFFC0
FFD2FFFFFFC0
FFD2FFFFFFC0
FFD2FFFFFFC0
FFD2FFFFFFC0
FFD2FFFFFFC0
FFD2FFFFFFC0
FFE2FFFFFFC0
FFE01547FFC0
FFF80007FFC0
FFFFE5FFFFC0
FFFF41FFFFC0
FFFF1BFFFF80
BFFF1FFFFF40
7FFF41FFFF00
1FFFE6FFFD00
07FFFFFFF400
006FFFFE4000
ENDCHAR
STARTCHAR egrave
ENCODING 232
SWIDTH 578 0
DWIDTH 21 0
BBX 21 35 0 0
BITMAP
001BFE000000
00BFFF800000
01FFFFC00000
01FE1FD00000
01FF0FE00000
00FF8BF00000
007FC7F40000
002FD3F80000
000FF7F80000
000BFFF80000
0003FFF00000
00AFFFFE4000
07FEAAAFF400
2FF00007FD00
7FD1AA92FF00
BFD2FFE2FF40
FFD2FFE2FF80
FFD2FFD2FFC0
FFD00002FFC0
FFD15556FFC0
FFD2FFFFFFC0
FFD2FFFFFFC0
FFD2FFFFFFC0
FFD2FFFFFFC0
FFD1AA9BFFC0
FFF00007FFC0
FFFEAAABFFC0
FFFFFFFFFFC0
FFFFFFFFFFC0
FFFFFFFFFF80
BFFFFFFFFF40
7FFFFFFFFF00
1FFFFFFFFD00
07FFFFFFF400
006FFFFE4000
ENDCHAR
STARTCHAR eacute
ENCODING 233
SWIDTH 578 0
DWIDTH 21 0
BBX 21 35 0 0
BITMAP
00002FF90000
0000BFFF8000
0000FFFFD000
0001FD2FD000
0002FC3FD000
0003F87FC000
0007F4FF4000
000BF5FE0000
000BF7FD0000
000BFFF80000
0003FFF00000
00AFFFFE4000
07FEAAAFF400
2FF00007FD00
7FD1AA92FF00
BFD2FFE2FF40
FFD2FFE2FF80
FFD2FFD2FFC0
FFD00002FFC0
FFD15556FFC0
FFD2FFFFFFC0
FFD2FFFFFFC0
FFD2FFFFFFC0
FFD2FFFFFFC0
FFD1AA9BFFC0
FFF00007FFC0
FFFEAAABFFC0
FFFFFFFFFFC0
FFFFFFFFFFC0
FFFFFFFFFF80
BFFFFFFFFF40
7FFFFFFFFF00
1FFFFFFFFD00
07FFFFFFF400
006FFFFE4000
ENDCHAR
STARTCHAR ecircumflex
ENCODING 234
SWIDTH 578 0
DWIDTH 21 0
BBX 21 35 0 0
BITMAP
00006A400000
0002FFE00000
0007FFF40000
000FEBF80000
001FD1FD0000
002FC8FE0000
007F9CBF0000
00BF2D7F4000
00FE3E3F8000
00FEBF6FC000
00FFFFFF8000
00FFFFFF8000
07FFAABFF400
2FF00007FD00
7FD1AA92FF00
BFD2FFE2FF40
FFD2FFE2FF80
FFD2FFD2FFC0
FFD00002FFC0
FFD15556FFC0
FFD2FFFFFFC0
FFD2FFFFFFC0
FFD2FFFFFFC0
FFD2FFFFFFC0
FFD1AA9BFFC0
FFF00007FFC0
FFFEAAABFFC0
FFFFFFFFFFC0
FFFFFFFFFFC0
FFFFFFFFFF80
BFFFFFFFFF40
7FFFFFFFFF00
1FFFFFFFFD00
07FFFFFFF400
006FFFFE4000
ENDCHAR
STARTCHAR edieresis
ENCODING 235
SWIDTH 578 0
DWIDTH 21 0
BBX 21 33 0 0
BITMAP
000055000000
000BFFF40000
007FFFFE0000
00FFFFFF8000
01FFFFFFC000
02F83D1FD000
02F83D1FD000
01FEBEAFC000
00FFFFFF8000
00FFFFFF8000
07FFAABFF400
2FF00007FD00
7FD1AA92FF00
BFD2FFE2FF40
FFD2FFE2FF80
FFD2FFD2FFC0
FFD00002FFC0
FFD15556FFC0
FFD2FFFFFFC0
FFD2FFFFFFC0
FFD2FFFFFFC0
FFD2FFFFFFC0
FFD1AA9BFFC0
FFF00007FFC0
FFFEAAABFFC0
FFFFFFFFFFC0
FFFFFFFFFFC0
FFFFFFFFFF80
BFFFFFFFFF40
7FFFFFFFFF00
1FFFFFFFFD00
07FFFFFFF400
006FFFFE4000
ENDCHAR
STARTCHAR igrave
ENCODING 236
SWIDTH 578 0
DWIDTH 21 0
BBX 21 34 0 0
BITMAP
001BFE000000
007FFF800000
00FFFFD00000
01FE0FE00000
00FF4FF00000
00BF8BF40000
003FD7F80000
002FE3F80000
000FF6FC0000
0007FFF80000
00AFFFFE4000
07FAFFEAB400
2FF40000BD00
7FFAA46AFF00
BFFFF4BFFF40
FFFFF4BFFF80
FFFFF4BFFFC0
FFFFF4BFFFC0
FFFFF4BFFFC0
FFFFF4BFFFC0
FFFFF4BFFFC0
FFFFF4BFFFC0
FFFFF4BFFFC0
FFFFF4BFFFC0
FFF55015BFC0
FFF40000BFC0
FFFFFFFFFFC0
FFFFFFFFFFC0
FFFFFFFFFF80
BFFFFFFFFF40
7FFFFFFFFF00
1FFFFFFFFD00
07FFFFFFF400
006FFFFE4000
ENDCHAR
STARTCHAR iacute
ENCODING 237
SWIDTH 578 0
DWIDTH 21 0
BBX 21 34 0 0
BITMAP
00001BFE0000
00003FFFD000
0000BFFFF000
0000FF0FF000
0000FE1FF000
0001FD3FD000
0002FC7FC000
0003F8FF4000
0003F9FE0000
0003FFFC0000
00AFFFFE4000
07FABFFAB400
2FF40000BD00
7FFAA46AFF00
BFFFF4BFFF40
FFFFF4BFFF80
FFFFF4BFFFC0
FFFFF4BFFFC0
FFFFF4BFFFC0
FFFFF4BFFFC0
FFFFF4BFFFC0
FFFFF4BFFFC0
FFFFF4BFFFC0
FFFFF4BFFFC0
FFF55015BFC0
FFF40000BFC0
FFFFFFFFFFC0
FFFFFFFFFFC0
FFFFFFFFFF80
BFFFFFFFFF40
7FFFFFFFFF00
1FFFFFFFFD00
07FFFFFFF400
006FFFFE4000
ENDCHAR
STARTCHAR icircumflex
ENCODING 238
SWIDTH 578 0
DWIDTH 21 0
BBX 21 35 0 0
BITMAP
00002A900000
0000FFF80000
0002FFFD0000
0003FAFE0000
000BF0BF0000
000FE27F8000
001FD72FC000
002FCB5FD000
003F8F8FE000
007FAFDFE000
003FFFFFE000
00BFFFFFD000
07FEAAAAF400
2FF40000BD00
7FFAA46AFF00
BFFFF4BFFF40
FFFFF4BFFF80
FFFFF4BFFFC0
FFFFF4BFFFC0
FFFFF4BFFFC0
FFFFF4BFFFC0
FFFFF4BFFFC0
FFFFF4BFFFC0
FFFFF4BFFFC0
FFFFF4BFFFC0
FFF55015BFC0
FFF40000BFC0
FFFFFFFFFFC0
FFFFFFFFFFC0
FFFFFFFFFF80
BFFFFFFFFF40
7FFFFFFFFF00
1FFFFFFFFD00
07FFFFFFF400
006FFFFE4000
ENDCHAR
STARTCHAR idieresis
ENCODING 239
SWIDTH 578 0
DWIDTH 21 0
BBX 21 33 0 0
BITMAP
000015400000
0002FFFD0000
001FFFFF8000
003FFFFFE000
007FFFFFF000
00BE0F47F400
00BE0F47F400
007FAFABF000
003FFFFFE000
00BFFFFFC000
07FAAAAAB400
2FF40000BD00
7FFAA46AFF00
BFFFF4BFFF40
FFFFF4BFFF80
FFFFF4BFFFC0
FFFFF4BFFFC0
FFFFF4BFFFC0
FFFFF4BFFFC0
FFFFF4BFFFC0
FFFFF4BFFFC0
FFFFF4BFFFC0
FFFFF4BFFFC0
FFF55015BFC0
FFF40000BFC0
FFFFFFFFFFC0
FFFFFFFFFFC0
FFFFFFFFFF80
BFFFFFFFFF40
7FFFFFFFFF00
1FFFFFFFFD00
07FFFFFFF400
006FFFFE4000
ENDCHAR
STARTCHAR eth
ENCODING 240
SWIDTH 578 0
DWIDTH 21 0
BBX 21 24 0 0
BITMAP
00AFFFFE4000
07FAAAABF400
2FE00000BD00
7FE1AAA47F00
BFE1FFFC7F40
FFE1FFFC7F80
FFE1FFFC7FC0
FFE1FFFC7FC0
FF803FFC7FC0
FFE1BFFC7FC0
FFE1FFFC7FC0
FFE1FFFC7FC0
FFE1FFFC7FC0
FFE1FFF87FC0
FFE055407FC0
FFE00001FFC0
FFFFFFFFFFC0
FFFFFFFFFFC0
FFFFFFFFFF80
BFFFFFFFFF40
7FFFFFFFFF00
1FFFFFFFFD00
07FFFFFFF400
006FFFFE4000
ENDCHAR
STARTCHAR ntilde
ENCODING 241
SWIDTH 578 0
DWIDTH 21 0
BBX 21 35 0 0
BITMAP
00005A400000
000BFFF90000
007FFFFF4000
00FFFFFFD000
02FFFFFFE000
03FFFFFFF000
07FFFFFFF400
07FD5B4BF400
03F8410FF000
02F4F91FE000
01FFFFFFD000
00FFFFFFC000
07FAAAABF400
2FE00001FD00
7FE1AAA4BF00
BFE1FFF4BF40
FFE1FFF8BF80
FFE1FFF8BFC0
FFE1FFF8BFC0
FFE1FFF8BFC0
FFE1FFF8BFC0
FFE1FFF8BFC0
FFE1FFF8BFC0
FFE1FFF8BFC0
FFE1FFF8BFC0
FFE1FFF8BFC0
FFE1FFF8BFC0
FFFFFFFFFFC0
FFFFFFFFFFC0
FFFFFFFFFF80
BFFFFFFFFF40
7FFFFFFFFF00
1FFFFFFFFD00
07FFFFFFF400
006FFFFE4000
ENDCHAR
STARTCHAR oacute
ENCODING 243
SWIDTH 578 0
DWIDTH 21 0
BBX 21 34 0 0
BITMAP
00001FF90000
0000BFFF8000
0000FFFFD000
0001FD2FE000
0002FC3FD000
0003FC7FC000
0007F8FF4000
0007F5FE0000
000BF6FD0000
0007FFF80000
00AFFFFE4000
07FEFFEBF400
2FF40000BD00
7FF0AAA47F00
BFE1FFFC7F40
FFE1FFFC7F80
FFE1FFFC7FC0
FFE1FFFC7FC0
FFE1FFFC7FC0
FFE1FFFC7FC0
FFE1FFFC7FC0
FFE1FFFC7FC0
FFE1FFFC7FC0
FFE1FFF87FC0
FFF01540BFC0
FFF80001FFC0
FFFFFFFFFFC0
FFFFFFFFFFC0
FFFFFFFFFF80
BFFFFFFFFF40
7FFFFFFFFF00
1FFFFFFFFD00
07FFFFFFF400
006FFFFE4000
ENDCHAR
STARTCHAR ocircumflex
ENCODING 244
SWIDTH 578 0
DWIDTH 21 0
BBX 21 35 0 0
BITMAP
00002A900000
0000FFF40000
0002FFFC0000
0007FAFE0000
000BF0BF0000
000FE27F4000
001FD73FC000
002FCB5FD000
003F8F8FD000
007FAFDFE000
007FFFFFE000
00BFFFFFD000
07FFEAAFF400
2FF40000BD00
7FF0AAA47F00
BFE1FFFC7F40
FFE1FFFC7F80
FFE1FFFC7FC0
FFE1FFFC7FC0
FFE1FFFC7FC0
FFE1FFFC7FC0
FFE1FFFC7FC0
FFE1FFFC7FC0
FFE1FFFC7FC0
FFE1FFF87FC0
FFF01540BFC0
FFF80001FFC0
FFFFFFFFFFC0
FFFFFFFFFFC0
FFFFFFFFFF80
BFFFFFFFFF40
7FFFFFFFFF00
1FFFFFFFFD00
07FFFFFFF400
006FFFFE4000
ENDCHAR
STARTCHAR otilde
ENCODING 245
SWIDTH 578 0
DWIDTH 21 0
BBX 21 35 0 0
BITMAP
00005A500000
0007FFFD0000
002FFFFF8000
00BFFFFFE000
00FFFFFFF400
01FFFFFFF800
02FFFFFFF800
02FE5BC7F800
02FC1047F800
01FCB95BF400
00BFFFFFE000
00BFFFFFD000
07FEAAABF400
2FF40000BD00
7FF0AAA47F00
BFE1FFFC7F40
FFE1FFFC7F80
FFE1FFFC7FC0
FFE1FFFC7FC0
FFE1FFFC7FC0
FFE1FFFC7FC0
FFE1FFFC7FC0
FFE1FFFC7FC0
FFE1FFFC7FC0
FFE1FFF87FC0
FFF01540BFC0
FFF80001FFC0
FFFFFFFFFFC0
FFFFFFFFFFC0
FFFFFFFFFF80
BFFFFFFFFF40
7FFFFFFFFF00
1FFFFFFFFD00
07FFFFFFF400
006FFFFE4000
ENDCHAR
STARTCHAR odieresis
ENCODING 246
SWIDTH 578 0
DWIDTH 21 0
BBX 21 33 0 0
BITMAP
000015400000
0002FFFD0000
001FFFFF8000
003FFFFFE000
007FFFFFF000
00BE0F47F400
00BE0F47F400
007FAFABF000
003FFFFFE000
00BFFFFFC000
07FFEAAFF400
2FF40000BD00
7FF0AAA47F00
BFE1FFFC7F40
FFE1FFFC7F80
FFE1FFFC7FC0
FFE1FFFC7FC0
FFE1FFFC7FC0
FFE1FFFC7FC0
FFE1FFFC7FC0
FFE1FFFC7FC0
FFE1FFFC7FC0
FFE1FFF87FC0
FFF01540BFC0
FFF80001FFC0
FFFFFFFFFFC0
FFFFFFFFFFC0
FFFFFFFFFF80
BFFFFFFFFF40
7FFFFFFFFF00
1FFFFFFFFD00
07FFFFFFF400
006FFFFE4000
ENDCHAR
STARTCHAR divide
ENCODING 247
SWIDTH 428 0
DWIDTH 15 0
BBX 16 24 0 0
BITMAP
00AFF900
07FFFF80
2FFFFFF0
7FF83FF8
BFF83FFC
FFFEBFFD
FF4003FD
FF4003FD
FFFEBFFD
FFF83FFD
FFF83FFD
FFFFFFFD
FFFFFFFD
FFFFFFFD
FFFFFFFD
FFFFFFFD
FFFFFFFD
FFFFFFFD
FFFFFFFD
BFFFFFFC
7FFFFFF8
1FFFFFE0
07FFFF80
006FE900
ENDCHAR
STARTCHAR oslash
ENCODING 248
SWIDTH 578 0
DWIDTH 21 0
BBX 21 24 0 0
BITMAP
00AFFFFE4000
07FE956BF400
2FF40000FD00
7FE1AA90BF00
BFE2FF807F40
FFE2FF487F80
FFE2FE287FC0
FFE2F8787FC0
FFE2F4F87FC0
FFE2E2F87FC0
FFE287F87FC0
FFE24BF87FC0
FFE11FF87FC0
FFE03FF4BFC0
FFE00000BFC0
FFF90006FFC0
FFFFFFFFFFC0
FFFFFFFFFFC0
FFFFFFFFFF80
BFFFFFFFFF40
7FFFFFFFFF00
1FFFFFFFFD00
07FFFFFFF400
006FFFFE4000
ENDCHAR
STARTCHAR ugrave
ENCODING 249
SWIDTH 578 0
DWIDTH 21 0
BBX 21 34 0 0
BITMAP
001BFE000000
007FFF800000
00FFFFD00000
01FE0FE00000
00FF4FF00000
00BF8BF40000
003FD7F80000
002FE3F80000
000FF6FC0000
0007FFF80000
00AFFFFE4000
07EBFFFEB400
2FE2FFF87D00
7FE2FFF87F00
BFE2FFF87F40
FFE2FFF87F80
FFE2FFF87FC0
FFE2FFF87FC0
FFE2FFF87FC0
FFE2FFF87FC0
FFE2FFF87FC0
FFE2FFF87FC0
FFE2FFF87FC0
FFE1FFF87FC0
FFF01540BFC0
FFF80001FFC0
FFFFFFFFFFC0
FFFFFFFFFFC0
FFFFFFFFFF80
BFFFFFFFFF40
7FFFFFFFFF00
1FFFFFFFFD00
07FFFFFFF400
006FFFFE4000
ENDCHAR
STARTCHAR uacute
ENCODING 250
SWIDTH 578 0
DWIDTH 21 0
BBX 21 34 0 0
BITMAP
00001BFE0000
00003FFFD000
0000BFFFF000
0000FF0FF000
0000FE1FF000
0001FD3FD000
0002FC7FC000
0003F8FF4000
0003F9FE0000
0003FFFC0000
00AFFFFE4000
07EAFFFEB400
2FE2FFF87D00
7FE2FFF87F00
BFE2FFF87F40
FFE2FFF87F80
FFE2FFF87FC0
FFE2FFF87FC0
FFE2FFF87FC0
FFE2FFF87FC0
FFE2FFF87FC0
FFE2FFF87FC0
FFE2FFF87FC0
FFE1FFF87FC0
FFF01540BFC0
FFF80001FFC0
FFFFFFFFFFC0
FFFFFFFFFFC0
FFFFFFFFFF80
BFFFFFFFFF40
7FFFFFFFFF00
1FFFFFFFFD00
07FFFFFFF400
006FFFFE4000
ENDCHAR
STARTCHAR ucircumflex
ENCODING 251
SWIDTH 578 0
DWIDTH 21 0
BBX 21 35 0 0
BITMAP
00002A900000
0000FFF80000
0002FFFD0000
0003FAFE0000
000BF0BF0000
000FE27F8000
001FD72FC000
002FCB5FD000
003F8F8FE000
007FAFDFE000
003FFFFFE000
00BFFFFFD000
07FBFFFEF400
2FE2FFF87D00
7FE2FFF87F00
BFE2FFF87F40
FFE2FFF87F80
FFE2FFF87FC0
FFE2FFF87FC0
FFE2FFF87FC0
FFE2FFF87FC0
FFE2FFF87FC0
FFE2FFF87FC0
FFE2FFF87FC0
FFE1FFF87FC0
FFF01540BFC0
FFF80001FFC0
FFFFFFFFFFC0
FFFFFFFFFFC0
FFFFFFFFFF80
BFFFFFFFFF40
7FFFFFFFFF00
1FFFFFFFFD00
07FFFFFFF400
006FFFFE4000
ENDCHAR
STARTCHAR udieresis
ENCODING 252
SWIDTH 578 0
DWIDTH 21 0
BBX 21 33 0 0
BITMAP
000015400000
0002FFFD0000
001FFFFF8000
003FFFFFE000
007FFFFFF000
00BE0F47F400
00BE0F47F400
007FAFABF000
003FFFFFE000
00BFFFFFC000
07EBFFFEB400
2FE2FFF87D00
7FE2FFF87F00
BFE2FFF87F40
FFE2FFF87F80
FFE2FFF87FC0
FFE2FFF87FC0
FFE2FFF87FC0
FFE2FFF87FC0
FFE2FFF87FC0
FFE2FFF87FC0
FFE2FFF87FC0
FFE1FFF87FC0
FFF01540BFC0
FFF80001FFC0
FFFFFFFFFFC0
FFFFFFFFFFC0
FFFFFFFFFF80
BFFFFFFFFF40
7FFFFFFFFF00
1FFFFFFFFD00
07FFFFFFF400
006FFFFE4000
ENDCHAR
STARTCHAR yacute
ENCODING 253
SWIDTH 578 0
DWIDTH 21 0
BBX 21 34 0 0
BITMAP
00001BFE0000
00007FFFD000
0000BFFFE000
0000FE0FF000
0001FE2FE000
0002FD3FD000
0003FCBF8000
0003F8FF4000
0007F5FE0000
0003FFFC0000
00AFFFFE4000
07FAFFFAB400
2FF4BFF0BD00
7FF83FE1FF00
BFFC2FD2FF40
FFFE1F83FF80
FFFF0F4BFFC0
FFFF4B0FFFC0
FFFF821FFFC0
FFFFD02FFFC0
FFFFE07FFFC0
FFFFF0BFFFC0
FFFFF4FFFFC0
FFFFF4FFFFC0
FFFFF4FFFFC0
FFFFF4FFFFC0
FFFFFFFFFFC0
FFFFFFFFFFC0
FFFFFFFFFF80
BFFFFFFFFF40
7FFFFFFFFF00
1FFFFFFFFD00
07FFFFFFF400
006FFFFE4000
ENDCHAR
STARTCHAR thorn
ENCODING 254
SWIDTH 578 0
DWIDTH 21 0
BBX 21 24 0 0
BITMAP
00AFFFFE4000
07F8BFFFF400
2FF8BFFFFD00
7FF8BFFFFF00
BFF80006FF40
FFF80000FF80
FFF8BFF4BFC0
FFF8BFF4BFC0
FFF8BFF4BFC0
FFF8BFF4BFC0
FFF80000FFC0
FFF80006FFC0
FFF8BFFFFFC0
FFF8BFFFFFC0
FFF8BFFFFFC0
FFF8BFFFFFC0
FFFFFFFFFFC0
FFFFFFFFFFC0
FFFFFFFFFF80
BFFFFFFFFF40
7FFFFFFFFF00
1FFFFFFFFD00
07FFFFFFF400
006FFFFE4000
ENDCHAR
STARTCHAR ydieresis
ENCODING 255
SWIDTH 578 0
DWIDTH 21 0
BBX 21 33 0 0
BITMAP
000015400000
0002FFF90000
001FFFFF8000
003FFFFFE000
00BFFFFFF000
00BE0F4BF400
00BE0F47F400
00BFAFABF000
003FFFFFE000
00BFFFFFC000
07FAFFFEB400
2FF4BFF0BD00
7FF83FE1FF00
BFFC2FD2FF40
FFFE1F83FF80
FFFF0F4BFFC0
FFFF4B0FFFC0
FFFF821FFFC0
FFFFD02FFFC0
FFFFE07FFFC0
FFFFF0BFFFC0
FFFFF4FFFFC0
FFFFF4FFFFC0
FFFFF4FFFFC0
FFFFF4FFFFC0
FFFFFFFFFFC0
FFFFFFFFFFC0
FFFFFFFFFF80
BFFFFFFFFF40
7FFFFFFFFF00
1FFFFFFFFD00
07FFFFFFF400
006FFFFE4000
ENDCHAR
STARTCHAR Amacron
ENCODING 256
SWIDTH 578 0
DWIDTH 21 0
BBX 21 33 0 0
BITMAP
000055500000
000BFFFD0000
007FFFFFC000
00FFFFFFF000
02FFFFFFF400
02FE555FF800
02FD000FF800
02FEAAAFF800
01FFFFFFF000
00FFFFFFD000
07FFFFFFF400
2FFC0007FD00
7FF86A92FF00
BFF4BFE1FF40
FFF4BFE1FF80
FFF4FFE1FFC0
FFF0FFF1FFC0
FFF0FFF0FFC0
FFF00000FFC0
FFE05550FFC0
FFE1FFF4BFC0
FFE1FFF4BFC0
FFD2FFF8BFC0
FFD2FFF87FC0
FFD2FFF87FC0
FFFFFFFFFFC0
FFFFFFFFFFC0
FFFFFFFFFF80
BFFFFFFFFF40
7FFFFFFFFF00
1FFFFFFFFD00
07FFFFFFF400
006FFFFE4000
ENDCHAR
STARTCHAR amacron
ENCODING 257
SWIDTH 578 0
DWIDTH 21 0
BBX 21 33 0 0
BITMAP
000015500000
0007FFFE0000
002FFFFFD000
00BFFFFFF400
01FFFFFFF800
01FF555BFC00
01FE000BFC00
01FFAAAFFC00
00FFFFFFF400
00BFFFFFE000
07FFFFFFF400
2FF40007FD00
7FFAAA92FF00
BFFFFFE2FF40
FFFFFFE2FF80
FFFFFFE2FFC0
FFFFFFE2FFC0
FFFA5552FFC0
FFE00002FFC0
FFD2AA92FFC0
FFD3FFE2FFC0
FFD3FFE2FFC0
FFD2FFE2FFC0
FFD01502FFC0
FFF40002FFC0
FFFFFFFFFFC0
FFFFFFFFFFC0
FFFFFFFFFF80
BFFFFFFFFF40
7FFFFFFFFF00
1FFFFFFFFD00
07FFFFFFF400
006FFFFE4000
ENDCHAR
STARTCHAR Abreve
ENCODING 258
SWIDTH 578 0
DWIDTH 21 0
BBX 21 34 0 0
BITMAP
000055500000
000BFFFD0000
007FFFFFC000
00FFFFFFF000
02FFFFFFF400
02FFBFEFF800
02FE2F8FF800
02FF000FF800
01FFD57FF000
00BFFFFFD000
00BFFFFF8000
07FFAAAFF400
2FFC0007FD00
7FF86A92FF00
BFF4BFE1FF40
FFF4BFE1FF80
FFF4FFE1FFC0
FFF0FFF1FFC0
FFF0FFF0FFC0
FFF00000FFC0
FFE05550FFC0
FFE1FFF4BFC0
FFE1FFF4BFC0
FFD2FFF8BFC0
FFD2FFF87FC0
FFD2FFF87FC0
FFFFFFFFFFC0
FFFFFFFFFFC0
FFFFFFFFFF80
BFFFFFFFFF40
7FFFFFFFFF00
1FFFFFFFFD00
07FFFFFFF400
006FFFFE4000
ENDCHAR
STARTCHAR abreve
ENCODING 259
SWIDTH 578 0
DWIDTH 21 0
BBX 21 34 0 0
BITMAP
000015500000
0007FFFE0000
002FFFFFD000
00BFFFFFF400
01FFFFFFF800
01FFBFEFFC00
01FF1F8BFC00
01FF400BFC00
00FFD56FF400
007FFFFFE000
00BFFFFFC000
07FAAAAFF400
2FF40007FD00
7FFAAA92FF00
BFFFFFE2FF40
FFFFFFE2FF80
FFFFFFE2FFC0
FFFFFFE2FFC0
FFFA5552FFC0
FFE00002FFC0
FFD2AA92FFC0
FFD3FFE2FFC0
FFD3FFE2FFC0
FFD2FFE2FFC0
FFD01502FFC0
FFF40002FFC0
FFFFFFFFFFC0
FFFFFFFFFFC0
FFFFFFFFFF80
BFFFFFFFFF40
7FFFFFFFFF00
1FFFFFFFFD00
07FFFFFFF400
006FFFFE4000
ENDCHAR
STARTCHAR Aogonek
ENCODING 260
SWIDTH 578 0
DWIDTH 21 0
BBX 21 24 0 0
BITMAP
00AFFFFE4000
07FFAAAFF400
2FFC0007FD00
7FF86A92FF00
BFF4BFE1FF40
FFF4BFE1FF80
FFF4FFE1FFC0
FFF0FFF1FFC0
FFF0FFF0FFC0
FFF00000FFC0
FFE05550FFC0
FFE1FFF4BFC0
FFE1FFF4BFC0
FFD2FFF8BFC0
FFD2FFF87FC0
FFD2FFF87FC0
FFFFFFF4BFC0
FFFFFFD2FFC0
FFFFFFC7FF80
BFFFFFC7FF40
7FFFFFD07F00
1FFFFFF5BD00
07FFFFFFF400
006FFFFE4000
ENDCHAR
STARTCHAR aogonek
ENCODING 261
SWIDTH 578 0
DWIDTH 21 0
BBX 21 24 0 0
BITMAP
00AFFFFE4000
07FAAAAFF400
2FF40007FD00
7FFAAA92FF00
BFFFFFE2FF40
FFFFFFE2FF80
FFFFFFE2FFC0
FFFFFFE2FFC0
FFFA5552FFC0
FFE00002FFC0
FFD2AA92FFC0
FFD3FFE2FFC0
FFD3FFE2FFC0
FFD2FFE2FFC0
FFD01502FFC0
FFF40002FFC0
FFFFF4FFFFC0
FFFFC3FFFFC0
FFFF8BFFFF80
BFFF8BFFFF40
7FFFC0BFFF00
1FFFE5BFFD00
07FFFFFFF400
006FFFFE4000
ENDCHAR
STARTCHAR Cacute
ENCODING 262
SWIDTH 578 0
DWIDTH 21 0
BBX 21 34 0 0
BITMAP
00000BFE4000
00003FFFD000
00007FFFF000
0000BF0FF000
0000FE1FF000
0001FD2FE000
0002FC7FC000
0003FCBF4000
0003F9FE0000
0003FFFD0000
00AFFFFE4000
07FEBFFBF400
2FF00007FD00
7FE1AAABFF00
BFD2FFFFFF40
FFD2FFFFFF80
FFD2FFFFFFC0
FFD2FFFFFFC0
FFD2FFFFFFC0
FFD2FFFFFFC0
FFD2FFFFFFC0
FFD2FFFFFFC0
FFD2FFFFFFC0
FFE2FFFFFFC0
FFE01547FFC0
FFF80007FFC0
FFFFFFFFFFC0
FFFFFFFFFFC0
FFFFFFFFFF80
BFFFFFFFFF40
7FFFFFFFFF00
1FFFFFFFFD00
07FFFFFFF400
006FFFFE4000
ENDCHAR
STARTCHAR cacute
ENCODING 263
SWIDTH 578 0
DWIDTH 21 0
BBX 21 34 0 0
BITMAP
00001BFE0000
00003FFFD000
0000BFFFF000
0000FF0FF000
0001FE2FE000
0001FD3FD000
0002FC7FC000
0003F8FF4000
0007F9FE0000
0003FFFC0000
00AFFFFE4000
07FEFFFBF400
2FF00007FD00
7FE1AAABFF00
BFD2FFFFFF40
FFD2FFFFFF80
FFD2FFFFFFC0
FFD2FFFFFFC0
FFD2FFFFFFC0
FFD2FFFFFFC0
FFD2FFFFFFC0
FFD2FFFFFFC0
FFD2FFFFFFC0
FFE2FFFFFFC0
FFE01547FFC0
FFF80007FFC0
FFFFFFFFFFC0
FFFFFFFFFFC0
FFFFFFFFFF80
BFFFFFFFFF40
7FFFFFFFFF00
1FFFFFFFFD00
07FFFFFFF400
006FFFFE4000
ENDCHAR
STARTCHAR Ccircumflex
ENCODING 264
SWIDTH 578 0
DWIDTH 21 0
BBX 21 35 0 0
BITMAP
00006A900000
0001FFF40000
0003FFFC0000
0007FAFD0000
000FE0FE0000
001FD5BF4000
002FCA3F8000
003F8F2FC000
007F5F5FD000
00BF6FAFD000
007FFFFFD000
00BFFFFFC000
07FFAABFF400
2FF00007FD00
7FE1AAABFF00
BFD2FFFFFF40
FFD2FFFFFF80
FFD2FFFFFFC0
FFD2FFFFFFC0
FFD2FFFFFFC0
FFD2FFFFFFC0
FFD2FFFFFFC0
FFD2FFFFFFC0
FFD2FFFFFFC0
FFE2FFFFFFC0
FFE01547FFC0
FFF80007FFC0
FFFFFFFFFFC0
FFFFFFFFFFC0
FFFFFFFFFF80
BFFFFFFFFF40
7FFFFFFFFF00
1FFFFFFFFD00
07FFFFFFF400
006FFFFE4000
ENDCHAR
STARTCHAR ccircumflex
ENCODING 265
SWIDTH 578 0
DWIDTH 21 0
BBX 21 35 0 0
BITMAP
00006A900000
0001FFF40000
0003FFF80000
000BFAFD0000
000FE0FE0000
001FD5BF0000
002FCA7F8000
003F8F2FC000
007F5F5FD000
00BF7FAFD000
00BFFFFFD000
00BFFFFFC000
07FFAABFF400
2FF00007FD00
7FE1AAABFF00
BFD2FFFFFF40
FFD2FFFFFF80
FFD2FFFFFFC0
FFD2FFFFFFC0
FFD2FFFFFFC0
FFD2FFFFFFC0
FFD2FFFFFFC0
FFD2FFFFFFC0
FFD2FFFFFFC0
FFE2FFFFFFC0
FFE01547FFC0
FFF80007FFC0
FFFFFFFFFFC0
FFFFFFFFFFC0
FFFFFFFFFF80
BFFFFFFFFF40
7FFFFFFFFF00
1FFFFFFFFD00
07FFFFFFF400
006FFFFE4000
ENDCHAR
STARTCHAR Cdotaccent
ENCODING 266
SWIDTH 578 0
DWIDTH 21 0
BBX 21 33 0 0
BITMAP
000155400000
001FFFF80000
00BFFFFF4000
02FFFFFFC000
07FFFFFFE000
0BFFD7FFE000
0BFFC2FFF000
0BFFD7FFE000
07FFFFFFD000
03FFFFFFC000
07FFFFFFF400
2FF00007FD00
7FE1AAABFF00
BFD2FFFFFF40
FFD2FFFFFF80
FFD2FFFFFFC0
FFD2FFFFFFC0
FFD2FFFFFFC0
FFD2FFFFFFC0
FFD2FFFFFFC0
FFD2FFFFFFC0
FFD2FFFFFFC0
FFE2FFFFFFC0
FFE01547FFC0
FFF80007FFC0
FFFFFFFFFFC0
FFFFFFFFFFC0
FFFFFFFFFF80
BFFFFFFFFF40
7FFFFFFFFF00
1FFFFFFFFD00
07FFFFFFF400
006FFFFE4000
ENDCHAR
STARTCHAR cdotaccent
ENCODING 267
SWIDTH 578 0
DWIDTH 21 0
BBX 21 33 0 0
BITMAP
000055400000
001BFFF90000
00BFFFFF4000
01FFFFFFD000
03FFFFFFF000
07FFE6FFF000
07FFD1FFF400
03FFD6FFF000
03FFFFFFE000
02FFFFFFD000
07FFFFFFF400
2FF00007FD00
7FE1AAABFF00
BFD2FFFFFF40
FFD2FFFFFF80
FFD2FFFFFFC0
FFD2FFFFFFC0
FFD2FFFFFFC0
FFD2FFFFFFC0
FFD2FFFFFFC0
FFD2FFFFFFC0
FFD2FFFFFFC0
FFE2FFFFFFC0
FFE01547FFC0
FFF80007FFC0
FFFFFFFFFFC0
FFFFFFFFFFC0
FFFFFFFFFF80
BFFFFFFFFF40
7FFFFFFFFF00
1FFFFFFFFD00
07FFFFFFF400
006FFFFE4000
ENDCHAR
STARTCHAR Ccaron
ENCODING 268
SWIDTH 578 0
DWIDTH 21 0
BBX 21 34 0 0
BITMAP
001A92A80000
00BFFFFF0000
00FFFFFF4000
01FDBE7F8000
01FE3D7F8000
00FF2CBF4000
00BF58FF4000
007F89FF0000
003FC2FE0000
002FFBFD0000
00BFFFFE4000
07FFAABFF400
2FF00007FD00
7FE1AAABFF00
BFD2FFFFFF40
FFD2FFFFFF80
FFD2FFFFFFC0
FFD2FFFFFFC0
FFD2FFFFFFC0
FFD2FFFFFFC0
FFD2FFFFFFC0
FFD2FFFFFFC0
FFD2FFFFFFC0
FFE2FFFFFFC0
FFE01547FFC0
FFF80007FFC0
FFFFFFFFFFC0
FFFFFFFFFFC0
FFFFFFFFFF80
BFFFFFFFFF40
7FFFFFFFFF00
1FFFFFFFFD00
07FFFFFFF400
006FFFFE4000
ENDCHAR
STARTCHAR ccaron
ENCODING 269
SWIDTH 578 0
DWIDTH 21 0
BBX 21 34 0 0
BITMAP
000A91A90000
007FFFFF4000
00BFFFFF8000
00FE7F6FC000
00FF2E3FC000
00BF5D7F8000
007F8CBF8000
003FC8FF4000
003FD1FF0000
002FFBFE0000
00BFFFFF4000
07FFAABFF400
2FF00007FD00
7FE1AAABFF00
BFD2FFFFFF40
FFD2FFFFFF80
FFD2FFFFFFC0
FFD2FFFFFFC0
FFD2FFFFFFC0
FFD2FFFFFFC0
FFD2FFFFFFC0
FFD2FFFFFFC0
FFD2FFFFFFC0
FFE2FFFFFFC0
FFE01547FFC0
FFF80007FFC0
FFFFFFFFFFC0
FFFFFFFFFFC0
FFFFFFFFFF80
BFFFFFFFFF40
7FFFFFFFFF00
1FFFFFFFFD00
07FFFFFFF400
006FFFFE4000
ENDCHAR
STARTCHAR Dcaron
ENCODING 270
SWIDTH 578 0
DWIDTH 21 0
BBX 21 35 0 0
BITMAP
001A91A90000
007FFFFF4000
00FFFFFF8000
00FE7F6FC000
00FE3E3F8000
00BF2D7F8000
00BF9CBF4000
007FC8FF0000
003FD2FE0000
002FFBFD0000
001FFFFC0000
00AFFFFE4000
07FAAAABF400
2FE00000BD00
7FE1AAA47F00
BFE1FFFC7F40
FFE1FFFC7F80
FFE1FFFC7FC0
FFE1FFFC7FC0
FFE1FFFC7FC0
FFE1FFFC7FC0
FFE1FFFC7FC0
FFE1FFFC7FC0
FFE1FFFC7FC0
FFE1FFF87FC0
FFE055407FC0
FFE00001FFC0
FFFFFFFFFFC0
FFFFFFFFFFC0
FFFFFFFFFF80
BFFFFFFFFF40
7FFFFFFFFF00
1FFFFFFFFD00
07FFFFFFF400
006FFFFE4000
ENDCHAR
STARTCHAR dcaron
ENCODING 271
SWIDTH 578 0
DWIDTH 21 0
BBX 21 24 0 0
BITMAP
00AFFFFE4000
07AAAABEA400
2F40000C1D00
7F4AAA491F00
BF4FFF862F40
FF4FFF867F80
FF4FFF87FFC0
FF4FFF87FFC0
FF4FFF87FFC0
FF4FFF87FFC0
FF4FFF87FFC0
FF4FFF87FFC0
FF4FFF87FFC0
FF4FFF8BFFC0
FF41540BFFC0
FF40001FFFC0
FFFFFFFFFFC0
FFFFFFFFFFC0
FFFFFFFFFF80
BFFFFFFFFF40
7FFFFFFFFF00
1FFFFFFFFD00
07FFFFFFF400
006FFFFE4000
ENDCHAR
STARTCHAR Dcroat
ENCODING 272
SWIDTH 578 0
DWIDTH 21 0
BBX 21 24 0 0
BITMAP
00AFFFFE4000
07FAAAABF400
2FE00000BD00
7FE1AAA47F00
BFE1FFFC7F40
FFE1FFFC7F80
FFE1FFFC7FC0
FE505FFC7FC0
FE000BFC7FC0
FFE1FFFC7FC0
FFE1FFFC7FC0
FFE1FFFC7FC0
FFE1FFFC7FC0
FFE1FFF87FC0
FFE055407FC0
FFE00001FFC0
FFFFFFFFFFC0
FFFFFFFFFFC0
FFFFFFFFFF80
BFFFFFFFFF40
7FFFFFFFFF00
1FFFFFFFFD00
07FFFFFFF400
006FFFFE4000
ENDCHAR
STARTCHAR dcroat
ENCODING 273
SWIDTH 578 0
DWIDTH 21 0
BBX 21 24 0 0
BITMAP
00AFFFFE4000
07FAAAABF400
2FE00000BD00
7FE1AAA47F00
BFE1FFFC7F40
FFE1FFFC7F80
FFE1FFFC7FC0
FE505FFC7FC0
FE000BFC7FC0
FFE1FFFC7FC0
FFE1FFFC7FC0
FFE1FFFC7FC0
FFE1FFFC7FC0
FFE1FFF87FC0
FFE055407FC0
FFE00001FFC0
FFFFFFFFFFC0
FFFFFFFFFFC0
FFFFFFFFFF80
BFFFFFFFFF40
7FFFFFFFFF00
1FFFFFFFFD00
07FFFFFFF400
006FFFFE4000
ENDCHAR
STARTCHAR Emacron
ENCODING 274
SWIDTH 578 0
DWIDTH 21 0
BBX 21 33 0 0
BITMAP
000015500000
0006FFFE0000
002FFFFFD000
00BFFFFFF400
00FFFFFFF800
01FF555BFC00
01FE000BFC00
01FFAAAFFC00
00FFFFFFF400
00BFFFFFE000
07FFFFFFF400
2FFC0001FD00
7FFC2AAAFF00
BFFC3FFFFF40
FFFC3FFFFF80
FFFC3FFFFFC0
FFFC3FFFFFC0
FFFC0007FFC0
FFFC1557FFC0
FFFC3FFFFFC0
FFFC3FFFFFC0
FFFC3FFFFFC0
FFFC3FFFFFC0
FFFC1555FFC0
FFFC0000FFC0
FFFFFFFFFFC0
FFFFFFFFFFC0
FFFFFFFFFF80
BFFFFFFFFF40
7FFFFFFFFF00
1FFFFFFFFD00
07FFFFFFF400
006FFFFE4000
ENDCHAR
STARTCHAR emacron
ENCODING 275
SWIDTH 578 0
DWIDTH 21 0
BBX 21 33 0 0
BITMAP
000055400000
001BFFF90000
00BFFFFF4000
02FFFFFFD000
03FFFFFFF000
07FD556FF000
07FC002FF000
03FEAABFF000
02FFFFFFE000
01FFFFFFC000
07FFFFFFF400
2FF00007FD00
7FD1AA92FF00
BFD2FFE2FF40
FFD2FFE2FF80
FFD2FFD2FFC0
FFD00002FFC0
FFD15556FFC0
FFD2FFFFFFC0
FFD2FFFFFFC0
FFD2FFFFFFC0
FFD2FFFFFFC0
FFD1AA9BFFC0
FFF00007FFC0
FFFEAAABFFC0
FFFFFFFFFFC0
FFFFFFFFFFC0
FFFFFFFFFF80
BFFFFFFFFF40
7FFFFFFFFF00
1FFFFFFFFD00
07FFFFFFF400
006FFFFE4000
ENDCHAR
STARTCHAR Ebreve
ENCODING 276
SWIDTH 578 0
DWIDTH 21 0
BBX 21 34 0 0
BITMAP
000015500000
0006FFFE0000
002FFFFFD000
00BFFFFFF400
00FFFFFFF800
01FFAFEFFC00
01FF5FCBFC00
01FF400BFC00
00FFE56FF400
007FFFFFE000
00BFFFFFC000
07FEAAAAF400
2FFC0001FD00
7FFC2AAAFF00
BFFC3FFFFF40
FFFC3FFFFF80
FFFC3FFFFFC0
FFFC3FFFFFC0
FFFC0007FFC0
FFFC1557FFC0
FFFC3FFFFFC0
FFFC3FFFFFC0
FFFC3FFFFFC0
FFFC3FFFFFC0
FFFC1555FFC0
FFFC0000FFC0
FFFFFFFFFFC0
FFFFFFFFFFC0
FFFFFFFFFF80
BFFFFFFFFF40
7FFFFFFFFF00
1FFFFFFFFD00
07FFFFFFF400
006FFFFE4000
ENDCHAR
STARTCHAR ebreve
ENCODING 277
SWIDTH 578 0
DWIDTH 21 0
BBX 21 34 0 0
BITMAP
000055400000
001BFFF90000
00BFFFFF4000
02FFFFFFD000
03FFFFFFF000
07FEBFBFF000
07FD3F1FF000
03FE002FF000
02FF95BFE000
00FFFFFF8000
00BFFFFF8000
07FEAAAFF400
2FF00007FD00
7FD1AA92FF00
BFD2FFE2FF40
FFD2FFE2FF80
FFD2FFD2FFC0
FFD00002FFC0
FFD15556FFC0
FFD2FFFFFFC0
FFD2FFFFFFC0
FFD2FFFFFFC0
FFD2FFFFFFC0
FFD1AA9BFFC0
FFF00007FFC0
FFFEAAABFFC0
FFFFFFFFFFC0
FFFFFFFFFFC0
FFFFFFFFFF80
BFFFFFFFFF40
7FFFFFFFFF00
1FFFFFFFFD00
07FFFFFFF400
006FFFFE4000
ENDCHAR
STARTCHAR Edotaccent
ENCODING 278
SWIDTH 578 0
DWIDTH 21 0
BBX 21 34 0 0
BITMAP
000015500000
0006FFFE0000
002FFFFFD000
00BFFFFFF400
00FFFFFFF800
01FFF5BFFC00
01FFF0BFFC00
01FFF5BFFC00
00FFFFFFF800
00BFFFFFF400
00BFFFFFE000
07FEAAAAF400
2FFC0001FD00
7FFC2AAAFF00
BFFC3FFFFF40
FFFC3FFFFF80
FFFC3FFFFFC0
FFFC3FFFFFC0
FFFC0007FFC0
FFFC1557FFC0
FFFC3FFFFFC0
FFFC3FFFFFC0
FFFC3FFFFFC0
FFFC3FFFFFC0
FFFC1555FFC0
FFFC0000FFC0
FFFFFFFFFFC0
FFFFFFFFFFC0
FFFFFFFFFF80
BFFFFFFFFF40
7FFFFFFFFF00
1FFFFFFFFD00
07FFFFFFF400
006FFFFE4000
ENDCHAR
STARTCHAR edotaccent
ENCODING 279
SWIDTH 578 0
DWIDTH 21 0
BBX 21 34 0 0
BITMAP
000055400000
001BFFF90000
00BFFFFF4000
02FFFFFFD000
03FFFFFFF000
07FFE6FFF000
07FFD2FFF000
07FFD6FFF000
03FFFFFFE000
02FFFFFFD000
00FFFFFFC000
07FEAAAFF400
2FF00007FD00
7FD1AA92FF00
BFD2FFE2FF40
FFD2FFE2FF80
FFD2FFD2FFC0
FFD00002FFC0
FFD15556FFC0
FFD2FFFFFFC0
FFD2FFFFFFC0
FFD2FFFFFFC0
FFD2FFFFFFC0
FFD1AA9BFFC0
FFF00007FFC0
FFFEAAABFFC0
FFFFFFFFFFC0
FFFFFFFFFFC0
FFFFFFFFFF80
BFFFFFFFFF40
7FFFFFFFFF00
1FFFFFFFFD00
07FFFFFFF400
006FFFFE4000
ENDCHAR
STARTCHAR Eogonek
ENCODING 280
SWIDTH 578 0
DWIDTH 21 0
BBX 21 24 0 0
BITMAP
00AFFFFE4000
07FEAAAAF400
2FFC0001FD00
7FFC2AAAFF00
BFFC3FFFFF40
FFFC3FFFFF80
FFFC3FFFFFC0
FFFC3FFFFFC0
FFFC0007FFC0
FFFC1557FFC0
FFFC3FFFFFC0
FFFC3FFFFFC0
FFFC3FFFFFC0
FFFC3FFFFFC0
FFFC1555FFC0
FFFC0000FFC0
FFFFFFE2FFC0
FFFFFF8BFFC0
FFFFFF1FFF80
BFFFFF1FFF40
7FFFFF41FF00
1FFFFFE5FD00
07FFFFFFF400
006FFFFE4000
ENDCHAR
STARTCHAR eogonek
ENCODING 281
SWIDTH 578 0
DWIDTH 21 0
BBX 21 24 0 0
BITMAP
00AFFFFE4000
07FEAAAFF400
2FF00007FD00
7FD1AA92FF00
BFD2FFE2FF40
FFD2FFE2FF80
FFD2FFD2FFC0
FFD00002FFC0
FFD15556FFC0
FFD2FFFFFFC0
FFD2FFFFFFC0
FFD2FFFFFFC0
FFD2FFFFFFC0
FFD1AA9BFFC0
FFF00007FFC0
FFFEA92BFFC0
FFFFF4BFFFC0
FFFFD2FFFFC0
FFFFD3FFFF80
BFFFD17FFF40
7FFFF43FFF00
1FFFFFFFFD00
07FFFFFFF400
006FFFFE4000
ENDCHAR
STARTCHAR Ecaron
ENCODING 282
SWIDTH 578 0
DWIDTH 21 0
BBX 21 34 0 0
BITMAP
0006A46A4000
001FFFFFD000
003FFFFFE000
003F9FDBE000
003F8F8FE000
002FCB5FE000
002FE72FD000
001FF23FC000
000FF4BF8000
000BFEFF4000
00AFFFFF8000
07FEAAABF400
2FFC0001FD00
7FFC2AAAFF00
BFFC3FFFFF40
FFFC3FFFFF80
FFFC3FFFFFC0
FFFC3FFFFFC0
FFFC0007FFC0
FFFC1557FFC0
FFFC3FFFFFC0
FFFC3FFFFFC0
FFFC3FFFFFC0
FFFC3FFFFFC0
FFFC1555FFC0
FFFC0000FFC0
FFFFFFFFFFC0
FFFFFFFFFFC0
FFFFFFFFFF80
BFFFFFFFFF40
7FFFFFFFFF00
1FFFFFFFFD00
07FFFFFFF400
006FFFFE4000
ENDCHAR
STARTCHAR ecaron
ENCODING 283
SWIDTH 578 0
DWIDTH 21 0
BBX 21 34 0 0
BITMAP
001A91A90000
007FFFFF4000
00FFFFFF8000
00FE7F6FC000
00FE3E3F8000
00BF2D7F8000
00BF9CBF4000
007FC8FF0000
003FD2FE0000
002FFBFD0000
00BFFFFF4000
07FFAABFF400
2FF00007FD00
7FD1AA92FF00
BFD2FFE2FF40
FFD2FFE2FF80
FFD2FFD2FFC0
FFD00002FFC0
FFD15556FFC0
FFD2FFFFFFC0
FFD2FFFFFFC0
FFD2FFFFFFC0
FFD2FFFFFFC0
FFD1AA9BFFC0
FFF00007FFC0
FFFEAAABFFC0
FFFFFFFFFFC0
FFFFFFFFFFC0
FFFFFFFFFF80
BFFFFFFFFF40
7FFFFFFFFF00
1FFFFFFFFD00
07FFFFFFF400
006FFFFE4000
ENDCHAR
STARTCHAR Gcircumflex
ENCODING 284
SWIDTH 578 0
DWIDTH 21 0
BBX 21 35 0 0
BITMAP
00006A800000
0002FFF00000
0003FFF80000
000BFAFC0000
000FE0FE0000
001FD8BF0000
003FCD7F4000
007F5E3F8000
00BF2F2FC000
00BF7FAFD000
00BFFFFFC000
00BFFFFFC000
07FFEAAFF400
2FF80001FD00
7FF06AAAFF00
BFF0FFFFFF40
FFF0FFFFFF80
FFF0FFFFFFC0
FFF0FFFFFFC0
FFF0FFAABFC0
FFF0FE007FC0
FFF0FEA47FC0
FFF0FFFC7FC0
FFF0FFFC7FC0
FFF0FFF87FC0
FFF41540BFC0
FFFD0001FFC0
FFFFFFFFFFC0
FFFFFFFFFFC0
FFFFFFFFFF80
BFFFFFFFFF40
7FFFFFFFFF00
1FFFFFFFFD00
07FFFFFFF400
006FFFFE4000
ENDCHAR
STARTCHAR gcircumflex
ENCODING 285
SWIDTH 578 0
DWIDTH 21 0
BBX 21 35 0 0
BITMAP
00006A800000
0002FFF00000
0003FFF80000
000BFAFC0000
000FE0FE0000
001FD8BF0000
003FCD7F4000
007F5E3F8000
00BF2F2FC000
00BF7FAFD000
00BFFFFFC000
00BFFFFFC000
07FFEAAFF400
2FF80001FD00
7FF06AAAFF00
BFF0FFFFFF40
FFF0FFFFFF80
FFF0FFFFFFC0
FFF0FFFFFFC0
FFF0FFAABFC0
FFF0FE007FC0
FFF0FEA47FC0
FFF0FFFC7FC0
FFF0FFFC7FC0
FFF0FFF87FC0
FFF41540BFC0
FFFD0001FFC0
FFFFFFFFFFC0
FFFFFFFFFFC0
FFFFFFFFFF80
BFFFFFFFFF40
7FFFFFFFFF00
1FFFFFFFFD00
07FFFFFFF400
006FFFFE4000
ENDCHAR
STARTCHAR Gbreve
ENCODING 286
SWIDTH 578 0
DWIDTH 21 0
BBX 21 34 0 0
BITMAP
000055500000
000BFFFD0000
007FFFFF8000
01FFFFFFE000
02FFFFFFF400
03FFBFEFF400
03FE2F4FF400
02FF001FF400
01FF957FF000
00BFFFFFD000
00BFFFFF8000
07FEAAAAF400
2FF80001FD00
7FF06AAAFF00
BFF0FFFFFF40
FFF0FFFFFF80
FFF0FFFFFFC0
FFF0FFFFFFC0
FFF0FFAABFC0
FFF0FE007FC0
FFF0FEA47FC0
FFF0FFFC7FC0
FFF0FFFC7FC0
FFF0FFF87FC0
FFF41540BFC0
FFFD0001FFC0
FFFFFFFFFFC0
FFFFFFFFFFC0
FFFFFFFFFF80
BFFFFFFFFF40
7FFFFFFFFF00
1FFFFFFFFD00
07FFFFFFF400
006FFFFE4000
ENDCHAR
STARTCHAR gbreve
ENCODING 287
SWIDTH 578 0
DWIDTH 21 0
BBX 21 34 0 0
BITMAP
000055400000
001BFFF90000
00BFFFFF4000
02FFFFFFD000
03FFFFFFF000
07FEBFBFF000
07FD3F1FF000
03FE002FF000
02FF95BFE000
00FFFFFF8000
00BFFFFF8000
07FEAAAAF400
2FF80001FD00
7FF06AAAFF00
BFF0FFFFFF40
FFF0FFFFFF80
FFF0FFFFFFC0
FFF0FFFFFFC0
FFF0FFAABFC0
FFF0FE007FC0
FFF0FEA47FC0
FFF0FFFC7FC0
FFF0FFFC7FC0
FFF0FFF87FC0
FFF41540BFC0
FFFD0001FFC0
FFFFFFFFFFC0
FFFFFFFFFFC0
FFFFFFFFFF80
BFFFFFFFFF40
7FFFFFFFFF00
1FFFFFFFFD00
07FFFFFFF400
006FFFFE4000
ENDCHAR
STARTCHAR Gdotaccent
ENCODING 288
SWIDTH 578 0
DWIDTH 21 0
BBX 21 34 0 0
BITMAP
000055400000
001BFFF90000
00BFFFFF4000
02FFFFFFD000
03FFFFFFF000
07FFE6FFF000
07FFD2FFF000
07FFD6FFF000
03FFFFFFE000
02FFFFFFD000
00FFFFFFC000
07FEAAAAF400
2FF80001FD00
7FF06AAAFF00
BFF0FFFFFF40
FFF0FFFFFF80
FFF0FFFFFFC0
FFF0FFFFFFC0
FFF0FFAABFC0
FFF0FE007FC0
FFF0FEA47FC0
FFF0FFFC7FC0
FFF0FFFC7FC0
FFF0FFF87FC0
FFF41540BFC0
FFFD0001FFC0
FFFFFFFFFFC0
FFFFFFFFFFC0
FFFFFFFFFF80
BFFFFFFFFF40
7FFFFFFFFF00
1FFFFFFFFD00
07FFFFFFF400
006FFFFE4000
ENDCHAR
STARTCHAR gdotaccent
ENCODING 289
SWIDTH 578 0
DWIDTH 21 0
BBX 21 34 0 0
BITMAP
000055400000
001BFFF90000
00BFFFFF4000
02FFFFFFD000
03FFFFFFF000
07FFE6FFF000
07FFD2FFF000
07FFD6FFF000
03FFFFFFE000
02FFFFFFD000
00FFFFFFC000
07FEAAAAF400
2FF80001FD00
7FF06AAAFF00
BFF0FFFFFF40
FFF0FFFFFF80
FFF0FFFFFFC0
FFF0FFFFFFC0
FFF0FFAABFC0
FFF0FE007FC0
FFF0FEA47FC0
FFF0FFFC7FC0
FFF0FFFC7FC0
FFF0FFF87FC0
FFF41540BFC0
FFFD0001FFC0
FFFFFFFFFFC0
FFFFFFFFFFC0
FFFFFFFFFF80
BFFFFFFFFF40
7FFFFFFFFF00
1FFFFFFFFD00
07FFFFFFF400
006FFFFE4000
ENDCHAR
STARTCHAR Gcommaaccent
ENCODING 290
SWIDTH 578 0
DWIDTH 21 0
BBX 21 24 0 0
BITMAP
00AFFFFE4000
07FEAAAAF400
2FF80001FD00
7FF06AAAFF00
BFF0FFFFFF40
FFF0FFFFFF80
FFF0FFFFFFC0
FFF0FFFFFFC0
FFF0FFAABFC0
FFF0FE007FC0
FFF0FEA47FC0
FFF0FFFC7FC0
FFF0FFFC7FC0
FFF0FFF87FC0
FFF41540BFC0
FFFD0001FFC0
FFFFFFFFFFC0
FFFFF5BFFFC0
FFFFF07FFF80
BFFFF47FFF40
7FFFFCBFFF00
1FFFF9FFFD00
07FFFFFFF400
006FFFFE4000
ENDCHAR
STARTCHAR gcommaaccent
ENCODING 291
SWIDTH 578 0
DWIDTH 21 0
BBX 21 24 0 0
BITMAP
00AFFFFE4000
07FEAAAAF400
2FF80001FD00
7FF06AAAFF00
BFF0FFFFFF40
FFF0FFFFFF80
FFF0FFFFFFC0
FFF0FFFFFFC0
FFF0FFAABFC0
FFF0FE007FC0
FFF0FEA47FC0
FFF0FFFC7FC0
FFF0FFFC7FC0
FFF0FFF87FC0
FFF41540BFC0
FFFD0001FFC0
FFFFFFFFFFC0
FFFFF5BFFFC0
FFFFF07FFF80
BFFFF47FFF40
7FFFFCBFFF00
1FFFF9FFFD00
07FFFFFFF400
006FFFFE4000
ENDCHAR
STARTCHAR Hcircumflex
ENCODING 292
SWIDTH 578 0
DWIDTH 21 0
BBX 21 35 0 0
BITMAP
00006A800000
0001FFF40000
0003FFF80000
000BFAFD0000
000FE0FE0000
001FD9BF0000
002FCA7F4000
003F8F3FC000
007F1F5FC000
00BF7FAFD000
00BFFFFFD000
00BFFFFFC000
07FBFFFEB400
2FE1FFFC7D00
7FE1FFFC7F00
BFE1FFFC7F40
FFE1FFFC7F80
FFE1FFFC7FC0
FFE1AAA87FC0
FFE000007FC0
FFE1AAA47FC0
FFE1FFFC7FC0
FFE1FFFC7FC0
FFE1FFFC7FC0
FFE1FFFC7FC0
FFE1FFFC7FC0
FFE1FFFC7FC0
FFFFFFFFFFC0
FFFFFFFFFFC0
FFFFFFFFFF80
BFFFFFFFFF40
7FFFFFFFFF00
1FFFFFFFFD00
07FFFFFFF400
006FFFFE4000
ENDCHAR
STARTCHAR hcircumflex
ENCODING 293
SWIDTH 578 0
DWIDTH 21 0
BBX 21 35 0 0
BITMAP
00006A900000
0001FFF40000
0003FFFC0000
0007FAFD0000
000FF0FE0000
001FD57F4000
002FCA3F8000
003F8F2FC000
007F5F5FD000
007F6F9FD000
007FFFFFD000
00BFFFFFC000
07FBFFFEB400
2FE1FFFC7D00
7FE1FFFC7F00
BFE1FFFC7F40
FFE1FFFC7F80
FFE1FFFC7FC0
FFE1AAA87FC0
FFE000007FC0
FFE1AAA47FC0
FFE1FFFC7FC0
FFE1FFFC7FC0
FFE1FFFC7FC0
FFE1FFFC7FC0
FFE1FFFC7FC0
FFE1FFFC7FC0
FFFFFFFFFFC0
FFFFFFFFFFC0
FFFFFFFFFF80
BFFFFFFFFF40
7FFFFFFFFF00
1FFFFFFFFD00
07FFFFFFF400
006FFFFE4000
ENDCHAR
STARTCHAR Hbar
ENCODING 294
SWIDTH 578 0
DWIDTH 21 0
BBX 21 34 0 0
BITMAP
000055500000
000BFFFD0000
007FFFFF8000
01FFFFFFE000
02FFFFFFF400
03FE556FF400
03FD001FF400
02FEAAAFF400
01FFFFFFF000
00BFFFFFD000
00BFFFFF8000
07FAFFFEB400
2FE1FFFC7D00
7FE1FFFC7F00
BFE1FFFC7F40
FFE1FFFC7F80
FFE1FFFC7FC0
FFE1AAA87FC0
FFE000007FC0
FFE1AAA47FC0
FFE1FFFC7FC0
FFE1FFFC7FC0
FFE1FFFC7FC0
FFE1FFFC7FC0
FFE1FFFC7FC0
FFE1FFFC7FC0
FFFFFFFFFFC0
FFFFFFFFFFC0
FFFFFFFFFF80
BFFFFFFFFF40
7FFFFFFFFF00
1FFFFFFFFD00
07FFFFFFF400
006FFFFE4000
ENDCHAR
STARTCHAR hbar
ENCODING 295
SWIDTH 578 0
DWIDTH 21 0
BBX 21 24 0 0
BITMAP
00AFFFFE4000
07FAFFFEB400
2FE1FFFC7D00
7FE1FFF87F00
BFC000001F40
FFD1AAA42F80
FFE1FFFC7FC0
FFE1AAA87FC0
FFE000007FC0
FFE1AAA47FC0
FFE1FFFC7FC0
FFE1FFFC7FC0
FFE1FFFC7FC0
FFE1FFFC7FC0
FFE1FFFC7FC0
FFE1FFFC7FC0
FFFFFFFFFFC0
FFFFFFFFFFC0
FFFFFFFFFF80
BFFFFFFFFF40
7FFFFFFFFF00
1FFFFFFFFD00
07FFFFFFF400
006FFFFE4000
ENDCHAR
STARTCHAR Itilde
ENCODING 296
SWIDTH 578 0
DWIDTH 21 0
BBX 21 35 0 0
BITMAP
00001A500000
0006FFFE0000
001FFFFFD000
007FFFFFF000
00BFFFFFF800
00FFFFFFFC00
01FFFFFFFD00
01FF57D3FD00
00FD1043FC00
00FD7E4BF800
007FFFFFF400
00BFFFFFD000
07FAAAAAB400
2FF40000BD00
7FFAA46AFF00
BFFFF4BFFF40
FFFFF4BFFF80
FFFFF4BFFFC0
FFFFF4BFFFC0
FFFFF4BFFFC0
FFFFF4BFFFC0
FFFFF4BFFFC0
FFFFF4BFFFC0
FFFFF4BFFFC0
FFFFF4BFFFC0
FFF55015BFC0
FFF40000BFC0
FFFFFFFFFFC0
FFFFFFFFFFC0
FFFFFFFFFF80
BFFFFFFFFF40
7FFFFFFFFF00
1FFFFFFFFD00
07FFFFFFF400
006FFFFE4000
ENDCHAR
STARTCHAR itilde
ENCODING 297
SWIDTH 578 0
DWIDTH 21 0
BBX 21 35 0 0
BITMAP
00001A500000
0006FFFE0000
001FFFFFD000
007FFFFFF000
00FFFFFFF800
01FFFFFFFC00
01FFFFFFFC00
01FE5BD3FC00
01FD1043FC00
00FD7D4BF800
007FFFFFF000
00BFFFFFD000
07FAAAAAB400
2FF40000BD00
7FFAA46AFF00
BFFFF4BFFF40
FFFFF4BFFF80
FFFFF4BFFFC0
FFFFF4BFFFC0
FFFFF4BFFFC0
FFFFF4BFFFC0
FFFFF4BFFFC0
FFFFF4BFFFC0
FFFFF4BFFFC0
FFFFF4BFFFC0
FFF55015BFC0
FFF40000BFC0
FFFFFFFFFFC0
FFFFFFFFFFC0
FFFFFFFFFF80
BFFFFFFFFF40
7FFFFFFFFF00
1FFFFFFFFD00
07FFFFFFF400
006FFFFE4000
ENDCHAR
STARTCHAR Imacron
ENCODING 298
SWIDTH 578 0
DWIDTH 21 0
BBX 21 34 0 0
BITMAP
000055500000
0007FFFE0000
002FFFFFD000
00BFFFFFF400
01FFFFFFF800
01FE555FFC00
02FE000BFC00
01FFAAAFF800
00FFFFFFF400
007FFFFFE000
00BFFFFFC000
07FAAAAAB400
2FF40000BD00
7FFAA46AFF00
BFFFF4BFFF40
FFFFF4BFFF80
FFFFF4BFFFC0
FFFFF4BFFFC0
FFFFF4BFFFC0
FFFFF4BFFFC0
FFFFF4BFFFC0
FFFFF4BFFFC0
FFFFF4BFFFC0
FFFFF4BFFFC0
FFF55015BFC0
FFF40000BFC0
FFFFFFFFFFC0
FFFFFFFFFFC0
FFFFFFFFFF80
BFFFFFFFFF40
7FFFFFFFFF00
1FFFFFFFFD00
07FFFFFFF400
006FFFFE4000
ENDCHAR
STARTCHAR imacron
ENCODING 299
SWIDTH 578 0
DWIDTH 21 0
BBX 21 34 0 0
BITMAP
000055500000
0007FFFE0000
002FFFFFD000
00BFFFFFF000
01FFFFFFF800
02FE555FFC00
02FE000BFC00
01FFAAAFF800
00FFFFFFF400
007FFFFFE000
00BFFFFFC000
07FAAAAAB400
2FF40000BD00
7FFAA46AFF00
BFFFF4BFFF40
FFFFF4BFFF80
FFFFF4BFFFC0
FFFFF4BFFFC0
FFFFF4BFFFC0
FFFFF4BFFFC0
FFFFF4BFFFC0
FFFFF4BFFFC0
FFFFF4BFFFC0
FFFFF4BFFFC0
FFF55015BFC0
FFF40000BFC0
FFFFFFFFFFC0
FFFFFFFFFFC0
FFFFFFFFFF80
BFFFFFFFFF40
7FFFFFFFFF00
1FFFFFFFFD00
07FFFFFFF400
006FFFFE4000
ENDCHAR
STARTCHAR Ibreve
ENCODING 300
SWIDTH 578 0
DWIDTH 21 0
BBX 21 34 0 0
BITMAP
000015500000
0006FFFE4000
002FFFFFD000
007FFFFFF400
00FFFFFFFC00
01FFAFEBFC00
01FF4FC7FD00
00FF800BFC00
00BFE56FF800
003FFFFFF000
00BFFFFFC000
07FAAAAAB400
2FF40000BD00
7FFAA46AFF00
BFFFF4BFFF40
FFFFF4BFFF80
FFFFF4BFFFC0
FFFFF4BFFFC0
FFFFF4BFFFC0
FFFFF4BFFFC0
FFFFF4BFFFC0
FFFFF4BFFFC0
FFFFF4BFFFC0
FFFFF4BFFFC0
FFF55015BFC0
FFF40000BFC0
FFFFFFFFFFC0
FFFFFFFFFFC0
FFFFFFFFFF80
BFFFFFFFFF40
7FFFFFFFFF00
1FFFFFFFFD00
07FFFFFFF400
006FFFFE4000
ENDCHAR
STARTCHAR ibreve
ENCODING 301
SWIDTH 578 0
DWIDTH 21 0
BBX 21 34 0 0
BITMAP
000015500000
0006FFFE4000
002FFFFFD000
00BFFFFFF400
00FFFFFFF800
01FFAFEFFC00
01FF4FC7FC00
01FF400BFC00
00FFE56FF800
007FFFFFE000
00BFFFFFC000
07FAAAAAB400
2FF40000BD00
7FFAA46AFF00
BFFFF4BFFF40
FFFFF4BFFF80
FFFFF4BFFFC0
FFFFF4BFFFC0
FFFFF4BFFFC0
FFFFF4BFFFC0
FFFFF4BFFFC0
FFFFF4BFFFC0
FFFFF4BFFFC0
FFFFF4BFFFC0
FFF55015BFC0
FFF40000BFC0
FFFFFFFFFFC0
FFFFFFFFFFC0
FFFFFFFFFF80
BFFFFFFFFF40
7FFFFFFFFF00
1FFFFFFFFD00
07FFFFFFF400
006FFFFE4000
ENDCHAR
STARTCHAR Iogonek
ENCODING 302
SWIDTH 578 0
DWIDTH 21 0
BBX 21 24 0 0
BITMAP
00AFFFFE4000
07FAAAAAB400
2FF40000BD00
7FFAA46AFF00
BFFFF4BFFF40
FFFFF4BFFF80
FFFFF4BFFFC0
FFFFF4BFFFC0
FFFFF4BFFFC0
FFFFF4BFFFC0
FFFFF4BFFFC0
FFFFF4BFFFC0
FFFFF4BFFFC0
FFFFF4BFFFC0
FFF55015BFC0
FFF40000BFC0
FFFFFFF4FFC0
FFFFFFD2FFC0
FFFFFF8BFF80
BFFFFF8BFF40
7FFFFFC0BF00
1FFFFFF5BD00
07FFFFFFF400
006FFFFE4000
ENDCHAR
STARTCHAR iogonek
ENCODING 303
SWIDTH 578 0
DWIDTH 21 0
BBX 21 24 0 0
BITMAP
00AFFFFE4000
07FAAAAAB400
2FF40000BD00
7FFAA46AFF00
BFFFF4BFFF40
FFFFF4BFFF80
FFFFF4BFFFC0
FFFFF4BFFFC0
FFFFF4BFFFC0
FFFFF4BFFFC0
FFFFF4BFFFC0
FFFFF4BFFFC0
FFFFF4BFFFC0
FFFFF4BFFFC0
FFF55015BFC0
FFF40000BFC0
FFFFFFF4FFC0
FFFFFFD2FFC0
FFFFFF8BFF80
BFFFFF8BFF40
7FFFFFC0BF00
1FFFFFF5BD00
07FFFFFFF400
006FFFFE4000
ENDCHAR
STARTCHAR Idotaccent
ENCODING 304
SWIDTH 578 0
DWIDTH 21 0
BBX 21 34 0 0
BITMAP
000055500000
000BFFFD0000
007FFFFF8000
01FFFFFFE000
02FFFFFFF400
03FFE5FFF400
03FFE0FFF800
03FFE5FFF400
02FFFFFFF000
00FFFFFFE000
00FFFFFFD000
07FAAAAAB400
2FF40000BD00
7FFAA46AFF00
BFFFF4BFFF40
FFFFF4BFFF80
FFFFF4BFFFC0
FFFFF4BFFFC0
FFFFF4BFFFC0
FFFFF4BFFFC0
FFFFF4BFFFC0
FFFFF4BFFFC0
FFFFF4BFFFC0
FFFFF4BFFFC0
FFF55015BFC0
FFF40000BFC0
FFFFFFFFFFC0
FFFFFFFFFFC0
FFFFFFFFFF80
BFFFFFFFFF40
7FFFFFFFFF00
1FFFFFFFFD00
07FFFFFFF400
006FFFFE4000
ENDCHAR
STARTCHAR dotlessi
ENCODING 305
SWIDTH 578 0
DWIDTH 21 0
BBX 21 24 0 0
BITMAP
00AFFFFE4000
07FAAAAAB400
2FF40000BD00
7FFAA46AFF00
BFFFF4BFFF40
FFFFF4BFFF80
FFFFF4BFFFC0
FFFFF4BFFFC0
FFFFF4BFFFC0
FFFFF4BFFFC0
FFFFF4BFFFC0
FFFFF4BFFFC0
FFFFF4BFFFC0
FFFFF4BFFFC0
FFF55015BFC0
FFF40000BFC0
FFFFFFFFFFC0
FFFFFFFFFFC0
FFFFFFFFFF80
BFFFFFFFFF40
7FFFFFFFFF00
1FFFFFFFFD00
07FFFFFFF400
006FFFFE4000
ENDCHAR
STARTCHAR IJ
ENCODING 306
SWIDTH 578 0
DWIDTH 21 0
BBX 21 24 0 0
BITMAP
00AFFFFE4000
06AAABFEA400
2D000BFE2D00
7EA1AFFE2F00
BFF1FFFE2F40
FFF1FFFE2F80
FFF1FFFE2FC0
FFF1FFFE2FC0
FFF1FFFE2FC0
FFF1FFFE2FC0
FFF1FFFE2FC0
FFF1FFFE2FC0
FFF1FFFE2FC0
FFF1FFFD2FC0
FD405A502FC0
FD000A00BFC0
FFFFFFFFFFC0
FFFFFFFFFFC0
FFFFFFFFFF80
BFFFFFFFFF40
7FFFFFFFFF00
1FFFFFFFFD00
07FFFFFFF400
006FFFFE4000
ENDCHAR
STARTCHAR ij
ENCODING 307
SWIDTH 578 0
DWIDTH 21 0
BBX 21 24 0 0
BITMAP
00AFFFFE4000
06AAABFEA400
2D000BFE2D00
7EA1AFFE2F00
BFF1FFFE2F40
FFF1FFFE2F80
FFF1FFFE2FC0
FFF1FFFE2FC0
FFF1FFFE2FC0
FFF1FFFE2FC0
FFF1FFFE2FC0
FFF1FFFE2FC0
FFF1FFFE2FC0
FFF1FFFD2FC0
FD405A502FC0
FD000A00BFC0
FFFFFFFFFFC0
FFFFFFFFFFC0
FFFFFFFFFF80
BFFFFFFFFF40
7FFFFFFFFF00
1FFFFFFFFD00
07FFFFFFF400
006FFFFE4000
ENDCHAR
STARTCHAR Jcircumflex
ENCODING 308
SWIDTH 578 0
DWIDTH 21 0
BBX 21 35 0 0
BITMAP
00006A900000
0001FFF40000
0002FFFC0000
0007FAFE0000
000BF0BF0000
000FE57F4000
002FDA3F8000
003F8F2FC000
007F5F5FD000
007FAFDFE000
007FFFFFD000
00BFFFFFD000
07FFFFBFF400
2FFFFF1FFD00
7FFFFF1FFF00
BFFFFF1FFF40
FFFFFF1FFF80
FFFFFF1FFFC0
FFFFFF1FFFC0
FFFFFF1FFFC0
FFFFFF1FFFC0
FFFFFF1FFFC0
FFFFFF1FFFC0
FFFFFF1FFFC0
FFFFFF1FFFC0
FFFF501FFFC0
FFFF007FFFC0
FFFFFFFFFFC0
FFFFFFFFFFC0
FFFFFFFFFF80
BFFFFFFFFF40
7FFFFFFFFF00
1FFFFFFFFD00
07FFFFFFF400
006FFFFE4000
ENDCHAR
STARTCHAR jcircumflex
ENCODING 309
SWIDTH 578 0
DWIDTH 21 0
BBX 21 35 0 0
BITMAP
00006A900000
0001FFF40000
0002FFFC0000
0007FAFE0000
000BF0BF0000
000FE57F4000
002FDA3F8000
003F8F2FC000
007F5F5FD000
007FAFDFE000
007FFFFFD000
00BFFFFFD000
07FFFFBFF400
2FFFFF1FFD00
7FFFFF1FFF00
BFFFFF1FFF40
FFFFFF1FFF80
FFFFFF1FFFC0
FFFFFF1FFFC0
FFFFFF1FFFC0
FFFFFF1FFFC0
FFFFFF1FFFC0
FFFFFF1FFFC0
FFFFFF1FFFC0
FFFFFF1FFFC0
FFFF501FFFC0
FFFF007FFFC0
FFFFFFFFFFC0
FFFFFFFFFFC0
FFFFFFFFFF80
BFFFFFFFFF40
7FFFFFFFFF00
1FFFFFFFFD00
07FFFFFFF400
006FFFFE4000
ENDCHAR
STARTCHAR Kcommaaccent
ENCODING 310
SWIDTH 578 0
DWIDTH 21 0
BBX 21 24 0 0
BITMAP
00AFFFFE4000
07FEBFFE7400
2FFD3FF82D00
7FFD3FE07F00
BFFD3F82FF40
FFFD3E0BFF80
FFFD382FFFC0
FFFD20BFFFC0
FFFD01FFFFC0
FFFD00BFFFC0
FFFD282FFFC0
FFFD3E0BFFC0
FFFD3F43FFC0
FFFD3FD0FFC0
FFFD3FF47FC0
FFFD3FFC7FC0
FFFFFFFFFFC0
FFFFF5BFFFC0
FFFFF07FFF80
BFFFF47FFF40
7FFFFCBFFF00
1FFFF9FFFD00
07FFFFFFF400
006FFFFE4000
ENDCHAR
STARTCHAR kcommaaccent
ENCODING 311
SWIDTH 578 0
DWIDTH 21 0
BBX 21 24 0 0
BITMAP
00AFFFFE4000
07FEBFFE7400
2FFD3FF82D00
7FFD3FE07F00
BFFD3F82FF40
FFFD3E0BFF80
FFFD382FFFC0
FFFD20BFFFC0
FFFD01FFFFC0
FFFD00BFFFC0
FFFD282FFFC0
FFFD3E0BFFC0
FFFD3F43FFC0
FFFD3FD0FFC0
FFFD3FF47FC0
FFFD3FFC7FC0
FFFFFFFFFFC0
FFFFF5BFFFC0
FFFFF07FFF80
BFFFF47FFF40
7FFFFCBFFF00
1FFFF9FFFD00
07FFFFFFF400
006FFFFE4000
ENDCHAR
STARTCHAR kgreenlandic
ENCODING 312
SWIDTH 578 0
DWIDTH 21 0
BBX 21 24 0 0
BITMAP
00AFFFFE4000
07FEBFFE7400
2FFD3FF82D00
7FFD3FE07F00
BFFD3F82FF40
FFFD3E0BFF80
FFFD382FFFC0
FFFD20BFFFC0
FFFD01FFFFC0
FFFD00BFFFC0
FFFD282FFFC0
FFFD3E0BFFC0
FFFD3F43FFC0
FFFD3FD0FFC0
FFFD3FF47FC0
FFFD3FFC7FC0
FFFFFFFFFFC0
FFFFFFFFFFC0
FFFFFFFFFF80
BFFFFFFFFF40
7FFFFFFFFF00
1FFFFFFFFD00
07FFFFFFF400
006FFFFE4000
ENDCHAR
STARTCHAR Lacute
ENCODING 313
SWIDTH 578 0
DWIDTH 21 0
BBX 21 35 0 0
BITMAP
0001BFE00000
0003FFFD0000
000BFFFE0000
000FF0FF0000
001FE2FE0000
002FD3FD0000
002FC7F80000
003F8FF40000
007F9FE00000
003FFFC00000
001FFF800000
00AFFFFE4000
07FFAFFFF400
2FFF1FFFFD00
7FFF1FFFFF00
BFFF1FFFFF40
FFFF1FFFFF80
FFFF1FFFFFC0
FFFF1FFFFFC0
FFFF1FFFFFC0
FFFF1FFFFFC0
FFFF1FFFFFC0
FFFF1FFFFFC0
FFFF1FFFFFC0
FFFF1FFFFFC0
FFFF0557FFC0
FFFF0003FFC0
FFFFFFFFFFC0
FFFFFFFFFFC0
FFFFFFFFFF80
BFFFFFFFFF40
7FFFFFFFFF00
1FFFFFFFFD00
07FFFFFFF400
006FFFFE4000
ENDCHAR
STARTCHAR lacute
ENCODING 314
SWIDTH 578 0
DWIDTH 21 0
BBX 21 35 0 0
BITMAP
0001BFE00000
0003FFFD0000
000BFFFE0000
000FF0FF0000
001FE2FE0000
002FD3FD0000
002FC7F80000
003F8FF40000
007F9FE00000
003FFFC00000
001FFF800000
00AFFFFE4000
07FFAFFFF400
2FFF1FFFFD00
7FFF1FFFFF00
BFFF1FFFFF40
FFFF1FFFFF80
FFFF1FFFFFC0
FFFF1FFFFFC0
FFFF1FFFFFC0
FFFF1FFFFFC0
FFFF1FFFFFC0
FFFF1FFFFFC0
FFFF1FFFFFC0
FFFF1FFFFFC0
FFFF0557FFC0
FFFF0003FFC0
FFFFFFFFFFC0
FFFFFFFFFFC0
FFFFFFFFFF80
BFFFFFFFFF40
7FFFFFFFFF00
1FFFFFFFFD00
07FFFFFFF400
006FFFFE4000
ENDCHAR
STARTCHAR Lcommaaccent
ENCODING 315
SWIDTH 578 0
DWIDTH 21 0
BBX 21 24 0 0
BITMAP
00AFFFFE4000
07FFAFFFF400
2FFF1FFFFD00
7FFF1FFFFF00
BFFF1FFFFF40
FFFF1FFFFF80
FFFF1FFFFFC0
FFFF1FFFFFC0
FFFF1FFFFFC0
FFFF1FFFFFC0
FFFF1FFFFFC0
FFFF1FFFFFC0
FFFF1FFFFFC0
FFFF1FFFFFC0
FFFF0557FFC0
FFFF0003FFC0
FFFFFFFFFFC0
FFFFF5BFFFC0
FFFFF07FFF80
BFFFF47FFF40
7FFFFCBFFF00
1FFFF9FFFD00
07FFFFFFF400
006FFFFE4000
ENDCHAR
STARTCHAR lcommaaccent
ENCODING 316
SWIDTH 578 0
DWIDTH 21 0
BBX 21 24 0 0
BITMAP
00AFFFFE4000
07FFAFFFF400
2FFF1FFFFD00
7FFF1FFFFF00
BFFF1FFFFF40
FFFF1FFFFF80
FFFF1FFFFFC0
FFFF1FFFFFC0
FFFF1FFFFFC0
FFFF1FFFFFC0
FFFF1FFFFFC0
FFFF1FFFFFC0
FFFF1FFFFFC0
FFFF1FFFFFC0
FFFF0557FFC0
FFFF0003FFC0
FFFFFFFFFFC0
FFFFF5BFFFC0
FFFFF07FFF80
BFFFF47FFF40
7FFFFCBFFF00
1FFFF9FFFD00
07FFFFFFF400
006FFFFE4000
ENDCHAR
STARTCHAR Lcaron
ENCODING 317
SWIDTH 578 0
DWIDTH 21 0
BBX 21 24 0 0
BITMAP
00AFFFFE4000
07FFAFABF400
2FFF1F07FD00
7FFF1F47FF00
BFFF1FCBFF40
FFFF1F9FFF80
FFFF1FFFFFC0
FFFF1FFFFFC0
FFFF1FFFFFC0
FFFF1FFFFFC0
FFFF1FFFFFC0
FFFF1FFFFFC0
FFFF1FFFFFC0
FFFF1FFFFFC0
FFFF0557FFC0
FFFF0003FFC0
FFFFFFFFFFC0
FFFFFFFFFFC0
FFFFFFFFFF80
BFFFFFFFFF40
7FFFFFFFFF00
1FFFFFFFFD00
07FFFFFFF400
006FFFFE4000
ENDCHAR
STARTCHAR lcaron
ENCODING 318
SWIDTH 578 0
DWIDTH 21 0
BBX 21 24 0 0
BITMAP
00AFFFFE4000
07FFAFABF400
2FFF1F07FD00
7FFF1F47FF00
BFFF1FCBFF40
FFFF1F9FFF80
FFFF1FFFFFC0
FFFF1FFFFFC0
FFFF1FFFFFC0
FFFF1FFFFFC0
FFFF1FFFFFC0
FFFF1FFFFFC0
FFFF1FFFFFC0
FFFF1FFFFFC0
FFFF0557FFC0
FFFF0003FFC0
FFFFFFFFFFC0
FFFFFFFFFFC0
FFFFFFFFFF80
BFFFFFFFFF40
7FFFFFFFFF00
1FFFFFFFFD00
07FFFFFFF400
006FFFFE4000
ENDCHAR
STARTCHAR Ldot
ENCODING 319
SWIDTH 578 0
DWIDTH 21 0
BBX 21 24 0 0
BITMAP
00AFFFFE4000
07FFAFFFF400
2FFF1FFFFD00
7FFF1FFFFF00
BFFF1FFFFF40
FFFF1FFFFF80
FFFF1D1FFFC0
FFFF1D1FFFC0
FFFF1FBFFFC0
FFFF1FFFFFC0
FFFF1FFFFFC0
FFFF1FFFFFC0
FFFF1FFFFFC0
FFFF1FFFFFC0
FFFF0557FFC0
FFFF0003FFC0
FFFFFFFFFFC0
FFFFFFFFFFC0
FFFFFFFFFF80
BFFFFFFFFF40
7FFFFFFFFF00
1FFFFFFFFD00
07FFFFFFF400
006FFFFE4000
ENDCHAR
STARTCHAR ldot
ENCODING 320
SWIDTH 578 0
DWIDTH 21 0
BBX 21 24 0 0
BITMAP
00AFFFFE4000
07FFAFFFF400
2FFF1FFFFD00
7FFF1FFFFF00
BFFF1FFFFF40
FFFF1FFFFF80
FFFF1D1FFFC0
FFFF1D1FFFC0
FFFF1FBFFFC0
FFFF1FFFFFC0
FFFF1FFFFFC0
FFFF1FFFFFC0
FFFF1FFFFFC0
FFFF1FFFFFC0
FFFF0557FFC0
FFFF0003FFC0
FFFFFFFFFFC0
FFFFFFFFFFC0
FFFFFFFFFF80
BFFFFFFFFF40
7FFFFFFFFF00
1FFFFFFFFD00
07FFFFFFF400
006FFFFE4000
ENDCHAR
STARTCHAR Lslash
ENCODING 321
SWIDTH 578 0
DWIDTH 21 0
BBX 21 24 0 0
BITMAP
00AFFFFE4000
07FFAFFFF400
2FFF1FFFFD00
7FFF1FFFFF00
BFFF1FFFFF40
FFFF1FFFFF80
FFFF19FFFFC0
FFFF06FFFFC0
FFF91FFFFFC0
FFF11FFFFFC0
FFFF1FFFFFC0
FFFF1FFFFFC0
FFFF1FFFFFC0
FFFF1FFFFFC0
FFFF0557FFC0
FFFF0003FFC0
FFFFFFFFFFC0
FFFFFFFFFFC0
FFFFFFFFFF80
BFFFFFFFFF40
7FFFFFFFFF00
1FFFFFFFFD00
07FFFFFFF400
006FFFFE4000
ENDCHAR
STARTCHAR lslash
ENCODING 322
SWIDTH 578 0
DWIDTH 21 0
BBX 21 24 0 0
BITMAP
00AFFFFE4000
07FFAFFFF400
2FFF1FFFFD00
7FFF1FFFFF00
BFFF1FFFFF40
FFFF1FFFFF80
FFFF19FFFFC0
FFFF06FFFFC0
FFF91FFFFFC0
FFF11FFFFFC0
FFFF1FFFFFC0
FFFF1FFFFFC0
FFFF1FFFFFC0
FFFF1FFFFFC0
FFFF0557FFC0
FFFF0003FFC0
FFFFFFFFFFC0
FFFFFFFFFFC0
FFFFFFFFFF80
BFFFFFFFFF40
7FFFFFFFFF00
1FFFFFFFFD00
07FFFFFFF400
006FFFFE4000
ENDCHAR
STARTCHAR Nacute
ENCODING 323
SWIDTH 578 0
DWIDTH 21 0
BBX 21 35 0 0
BITMAP
00002FF90000
0000BFFF8000
0000FFFFD000
0001FD2FD000
0002FC3FD000
0003F87FC000
0007F4FF4000
000BF5FE0000
000BF7FD0000
000BFFF80000
0003FFF00000
00AFFFFE4000
07FAAAABF400
2FE00001FD00
7FE1AAA4BF00
BFE1FFF4BF40
FFE1FFF8BF80
FFE1FFF8BFC0
FFE1FFF8BFC0
FFE1FFF8BFC0
FFE1FFF8BFC0
FFE1FFF8BFC0
FFE1FFF8BFC0
FFE1FFF8BFC0
FFE1FFF8BFC0
FFE1FFF8BFC0
FFE1FFF8BFC0
FFFFFFFFFFC0
FFFFFFFFFFC0
FFFFFFFFFF80
BFFFFFFFFF40
7FFFFFFFFF00
1FFFFFFFFD00
07FFFFFFF400
006FFFFE4000
ENDCHAR
STARTCHAR nacute
ENCODING 324
SWIDTH 578 0
DWIDTH 21 0
BBX 21 35 0 0
BITMAP
00002FF90000
0000BFFF8000
0000FFFFD000
0001FD2FD000
0002FC3FD000
0003F87FC000
0007F4FF4000
000BF5FE0000
000BF7FD0000
000BFFF80000
0003FFF00000
00AFFFFE4000
07FAAAABF400
2FE00001FD00
7FE1AAA4BF00
BFE1FFF4BF40
FFE1FFF8BF80
FFE1FFF8BFC0
FFE1FFF8BFC0
FFE1FFF8BFC0
FFE1FFF8BFC0
FFE1FFF8BFC0
FFE1FFF8BFC0
FFE1FFF8BFC0
FFE1FFF8BFC0
FFE1FFF8BFC0
FFE1FFF8BFC0
FFFFFFFFFFC0
FFFFFFFFFFC0
FFFFFFFFFF80
BFFFFFFFFF40
7FFFFFFFFF00
1FFFFFFFFD00
07FFFFFFF400
006FFFFE4000
ENDCHAR
STARTCHAR Ncommaaccent
ENCODING 325
SWIDTH 578 0
DWIDTH 21 0
BBX 21 24 0 0
BITMAP
00AFFFFE4000
07FAAAABF400
2FE00001FD00
7FE1AAA4BF00
BFE1FFF4BF40
FFE1FFF8BF80
FFE1FFF8BFC0
FFE1FFF8BFC0
FFE1FFF8BFC0
FFE1FFF8BFC0
FFE1FFF8BFC0
FFE1FFF8BFC0
FFE1FFF8BFC0
FFE1FFF8BFC0
FFE1FFF8BFC0
FFE1FFF8BFC0
FFFFFFFFFFC0
FFFFF5BFFFC0
FFFFF07FFF80
BFFFF47FFF40
7FFFFCBFFF00
1FFFF9FFFD00
07FFFFFFF400
006FFFFE4000
ENDCHAR
STARTCHAR ncommaaccent
ENCODING 326
SWIDTH 578 0
DWIDTH 21 0
BBX 21 24 0 0
BITMAP
00AFFFFE4000
07FAAAABF400
2FE00001FD00
7FE1AAA4BF00
BFE1FFF4BF40
FFE1FFF8BF80
FFE1FFF8BFC0
FFE1FFF8BFC0
FFE1FFF8BFC0
FFE1FFF8BFC0
FFE1FFF8BFC0
FFE1FFF8BFC0
FFE1FFF8BFC0
FFE1FFF8BFC0
FFE1FFF8BFC0
FFE1FFF8BFC0
FFFFFFFFFFC0
FFFFF5BFFFC0
FFFFF07FFF80
BFFFF47FFF40
7FFFFCBFFF00
1FFFF9FFFD00
07FFFFFFF400
006FFFFE4000
ENDCHAR
STARTCHAR Ncaron
ENCODING 327
SWIDTH 578 0
DWIDTH 21 0
BBX 21 34 0 0
BITMAP
001A91A90000
007FFFFF4000
00FFFFFF8000
00FE7F6FC000
00FE3E3F8000
00BF2D7F8000
00BF9CBF4000
007FC8FF0000
003FD2FE0000
002FFBFD0000
00BFFFFF4000
07FFAAAFF400
2FE00001FD00
7FE1AAA4BF00
BFE1FFF4BF40
FFE1FFF8BF80
FFE1FFF8BFC0
FFE1FFF8BFC0
FFE1FFF8BFC0
FFE1FFF8BFC0
FFE1FFF8BFC0
FFE1FFF8BFC0
FFE1FFF8BFC0
FFE1FFF8BFC0
FFE1FFF8BFC0
FFE1FFF8BFC0
FFFFFFFFFFC0
FFFFFFFFFFC0
FFFFFFFFFF80
BFFFFFFFFF40
7FFFFFFFFF00
1FFFFFFFFD00
07FFFFFFF400
006FFFFE4000
ENDCHAR
STARTCHAR ncaron
ENCODING 328
SWIDTH 578 0
DWIDTH 21 0
BBX 21 34 0 0
BITMAP
001A91A90000
007FFFFF4000
00FFFFFF8000
00FE7F6FC000
00FE3E3F8000
00BF2D7F8000
00BF9CBF4000
007FC8FF0000
003FD2FE0000
002FFBFD0000
00BFFFFF4000
07FFAAAFF400
2FE00001FD00
7FE1AAA4BF00
BFE1FFF4BF40
FFE1FFF8BF80
FFE1FFF8BFC0
FFE1FFF8BFC0
FFE1FFF8BFC0
FFE1FFF8BFC0
FFE1FFF8BFC0
FFE1FFF8BFC0
FFE1FFF8BFC0
FFE1FFF8BFC0
FFE1FFF8BFC0
FFE1FFF8BFC0
FFFFFFFFFFC0
FFFFFFFFFFC0
FFFFFFFFFF80
BFFFFFFFFF40
7FFFFFFFFF00
1FFFFFFFFD00
07FFFFFFF400
006FFFFE4000
ENDCHAR
STARTCHAR napostrophe
ENCODING 329
SWIDTH 578 0
DWIDTH 21 0
BBX 21 24 0 0
BITMAP
00AFFFFE4000
07FAAAABF400
2FE00001FD00
70A1AAA4BF00
B0A1FFF4BF40
F8A1FFF8BF80
F8E1FFF8BFC0
FAE1FFF8BFC0
FFE1FFF8BFC0
FFE1FFF8BFC0
FFE1FFF8BFC0
FFE1FFF8BFC0
FFE1FFF8BFC0
FFE1FFF8BFC0
FFE1FFF8BFC0
FFE1FFF8BFC0
FFFFFFFFFFC0
FFFFFFFFFFC0
FFFFFFFFFF80
BFFFFFFFFF40
7FFFFFFFFF00
1FFFFFFFFD00
07FFFFFFF400
006FFFFE4000
ENDCHAR
STARTCHAR Eng
ENCODING 330
SWIDTH 578 0
DWIDTH 21 0
BBX 21 24 0 0
BITMAP
00AFFFFE4000
07FAAAABF400
2FE00001FD00
7FE1AAA4BF00
BFE1FFF4BF40
FFE1FFF8BF80
FFE1FFF8BFC0
FFE1FFF8BFC0
FFE1FFF8BFC0
FFE1FFF8BFC0
FFE1FFF8BFC0
FFE1FFF8BFC0
FFE1FFF8BFC0
FFE1FFF8BFC0
FFE1FFF8BFC0
FFE1FFF8BFC0
FFFFFFF8BFC0
FFFFFFF8BFC0
FFFFFFF4BF80
BFFFF950BF40
7FFFF801FF00
1FFFFEBFFD00
07FFFFFFF400
006FFFFE4000
ENDCHAR
STARTCHAR eng
ENCODING 331
SWIDTH 578 0
DWIDTH 21 0
BBX 21 24 0 0
BITMAP
00AFFFFE4000
07FAAAABF400
2FE00001FD00
7FE1AAA4BF00
BFE1FFF4BF40
FFE1FFF8BF80
FFE1FFF8BFC0
FFE1FFF8BFC0
FFE1FFF8BFC0
FFE1FFF8BFC0
FFE1FFF8BFC0
FFE1FFF8BFC0
FFE1FFF8BFC0
FFE1FFF8BFC0
FFE1FFF8BFC0
FFE1FFF8BFC0
FFFFFFF8BFC0
FFFFFFF8BFC0
FFFFFFF4BF80
BFFFF950BF40
7FFFF801FF00
1FFFFEBFFD00
07FFFFFFF400
006FFFFE4000
ENDCHAR
STARTCHAR Omacron
ENCODING 332
SWIDTH 578 0
DWIDTH 21 0
BBX 21 34 0 0
BITMAP
000055500000
0007FFFE0000
002FFFFFD000
00BFFFFFF000
01FFFFFFF800
02FE555FFC00
02FE000BFC00
01FFAAAFF800
00FFFFFFF400
007FFFFFE000
00BFFFFFC000
07FEAAABF400
2FF40000BD00
7FF0AAA47F00
BFE1FFFC7F40
FFE1FFFC7F80
FFE1FFFC7FC0
FFE1FFFC7FC0
FFE1FFFC7FC0
FFE1FFFC7FC0
FFE1FFFC7FC0
FFE1FFFC7FC0
FFE1FFFC7FC0
FFE1FFF87FC0
FFF01540BFC0
FFF80001FFC0
FFFFFFFFFFC0
FFFFFFFFFFC0
FFFFFFFFFF80
BFFFFFFFFF40
7FFFFFFFFF00
1FFFFFFFFD00
07FFFFFFF400
006FFFFE4000
ENDCHAR
STARTCHAR omacron
ENCODING 333
SWIDTH 578 0
DWIDTH 21 0
BBX 21 34 0 0
BITMAP
000055500000
0007FFFE0000
002FFFFFD000
00BFFFFFF000
01FFFFFFF800
02FE555FFC00
02FE000BFC00
01FFAAAFF800
00FFFFFFF400
007FFFFFE000
00BFFFFFC000
07FEAAABF400
2FF40000BD00
7FF0AAA47F00
BFE1FFFC7F40
FFE1FFFC7F80
FFE1FFFC7FC0
FFE1FFFC7FC0
FFE1FFFC7FC0
FFE1FFFC7FC0
FFE1FFFC7FC0
FFE1FFFC7FC0
FFE1FFFC7FC0
FFE1FFF87FC0
FFF01540BFC0
FFF80001FFC0
FFFFFFFFFFC0
FFFFFFFFFFC0
FFFFFFFFFF80
BFFFFFFFFF40
7FFFFFFFFF00
1FFFFFFFFD00
07FFFFFFF400
006FFFFE4000
ENDCHAR
STARTCHAR Obreve
ENCODING 334
SWIDTH 578 0
DWIDTH 21 0
BBX 21 34 0 0
BITMAP
000055500000
0007FFFE0000
002FFFFFD000
00BFFFFFF000
01FFFFFFF800
02FFBFEFFC00
02FF1F8BFC00
01FF400BF800
00FFD56FF400
007FFFFFE000
00BFFFFFC000
07FEAAABF400
2FF40000BD00
7FF0AAA47F00
BFE1FFFC7F40
FFE1FFFC7F80
FFE1FFFC7FC0
FFE1FFFC7FC0
FFE1FFFC7FC0
FFE1FFFC7FC0
FFE1FFFC7FC0
FFE1FFFC7FC0
FFE1FFFC7FC0
FFE1FFF87FC0
FFF01540BFC0
FFF80001FFC0
FFFFFFFFFFC0
FFFFFFFFFFC0
FFFFFFFFFF80
BFFFFFFFFF40
7FFFFFFFFF00
1FFFFFFFFD00
07FFFFFFF400
006FFFFE4000
ENDCHAR
STARTCHAR obreve
ENCODING 335
SWIDTH 578 0
DWIDTH 21 0
BBX 21 34 0 0
BITMAP
000055500000
0007FFFE0000
002FFFFFD000
00BFFFFFF000
01FFFFFFF800
02FFBFEFFC00
02FF1F8BFC00
01FF400BF800
00FFD56FF400
007FFFFFE000
00BFFFFFC000
07FEAAABF400
2FF40000BD00
7FF0AAA47F00
BFE1FFFC7F40
FFE1FFFC7F80
FFE1FFFC7FC0
FFE1FFFC7FC0
FFE1FFFC7FC0
FFE1FFFC7FC0
FFE1FFFC7FC0
FFE1FFFC7FC0
FFE1FFFC7FC0
FFE1FFF87FC0
FFF01540BFC0
FFF80001FFC0
FFFFFFFFFFC0
FFFFFFFFFFC0
FFFFFFFFFF80
BFFFFFFFFF40
7FFFFFFFFF00
1FFFFFFFFD00
07FFFFFFF400
006FFFFE4000
ENDCHAR
STARTCHAR Ohungarumlaut
ENCODING 336
SWIDTH 578 0
DWIDTH 21 0
BBX 21 35 0 0
BITMAP
000001515000
00000FFFF800
00002FFFFD00
00007FFFFE00
0000FF2F1F40
0001FD7D3F80
0003FCBCBF40
000BF5F5FE00
000FE7F3FC00
001FDBDBF400
001FFFFFE000
00BFFFFFC000
07FFEAAFF400
2FF40000BD00
7FF0AAA47F00
BFE1FFFC7F40
FFE1FFFC7F80
FFE1FFFC7FC0
FFE1FFFC7FC0
FFE1FFFC7FC0
FFE1FFFC7FC0
FFE1FFFC7FC0
FFE1FFFC7FC0
FFE1FFFC7FC0
FFE1FFF87FC0
FFF01540BFC0
FFF80001FFC0
FFFFFFFFFFC0
FFFFFFFFFFC0
FFFFFFFFFF80
BFFFFFFFFF40
7FFFFFFFFF00
1FFFFFFFFD00
07FFFFFFF400
006FFFFE4000
ENDCHAR
STARTCHAR ohungarumlaut
ENCODING 337
SWIDTH 578 0
DWIDTH 21 0
BBX 21 35 0 0
BITMAP
000001515000
00000FFFF800
00002FFFFD00
00007FFFFE00
0000FF2F1F40
0001FD7D3F80
0003FCBCBF40
000BF5F5FE00
000FE7F3FC00
001FDBDBF400
001FFFFFE000
00BFFFFFC000
07FFEAAFF400
2FF40000BD00
7FF0AAA47F00
BFE1FFFC7F40
FFE1FFFC7F80
FFE1FFFC7FC0
FFE1FFFC7FC0
FFE1FFFC7FC0
FFE1FFFC7FC0
FFE1FFFC7FC0
FFE1FFFC7FC0
FFE1FFFC7FC0
FFE1FFF87FC0
FFF01540BFC0
FFF80001FFC0
FFFFFFFFFFC0
FFFFFFFFFFC0
FFFFFFFFFF80
BFFFFFFFFF40
7FFFFFFFFF00
1FFFFFFFFD00
07FFFFFFF400
006FFFFE4000
ENDCHAR
STARTCHAR OE
ENCODING 338
SWIDTH 578 0
DWIDTH 21 0
BBX 21 24 0 0
BITMAP
00AFFFFE4000
07EAAAAAB400
2F8000003D00
7F0AA06ABF00
BF0FF4BFFF40
FF0FF4BFFF80
FF0FF4BFFFC0
FF0FF4BFFFC0
FF0FF400BFC0
FF0FF455BFC0
FF0FF4BFFFC0
FF0FF4BFFFC0
FF0FF4BFFFC0
FF0FF4BFFFC0
FF4040156FC0
FFD001002FC0
FFFFFFFFFFC0
FFFFFFFFFFC0
FFFFFFFFFF80
BFFFFFFFFF40
7FFFFFFFFF00
1FFFFFFFFD00
07FFFFFFF400
006FFFFE4000
ENDCHAR
STARTCHAR oe
ENCODING 339
SWIDTH 578 0
DWIDTH 21 0
BBX 21 24 0 0
BITMAP
00AFFFFE4000
07EAAAAAB400
2F8000003D00
7F0AA06ABF00
BF0FF4BFFF40
FF0FF4BFFF80
FF0FF4BFFFC0
FF0FF4BFFFC0
FF0FF400BFC0
FF0FF455BFC0
FF0FF4BFFFC0
FF0FF4BFFFC0
FF0FF4BFFFC0
FF0FF4BFFFC0
FF4040156FC0
FFD001002FC0
FFFFFFFFFFC0
FFFFFFFFFFC0
FFFFFFFFFF80
BFFFFFFFFF40
7FFFFFFFFF00
1FFFFFFFFD00
07FFFFFFF400
006FFFFE4000
ENDCHAR
STARTCHAR Racute
ENCODING 340
SWIDTH 578 0
DWIDTH 21 0
BBX 21 34 0 0
BITMAP
00002FF90000
0000BFFF8000
0000FFFFD000
0001FD2FD000
0002FC3FD000
0003F87FC000
0007F4FF4000
000BF5FE0000
000BF7FD0000
000BFFF80000
00AFFFFE4000
07FAFFFFF400
2FF00003FD00
7FF0AA91FF00
BFF0FFE1FF40
FFF0FFF1FF80
FFF0FFF1FFC0
FFF0FFE2FFC0
FFF05547FFC0
FFF0001BFFC0
FFF0AA92FFC0
FFF0FFF1FFC0
FFF0FFF0FFC0
FFF0FFF0FFC0
FFF0FFF0FFC0
FFF0FFF0FFC0
FFFFFFFFFFC0
FFFFFFFFFFC0
FFFFFFFFFF80
BFFFFFFFFF40
7FFFFFFFFF00
1FFFFFFFFD00
07FFFFFFF400
006FFFFE4000
ENDCHAR
STARTCHAR racute
ENCODING 341
SWIDTH 578 0
DWIDTH 21 0
BBX 21 34 0 0
BITMAP
00002FF90000
0000BFFF8000
0000FFFFD000
0001FD2FD000
0002FC3FD000
0003F87FC000
0007F4FF4000
000BF5FE0000
000BF7FD0000
000BFFF80000
00AFFFFE4000
07FAFFFFF400
2FF00003FD00
7FF0AA91FF00
BFF0FFE1FF40
FFF0FFF1FF80
FFF0FFF1FFC0
FFF0FFE2FFC0
FFF05547FFC0
FFF0001BFFC0
FFF0AA92FFC0
FFF0FFF1FFC0
FFF0FFF0FFC0
FFF0FFF0FFC0
FFF0FFF0FFC0
FFF0FFF0FFC0
FFFFFFFFFFC0
FFFFFFFFFFC0
FFFFFFFFFF80
BFFFFFFFFF40
7FFFFFFFFF00
1FFFFFFFFD00
07FFFFFFF400
006FFFFE4000
ENDCHAR
STARTCHAR Rcommaaccent
ENCODING 342
SWIDTH 578 0
DWIDTH 21 0
BBX 21 24 0 0
BITMAP
00AFFFFE4000
07FAAAAFF400
2FF00003FD00
7FF0AA91FF00
BFF0FFE1FF40
FFF0FFF1FF80
FFF0FFF1FFC0
FFF0FFE2FFC0
FFF05547FFC0
FFF0001BFFC0
FFF0AA92FFC0
FFF0FFF1FFC0
FFF0FFF0FFC0
FFF0FFF0FFC0
FFF0FFF0FFC0
FFF0FFF0FFC0
FFFFFFFFFFC0
FFFFF5BFFFC0
FFFFF07FFF80
BFFFF47FFF40
7FFFFCBFFF00
1FFFF9FFFD00
07FFFFFFF400
006FFFFE4000
ENDCHAR
STARTCHAR rcommaaccent
ENCODING 343
SWIDTH 578 0
DWIDTH 21 0
BBX 21 24 0 0
BITMAP
00AFFFFE4000
07FAAAAFF400
2FF00003FD00
7FF0AA91FF00
BFF0FFE1FF40
FFF0FFF1FF80
FFF0FFF1FFC0
FFF0FFE2FFC0
FFF05547FFC0
FFF0001BFFC0
FFF0AA92FFC0
FFF0FFF1FFC0
FFF0FFF0FFC0
FFF0FFF0FFC0
FFF0FFF0FFC0
FFF0FFF0FFC0
FFFFFFFFFFC0
FFFFF5BFFFC0
FFFFF07FFF80
BFFFF47FFF40
7FFFFCBFFF00
1FFFF9FFFD00
07FFFFFFF400
006FFFFE4000
ENDCHAR
STARTCHAR Rcaron
ENCODING 344
SWIDTH 578 0
DWIDTH 21 0
BBX 21 34 0 0
BITMAP
001A91A90000
007FFFFF4000
00FFFFFF8000
00FE7F6FC000
00FE3E3F8000
00BF2D7F8000
00BF9CBF4000
007FC8FF0000
003FD2FE0000
002FFBFD0000
00BFFFFF4000
07FAAABFF400
2FF00003FD00
7FF0AA91FF00
BFF0FFE1FF40
FFF0FFF1FF80
FFF0FFF1FFC0
FFF0FFE2FFC0
FFF05547FFC0
FFF0001BFFC0
FFF0AA92FFC0
FFF0FFF1FFC0
FFF0FFF0FFC0
FFF0FFF0FFC0
FFF0FFF0FFC0
FFF0FFF0FFC0
FFFFFFFFFFC0
FFFFFFFFFFC0
FFFFFFFFFF80
BFFFFFFFFF40
7FFFFFFFFF00
1FFFFFFFFD00
07FFFFFFF400
006FFFFE4000
ENDCHAR
STARTCHAR rcaron
ENCODING 345
SWIDTH 578 0
DWIDTH 21 0
BBX 21 34 0 0
BITMAP
001A91A90000
007FFFFF4000
00FFFFFF8000
00FE7F6FC000
00FE3E3F8000
00BF2D7F8000
00BF9CBF4000
007FC8FF0000
003FD2FE0000
002FFBFD0000
00BFFFFF4000
07FAAABFF400
2FF00003FD00
7FF0AA91FF00
BFF0FFE1FF40
FFF0FFF1FF80
FFF0FFF1FFC0
FFF0FFE2FFC0
FFF05547FFC0
FFF0001BFFC0
FFF0AA92FFC0
FFF0FFF1FFC0
FFF0FFF0FFC0
FFF0FFF0FFC0
FFF0FFF0FFC0
FFF0FFF0FFC0
FFFFFFFFFFC0
FFFFFFFFFFC0
FFFFFFFFFF80
BFFFFFFFFF40
7FFFFFFFFF00
1FFFFFFFFD00
07FFFFFFF400
006FFFFE4000
ENDCHAR
STARTCHAR Sacute
ENCODING 346
SWIDTH 578 0
DWIDTH 21 0
BBX 21 34 0 0
BITMAP
00000BFE4000
00003FFFD000
00007FFFF000
0000BF0FF000
0000FE1FF000
0001FD2FE000
0002FD7FC000
0003FCBF4000
0003F9FF0000
0003FFFD0000
00AFFFFE4000
07FEFFFAF400
2FF80001FD00
7FF46AA6FF00
BFF0FFFFFF40
FFF0FFFFFF80
FFF0FFFFFFC0
FFF4AAAFFFC0
FFF80001FFC0
FFFE9550BFC0
FFFFFFF4BFC0
FFFFFFF8BFC0
FFFFFFF8BFC0
FFFFFFF4BFC0
FFFC1540BFC0
FFF80002FFC0
FFFFFFFFFFC0
FFFFFFFFFFC0
FFFFFFFFFF80
BFFFFFFFFF40
7FFFFFFFFF00
1FFFFFFFFD00
07FFFFFFF400
006FFFFE4000
ENDCHAR
STARTCHAR sacute
ENCODING 347
SWIDTH 578 0
DWIDTH 21 0
BBX 21 34 0 0
BITMAP
00000BFE4000
00003FFFD000
00007FFFF000
0000BF0FF000
0000FE1FF000
0001FD2FE000
0002FD7FC000
0003FCBF4000
0003F9FF0000
0003FFFD0000
00AFFFFE4000
07FEFFFAF400
2FF80001FD00
7FF46AA6FF00
BFF0FFFFFF40
FFF0FFFFFF80
FFF0FFFFFFC0
FFF4AAAFFFC0
FFF80001FFC0
FFFE9550BFC0
FFFFFFF4BFC0
FFFFFFF8BFC0
FFFFFFF8BFC0
FFFFFFF4BFC0
FFFC1540BFC0
FFF80002FFC0
FFFFFFFFFFC0
FFFFFFFFFFC0
FFFFFFFFFF80
BFFFFFFFFF40
7FFFFFFFFF00
1FFFFFFFFD00
07FFFFFFF400
006FFFFE4000
ENDCHAR
STARTCHAR Scircumflex
ENCODING 348
SWIDTH 578 0
DWIDTH 21 0
BBX 21 35 0 0
BITMAP
00002A900000
0000FFF80000
0001FFFD0000
0003FAFE0000
0007F47F4000
000BF23F8000
001FE72FC000
002FCB5FD000
003F8F8FE000
003FAFDBF000
003FFFFFE000
00BFFFFFD000
07FFEAAFF400
2FF80001FD00
7FF46AA6FF00
BFF0FFFFFF40
FFF0FFFFFF80
FFF0FFFFFFC0
FFF4AAAFFFC0
FFF80001FFC0
FFFE9550BFC0
FFFFFFF4BFC0
FFFFFFF8BFC0
FFFFFFF8BFC0
FFFFFFF4BFC0
FFFC1540BFC0
FFF80002FFC0
FFFFFFFFFFC0
FFFFFFFFFFC0
FFFFFFFFFF80
BFFFFFFFFF40
7FFFFFFFFF00
1FFFFFFFFD00
07FFFFFFF400
006FFFFE4000
ENDCHAR
STARTCHAR scircumflex
ENCODING 349
SWIDTH 578 0
DWIDTH 21 0
BBX 21 35 0 0
BITMAP
00002A900000
0000FFF80000
0001FFFD0000
0003FAFE0000
0007F47F4000
000BF23F8000
001FE72FC000
002FCB5FD000
003F8F8FE000
003FAFDBF000
003FFFFFE000
00BFFFFFD000
07FFEAAFF400
2FF80001FD00
7FF46AA6FF00
BFF0FFFFFF40
FFF0FFFFFF80
FFF0FFFFFFC0
FFF4AAAFFFC0
FFF80001FFC0
FFFE9550BFC0
FFFFFFF4BFC0
FFFFFFF8BFC0
FFFFFFF8BFC0
FFFFFFF4BFC0
FFFC1540BFC0
FFF80002FFC0
FFFFFFFFFFC0
FFFFFFFFFFC0
FFFFFFFFFF80
BFFFFFFFFF40
7FFFFFFFFF00
1FFFFFFFFD00
07FFFFFFF400
006FFFFE4000
ENDCHAR
STARTCHAR Scedilla
ENCODING 350
SWIDTH 578 0
DWIDTH 21 0
BBX 21 24 0 0
BITMAP
00AFFFFE4000
07FEAAAAF400
2FF80001FD00
7FF46AA6FF00
BFF0FFFFFF40
FFF0FFFFFF80
FFF0FFFFFFC0
FFF4AAAFFFC0
FFF80001FFC0
FFFE9550BFC0
FFFFFFF4BFC0
FFFFFFF8BFC0
FFFFFFF8BFC0
FFFFFFF4BFC0
FFFC1540BFC0
FFF80002FFC0
FFFFE8BFFFC0
FFFFC0BFFFC0
FFFF8BFFFF80
BFFF8BFFFF40
7FFF80BFFF00
1FFFE5FFFD00
07FFFFFFF400
006FFFFE4000
ENDCHAR
STARTCHAR scedilla
ENCODING 351
SWIDTH 578 0
DWIDTH 21 0
BBX 21 24 0 0
BITMAP
00AFFFFE4000
07FEAAAAF400
2FF80001FD00
7FF46AA6FF00
BFF0FFFFFF40
FFF0FFFFFF80
FFF0FFFFFFC0
FFF4AAAFFFC0
FFF80001FFC0
FFFE9550BFC0
FFFFFFF4BFC0
FFFFFFF8BFC0
FFFFFFF8BFC0
FFFFFFF4BFC0
FFFC1540BFC0
FFF80002FFC0
FFFFE8BFFFC0
FFFFC0BFFFC0
FFFF8BFFFF80
BFFF8BFFFF40
7FFF80BFFF00
1FFFE5FFFD00
07FFFFFFF400
006FFFFE4000
ENDCHAR
STARTCHAR Scaron
ENCODING 352
SWIDTH 578 0
DWIDTH 21 0
BBX 21 34 0 0
BITMAP
0002A86A4000
001FFFFFD000
002FFFFFF000
003F9FDBF000
002FCBCBF000
002FD79FE000
001FE36FE000
000FF23FD000
000BF47FC000
0007FEFF8000
00AFFFFF8000
07FFEAAFF400
2FF80001FD00
7FF46AA6FF00
BFF0FFFFFF40
FFF0FFFFFF80
FFF0FFFFFFC0
FFF4AAAFFFC0
FFF80001FFC0
FFFE9550BFC0
FFFFFFF4BFC0
FFFFFFF8BFC0
FFFFFFF8BFC0
FFFFFFF4BFC0
FFFC1540BFC0
FFF80002FFC0
FFFFFFFFFFC0
FFFFFFFFFFC0
FFFFFFFFFF80
BFFFFFFFFF40
7FFFFFFFFF00
1FFFFFFFFD00
07FFFFFFF400
006FFFFE4000
ENDCHAR
STARTCHAR scaron
ENCODING 353
SWIDTH 578 0
DWIDTH 21 0
BBX 21 34 0 0
BITMAP
0002A86A4000
001FFFFFD000
002FFFFFF000
003F9FDBF000
002FCBCBF000
002FD79FE000
001FE36FE000
000FF23FD000
000BF47FC000
0007FEFF8000
00AFFFFF8000
07FFEAAFF400
2FF80001FD00
7FF46AA6FF00
BFF0FFFFFF40
FFF0FFFFFF80
FFF0FFFFFFC0
FFF4AAAFFFC0
FFF80001FFC0
FFFE9550BFC0
FFFFFFF4BFC0
FFFFFFF8BFC0
FFFFFFF8BFC0
FFFFFFF4BFC0
FFFC1540BFC0
FFF80002FFC0
FFFFFFFFFFC0
FFFFFFFFFFC0
FFFFFFFFFF80
BFFFFFFFFF40
7FFFFFFFFF00
1FFFFFFFFD00
07FFFFFFF400
006FFFFE4000
ENDCHAR
STARTCHAR Tcommaaccent
ENCODING 354
SWIDTH 578 0
DWIDTH 21 0
BBX 21 24 0 0
BITMAP
00AFFFFE4000
07FAAAAAB400
2FF40000BD00
7FFAA46AFF00
BFFFF4BFFF40
FFFFF4BFFF80
FFFFF4BFFFC0
FFFFF4BFFFC0
FFFFF4BFFFC0
FFFFF4BFFFC0
FFFFF4BFFFC0
FFFFF4BFFFC0
FFFFF4BFFFC0
FFFFF4BFFFC0
FFFFF4BFFFC0
FFFFF4BFFFC0
FFFFFFFFFFC0
FFFFF5BFFFC0
FFFFF07FFF80
BFFFF47FFF40
7FFFFCBFFF00
1FFFF9FFFD00
07FFFFFFF400
006FFFFE4000
ENDCHAR
STARTCHAR tcommaaccent
ENCODING 355
SWIDTH 578 0
DWIDTH 21 0
BBX 21 24 0 0
BITMAP
00AFFFFE4000
07FAAAAAB400
2FF40000BD00
7FFAA46AFF00
BFFFF4BFFF40
FFFFF4BFFF80
FFFFF4BFFFC0
FFFFF4BFFFC0
FFFFF4BFFFC0
FFFFF4BFFFC0
FFFFF4BFFFC0
FFFFF4BFFFC0
FFFFF4BFFFC0
FFFFF4BFFFC0
FFFFF4BFFFC0
FFFFF4BFFFC0
FFFFFFFFFFC0
FFFFF5BFFFC0
FFFFF07FFF80
BFFFF47FFF40
7FFFFCBFFF00
1FFFF9FFFD00
07FFFFFFF400
006FFFFE4000
ENDCHAR
STARTCHAR Tcaron
ENCODING 356
SWIDTH 578 0
DWIDTH 21 0
BBX 21 34 0 0
BITMAP
0006A4AA0000
002FFFFFC000
007FFFFFD000
007F6F9FE000
007F5F5FD000
003FCF2FD000
003FDA3FC000
002FE57F8000
001FF0FF8000
000FFFFF4000
00AFFFFF4000
07FAAAAAB400
2FF40000BD00
7FFAA46AFF00
BFFFF4BFFF40
FFFFF4BFFF80
FFFFF4BFFFC0
FFFFF4BFFFC0
FFFFF4BFFFC0
FFFFF4BFFFC0
FFFFF4BFFFC0
FFFFF4BFFFC0
FFFFF4BFFFC0
FFFFF4BFFFC0
FFFFF4BFFFC0
FFFFF4BFFFC0
FFFFFFFFFFC0
FFFFFFFFFFC0
FFFFFFFFFF80
BFFFFFFFFF40
7FFFFFFFFF00
1FFFFFFFFD00
07FFFFFFF400
006FFFFE4000
ENDCHAR
STARTCHAR tcaron
ENCODING 357
SWIDTH 578 0
DWIDTH 21 0
BBX 21 24 0 0
BITMAP
00AFFFFE4000
07FAAAAAB400
2FF40000BD00
7FFAA46AFF00
BFFFF4B5BF40
FFFFF4A0BF80
FFFFF4A4BFC0
FFFFF4B8FFC0
FFFFF4B9FFC0
FFFFF4BFFFC0
FFFFF4BFFFC0
FFFFF4BFFFC0
FFFFF4BFFFC0
FFFFF4BFFFC0
FFFFF4BFFFC0
FFFFF4BFFFC0
FFFFFFFFFFC0
FFFFFFFFFFC0
FFFFFFFFFF80
BFFFFFFFFF40
7FFFFFFFFF00
1FFFFFFFFD00
07FFFFFFF400
006FFFFE4000
ENDCHAR
STARTCHAR Tbar
ENCODING 358
SWIDTH 578 0
DWIDTH 21 0
BBX 21 24 0 0
BITMAP
00AFFFFE4000
07FAAAAAB400
2FF40000BD00
7FFAA46AFF00
BFFFF4BFFF40
FFFFF4BFFF80
FFFFF4BFFFC0
FFFFF4BFFFC0
FFFF501BFFC0
FFFF0007FFC0
FFFFF4BFFFC0
FFFFF4BFFFC0
FFFFF4BFFFC0
FFFFF4BFFFC0
FFFFF4BFFFC0
FFFFF4BFFFC0
FFFFFFFFFFC0
FFFFFFFFFFC0
FFFFFFFFFF80
BFFFFFFFFF40
7FFFFFFFFF00
1FFFFFFFFD00
07FFFFFFF400
006FFFFE4000
ENDCHAR
STARTCHAR tbar
ENCODING 359
SWIDTH 578 0
DWIDTH 21 0
BBX 21 24 0 0
BITMAP
00AFFFFE4000
07FAAAAAB400
2FF40000BD00
7FFAA46AFF00
BFFFF4BFFF40
FFFFF4BFFF80
FFFFF4BFFFC0
FFFFF4BFFFC0
FFFF501BFFC0
FFFF0007FFC0
FFFFF4BFFFC0
FFFFF4BFFFC0
FFFFF4BFFFC0
FFFFF4BFFFC0
FFFFF4BFFFC0
FFFFF4BFFFC0
FFFFFFFFFFC0
FFFFFFFFFFC0
FFFFFFFFFF80
BFFFFFFFFF40
7FFFFFFFFF00
1FFFFFFFFD00
07FFFFFFF400
006FFFFE4000
ENDCHAR
STARTCHAR Utilde
ENCODING 360
SWIDTH 578 0
DWIDTH 21 0
BBX 21 35 0 0
BITMAP
00001A500000
0006FFFE0000
001FFFFFC000
007FFFFFF000
00FFFFFFF800
01FFFFFFFC00
01FFFFFFFC00
01FE5BD3FC00
01FD1043FC00
00FD7D4BF800
007FFFFFF000
00BFFFFFD000
07EAFFFEB400
2FE2FFF87D00
7FE2FFF87F00
BFE2FFF87F40
FFE2FFF87F80
FFE2FFF87FC0
FFE2FFF87FC0
FFE2FFF87FC0
FFE2FFF87FC0
FFE2FFF87FC0
FFE2FFF87FC0
FFE2FFF87FC0
FFE1FFF87FC0
FFF01540BFC0
FFF80001FFC0
FFFFFFFFFFC0
FFFFFFFFFFC0
FFFFFFFFFF80
BFFFFFFFFF40
7FFFFFFFFF00
1FFFFFFFFD00
07FFFFFFF400
006FFFFE4000
ENDCHAR
STARTCHAR utilde
ENCODING 361
SWIDTH 578 0
DWIDTH 21 0
BBX 21 35 0 0
BITMAP
00001A500000
0006FFFE0000
001FFFFFD000
007FFFFFF000
00FFFFFFF800
01FFFFFFFC00
01FFFFFFFC00
01FE5BD3FC00
01FD1043FC00
00FD7D4BF800
007FFFFFF000
00BFFFFFD000
07EAFFFEB400
2FE2FFF87D00
7FE2FFF87F00
BFE2FFF87F40
FFE2FFF87F80
FFE2FFF87FC0
FFE2FFF87FC0
FFE2FFF87FC0
FFE2FFF87FC0
FFE2FFF87FC0
FFE2FFF87FC0
FFE2FFF87FC0
FFE1FFF87FC0
FFF01540BFC0
FFF80001FFC0
FFFFFFFFFFC0
FFFFFFFFFFC0
FFFFFFFFFF80
BFFFFFFFFF40
7FFFFFFFFF00
1FFFFFFFFD00
07FFFFFFF400
006FFFFE4000
ENDCHAR
STARTCHAR Umacron
ENCODING 362
SWIDTH 578 0
DWIDTH 21 0
BBX 21 34 0 0
BITMAP
000015500000
0006FFFE0000
002FFFFFD000
00BFFFFFF400
00FFFFFFF800
01FF555BFC00
01FE000BFC00
01FFAAAFFC00
00FFFFFFF400
007FFFFFE000
00BFFFFFC000
07EAFFFEB400
2FE2FFF87D00
7FE2FFF87F00
BFE2FFF87F40
FFE2FFF87F80
FFE2FFF87FC0
FFE2FFF87FC0
FFE2FFF87FC0
FFE2FFF87FC0
FFE2FFF87FC0
FFE2FFF87FC0
FFE2FFF87FC0
FFE1FFF87FC0
FFF01540BFC0
FFF80001FFC0
FFFFFFFFFFC0
FFFFFFFFFFC0
FFFFFFFFFF80
BFFFFFFFFF40
7FFFFFFFFF00
1FFFFFFFFD00
07FFFFFFF400
006FFFFE4000
ENDCHAR
STARTCHAR umacron
ENCODING 363
SWIDTH 578 0
DWIDTH 21 0
BBX 21 34 0 0
BITMAP
000015500000
0006FFFE0000
002FFFFFD000
00BFFFFFF400
00FFFFFFF800
01FF555BFC00
01FE000BFC00
01FFAAAFFC00
00FFFFFFF400
007FFFFFE000
00BFFFFFC000
07EAFFFEB400
2FE2FFF87D00
7FE2FFF87F00
BFE2FFF87F40
FFE2FFF87F80
FFE2FFF87FC0
FFE2FFF87FC0
FFE2FFF87FC0
FFE2FFF87FC0
FFE2FFF87FC0
FFE2FFF87FC0
FFE2FFF87FC0
FFE1FFF87FC0
FFF01540BFC0
FFF80001FFC0
FFFFFFFFFFC0
FFFFFFFFFFC0
FFFFFFFFFF80
BFFFFFFFFF40
7FFFFFFFFF00
1FFFFFFFFD00
07FFFFFFF400
006FFFFE4000
ENDCHAR
STARTCHAR Ubreve
ENCODING 364
SWIDTH 578 0
DWIDTH 21 0
BBX 21 34 0 0
BITMAP
000015500000
0006FFFE0000
002FFFFFD000
00BFFFFFF400
00FFFFFFF800
01FFAFEFFC00
01FF5FCBFC00
01FF400BFC00
00FFE56FF400
007FFFFFE000
00BFFFFFC000
07EAFFFEB400
2FE2FFF87D00
7FE2FFF87F00
BFE2FFF87F40
FFE2FFF87F80
FFE2FFF87FC0
FFE2FFF87FC0
FFE2FFF87FC0
FFE2FFF87FC0
FFE2FFF87FC0
FFE2FFF87FC0
FFE2FFF87FC0
FFE1FFF87FC0
FFF01540BFC0
FFF80001FFC0
FFFFFFFFFFC0
FFFFFFFFFFC0
FFFFFFFFFF80
BFFFFFFFFF40
7FFFFFFFFF00
1FFFFFFFFD00
07FFFFFFF400
006FFFFE4000
ENDCHAR
STARTCHAR ubreve
ENCODING 365
SWIDTH 578 0
DWIDTH 21 0
BBX 21 34 0 0
BITMAP
000015500000
0006FFFE4000
002FFFFFD000
00BFFFFFF400
00FFFFFFF800
01FFAFEFFC00
01FF4FC7FC00
01FF400BFC00
00FFE56FF800
007FFFFFE000
00BFFFFFC000
07EAFFFEB400
2FE2FFF87D00
7FE2FFF87F00
BFE2FFF87F40
FFE2FFF87F80
FFE2FFF87FC0
FFE2FFF87FC0
FFE2FFF87FC0
FFE2FFF87FC0
FFE2FFF87FC0
FFE2FFF87FC0
FFE2FFF87FC0
FFE1FFF87FC0
FFF01540BFC0
FFF80001FFC0
FFFFFFFFFFC0
FFFFFFFFFFC0
FFFFFFFFFF80
BFFFFFFFFF40
7FFFFFFFFF00
1FFFFFFFFD00
07FFFFFFF400
006FFFFE4000
ENDCHAR
STARTCHAR Uring
ENCODING 366
SWIDTH 578 0
DWIDTH 21 0
BBX 21 34 0 0
BITMAP
0001BFE40000
0007FFFE0000
001FFFFF8000
003FD06FC000
007F5A4FE000
007F2F8FE000
00BF1F8FE000
007F451FE000
007FE5BFE000
003FFFFFD000
00BFFFFFC000
07EAFFFEB400
2FE2FFF87D00
7FE2FFF87F00
BFE2FFF87F40
FFE2FFF87F80
FFE2FFF87FC0
FFE2FFF87FC0
FFE2FFF87FC0
FFE2FFF87FC0
FFE2FFF87FC0
FFE2FFF87FC0
FFE2FFF87FC0
FFE1FFF87FC0
FFF01540BFC0
FFF80001FFC0
FFFFFFFFFFC0
FFFFFFFFFFC0
FFFFFFFFFF80
BFFFFFFFFF40
7FFFFFFFFF00
1FFFFFFFFD00
07FFFFFFF400
006FFFFE4000
ENDCHAR
STARTCHAR uring
ENCODING 367
SWIDTH 578 0
DWIDTH 21 0
BBX 21 35 0 0
BITMAP
000001000000
0001BFE40000
0007FFFE0000
001FFFFF8000
003FD02FD000
007F5A4FE000
007F1F8FE000
00BF5F8FF000
007F450FE000
007FE57FE000
003FFFFFD000
00BFFFFFC000
07EAFFFEB400
2FE2FFF87D00
7FE2FFF87F00
BFE2FFF87F40
FFE2FFF87F80
FFE2FFF87FC0
FFE2FFF87FC0
FFE2FFF87FC0
FFE2FFF87FC0
FFE2FFF87FC0
FFE2FFF87FC0
FFE2FFF87FC0
FFE1FFF87FC0
FFF01540BFC0
FFF80001FFC0
FFFFFFFFFFC0
FFFFFFFFFFC0
FFFFFFFFFF80
BFFFFFFFFF40
7FFFFFFFFF00
1FFFFFFFFD00
07FFFFFFF400
006FFFFE4000
ENDCHAR
STARTCHAR Uhungarumlaut
ENCODING 368
SWIDTH 581 0
DWIDTH 21 0
BBX 21 35 0 0
BITMAP
000001515000
00000BFFF800
00002FFFFD00
00007FFFFE00
0000FF1F1F40
0001FD3E3F80
0003FCBCBF40
0007F5F5FE00
000FF3F3FC00
001FDBDBF400
001FFFFFE000
00BFFFFFD000
07EBFFFEF400
2FE2FFF87D00
7FE2FFF87F00
BFE2FFF87F40
FFE2FFF87F80
FFE2FFF87FC0
FFE2FFF87FC0
FFE2FFF87FC0
FFE2FFF87FC0
FFE2FFF87FC0
FFE2FFF87FC0
FFE2FFF87FC0
FFE1FFF87FC0
FFF01540BFC0
FFF80001FFC0
FFFFFFFFFFC0
FFFFFFFFFFC0
FFFFFFFFFF80
BFFFFFFFFF40
7FFFFFFFFF00
1FFFFFFFFD00
07FFFFFFF400
006FFFFE4000
ENDCHAR
STARTCHAR uhungarumlaut
ENCODING 369
SWIDTH 582 0
DWIDTH 21 0
BBX 21 35 0 0
BITMAP
000001515400
00000BFFF800
00002FFFFD00
00007FFFFF00
0000BF1F5F40
0001FE3E3FC0
0003FCBCBF40
0007F5F9FE00
000FF3F3FD00
001FDBEBF400
000FFFFFE000
00AFFFFFD000
07EBFFFEF400
2FE2FFF87D00
7FE2FFF87F00
BFE2FFF87F40
FFE2FFF87F80
FFE2FFF87FC0
FFE2FFF87FC0
FFE2FFF87FC0
FFE2FFF87FC0
FFE2FFF87FC0
FFE2FFF87FC0
FFE2FFF87FC0
FFE1FFF87FC0
FFF01540BFC0
FFF80001FFC0
FFFFFFFFFFC0
FFFFFFFFFFC0
FFFFFFFFFF80
BFFFFFFFFF40
7FFFFFFFFF00
1FFFFFFFFD00
07FFFFFFF400
006FFFFE4000
ENDCHAR
STARTCHAR Uogonek
ENCODING 370
SWIDTH 578 0
DWIDTH 21 0
BBX 21 24 0 0
BITMAP
00AFFFFE4000
07EAFFFEB400
2FE2FFF87D00
7FE2FFF87F00
BFE2FFF87F40
FFE2FFF87F80
FFE2FFF87FC0
FFE2FFF87FC0
FFE2FFF87FC0
FFE2FFF87FC0
FFE2FFF87FC0
FFE2FFF87FC0
FFE2FFF87FC0
FFE1FFF87FC0
FFF01540BFC0
FFF80001FFC0
FFFFFD7FFFC0
FFFFF0FFFFC0
FFFFE2FFFF80
BFFFE2FFFF40
7FFFF02FFF00
1FFFF96FFD00
07FFFFFFF400
006FFFFE4000
ENDCHAR
STARTCHAR uogonek
ENCODING 371
SWIDTH 578 0
DWIDTH 21 0
BBX 21 24 0 0
BITMAP
00AFFFFE4000
07EAFFFEB400
2FE2FFF87D00
7FE2FFF87F00
BFE2FFF87F40
FFE2FFF87F80
FFE2FFF87FC0
FFE2FFF87FC0
FFE2FFF87FC0
FFE2FFF87FC0
FFE2FFF87FC0
FFE2FFF87FC0
FFE2FFF87FC0
FFE1FFF87FC0
FFF01540BFC0
FFF80001FFC0
FFFFFD7FFFC0
FFFFF0FFFFC0
FFFFE2FFFF80
BFFFE2FFFF40
7FFFF02FFF00
1FFFF96FFD00
07FFFFFFF400
006FFFFE4000
ENDCHAR
STARTCHAR Wcircumflex
ENCODING 372
SWIDTH 578 0
DWIDTH 21 0
BBX 21 35 0 0
BITMAP
00006A800000
0002FFF00000
0003FFF80000
000BFAFD0000
000FE0FE0000
001FD8BF0000
003FCD7F4000
007F9E3F8000
00BF2F1FC000
00BF7FAFD000
00BFFFFFC000
00BFFFFFC000
07AFFFFFA400
2F0FF1FE1D00
7F0FE0FE1F00
BF0FE0FE1F40
FF4BD0BE2F80
FF4BD07D2FC0
FF4BC07D2FC0
FF87C43D3FC0
FF87893C3FC0
FF87892C3FC0
FFC74A2C3FC0
FFC34E1C7FC0
FFC30F187FC0
FFD01F00BFC0
FFF47F81FFC0
FFFFFFFFFFC0
FFFFFFFFFFC0
FFFFFFFFFF80
BFFFFFFFFF40
7FFFFFFFFF00
1FFFFFFFFD00
07FFFFFFF400
006FFFFE4000
ENDCHAR
STARTCHAR wcircumflex
ENCODING 373
SWIDTH 578 0
DWIDTH 21 0
BBX 21 35 0 0
BITMAP
00006A800000
0002FFF00000
0003FFF80000
000BFAFD0000
000FE0FE0000
001FD8BF0000
003FCD7F4000
007F9E3F8000
00BF2F1FC000
00BF7FAFD000
00BFFFFFC000
00BFFFFFC000
07AFFFFFA400
2F0FF1FE1D00
7F0FE0FE1F00
BF0FE0FE1F40
FF4BD0BE2F80
FF4BD07D2FC0
FF4BC07D2FC0
FF87C43D3FC0
FF87893C3FC0
FF87892C3FC0
FFC74A2C3FC0
FFC34E1C7FC0
FFC30F187FC0
FFD01F00BFC0
FFF47F81FFC0
FFFFFFFFFFC0
FFFFFFFFFFC0
FFFFFFFFFF80
BFFFFFFFFF40
7FFFFFFFFF00
1FFFFFFFFD00
07FFFFFFF400
006FFFFE4000
ENDCHAR
STARTCHAR Ycircumflex
ENCODING 374
SWIDTH 578 0
DWIDTH 21 0
BBX 21 35 0 0
BITMAP
00002A900000
0001FFF40000
0002FFFC0000
0007FAFE0000
000BF0BF0000
000FE67F4000
002FDB3F8000
003FCF2FC000
003F4F4FD000
007FAFDFE000
007FFFFFE000
00BFFFFFD000
07FAFFFEF400
2FF4BFF0BD00
7FF83FE1FF00
BFFC2FD2FF40
FFFE1F83FF80
FFFF0F4BFFC0
FFFF4B0FFFC0
FFFF821FFFC0
FFFFD02FFFC0
FFFFE07FFFC0
FFFFF0BFFFC0
FFFFF4FFFFC0
FFFFF4FFFFC0
FFFFF4FFFFC0
FFFFF4FFFFC0
FFFFFFFFFFC0
FFFFFFFFFFC0
FFFFFFFFFF80
BFFFFFFFFF40
7FFFFFFFFF00
1FFFFFFFFD00
07FFFFFFF400
006FFFFE4000
ENDCHAR
STARTCHAR ycircumflex
ENCODING 375
SWIDTH 578 0
DWIDTH 21 0
BBX 21 35 0 0
BITMAP
00002A900000
0001FFF40000
0002FFFC0000
0007FAFE0000
000BF0BF0000
000FE67F4000
002FDB3F8000
003FCF2FC000
003F4F4FD000
007FAFDFE000
007FFFFFE000
00BFFFFFD000
07FAFFFEF400
2FF4BFF0BD00
7FF83FE1FF00
BFFC2FD2FF40
FFFE1F83FF80
FFFF0F4BFFC0
FFFF4B0FFFC0
FFFF821FFFC0
FFFFD02FFFC0
FFFFE07FFFC0
FFFFF0BFFFC0
FFFFF4FFFFC0
FFFFF4FFFFC0
FFFFF4FFFFC0
FFFFF4FFFFC0
FFFFFFFFFFC0
FFFFFFFFFFC0
FFFFFFFFFF80
BFFFFFFFFF40
7FFFFFFFFF00
1FFFFFFFFD00
07FFFFFFF400
006FFFFE4000
ENDCHAR
STARTCHAR Ydieresis
ENCODING 376
SWIDTH 578 0
DWIDTH 21 0
BBX 21 33 0 0
BITMAP
000015400000
0002FFF90000
001FFFFF8000
003FFFFFE000
00BFFFFFF000
00BE0F4BF400
00BE0F47F400
00BFAFABF000
003FFFFFE000
00BFFFFFC000
07FAFFFEB400
2FF4BFF0BD00
7FF83FE1FF00
BFFC2FD2FF40
FFFE1F83FF80
FFFF0F4BFFC0
FFFF4B0FFFC0
FFFF821FFFC0
FFFFD02FFFC0
FFFFE07FFFC0
FFFFF0BFFFC0
FFFFF4FFFFC0
FFFFF4FFFFC0
FFFFF4FFFFC0
FFFFF4FFFFC0
FFFFFFFFFFC0
FFFFFFFFFFC0
FFFFFFFFFF80
BFFFFFFFFF40
7FFFFFFFFF00
1FFFFFFFFD00
07FFFFFFF400
006FFFFE4000
ENDCHAR
STARTCHAR Zacute
ENCODING 377
SWIDTH 578 0
DWIDTH 21 0
BBX 21 35 0 0
BITMAP
00006FE40000
0001FFFF0000
0003FFFF8000
0007F87F8000
0007F4BF8000
000BF1FF0000
000FE2FE0000
001FD7FC0000
001FDBF40000
001FFFE00000
000BFFD00000
00AFFFFE4000
07FEAAABF400
2FFC0003FD00
7FFEAA43FF00
BFFFFF4BFF40
FFFFFE1FFF80
FFFFFC2FFFC0
FFFFF87FFFC0
FFFFF0FFFFC0
FFFFD1FFFFC0
FFFFC3FFFFC0
FFFF4BFFFFC0
FFFE0FFFFFC0
FFFD2FFFFFC0
FFF81556FFC0
FFFC0001FFC0
FFFFFFFFFFC0
FFFFFFFFFFC0
FFFFFFFFFF80
BFFFFFFFFF40
7FFFFFFFFF00
1FFFFFFFFD00
07FFFFFFF400
006FFFFE4000
ENDCHAR
STARTCHAR zacute
ENCODING 378
SWIDTH 578 0
DWIDTH 21 0
BBX 21 35 0 0
BITMAP
00006FE40000
0001FFFF0000
0003FFFF8000
0007F87F8000
0007F4BF8000
000BF1FF0000
000FE2FE0000
001FD7FC0000
001FDBF40000
001FFFE00000
000BFFD00000
00AFFFFE4000
07FEAAABF400
2FFC0003FD00
7FFEAA43FF00
BFFFFF4BFF40
FFFFFE1FFF80
FFFFFC2FFFC0
FFFFF87FFFC0
FFFFF0FFFFC0
FFFFD1FFFFC0
FFFFC3FFFFC0
FFFF4BFFFFC0
FFFE0FFFFFC0
FFFD2FFFFFC0
FFF81556FFC0
FFFC0001FFC0
FFFFFFFFFFC0
FFFFFFFFFFC0
FFFFFFFFFF80
BFFFFFFFFF40
7FFFFFFFFF00
1FFFFFFFFD00
07FFFFFFF400
006FFFFE4000
ENDCHAR
STARTCHAR Zdotaccent
ENCODING 379
SWIDTH 578 0
DWIDTH 21 0
BBX 21 34 0 0
BITMAP
000055400000
001BFFF90000
00BFFFFF4000
02FFFFFFD000
03FFFFFFF000
07FFE6FFF000
07FFD2FFF000
07FFD6FFF000
03FFFFFFE000
02FFFFFFD000
00FFFFFFC000
07FEAAABF400
2FFC0003FD00
7FFEAA43FF00
BFFFFF4BFF40
FFFFFE1FFF80
FFFFFC2FFFC0
FFFFF87FFFC0
FFFFF0FFFFC0
FFFFD1FFFFC0
FFFFC3FFFFC0
FFFF4BFFFFC0
FFFE0FFFFFC0
FFFD2FFFFFC0
FFF81556FFC0
FFFC0001FFC0
FFFFFFFFFFC0
FFFFFFFFFFC0
FFFFFFFFFF80
BFFFFFFFFF40
7FFFFFFFFF00
1FFFFFFFFD00
07FFFFFFF400
006FFFFE4000
ENDCHAR
STARTCHAR zdotaccent
ENCODING 380
SWIDTH 578 0
DWIDTH 21 0
BBX 21 34 0 0
BITMAP
000055400000
001BFFF90000
00BFFFFF4000
02FFFFFFD000
03FFFFFFF000
07FFE6FFF000
07FFD2FFF000
07FFD6FFF000
03FFFFFFE000
02FFFFFFD000
00FFFFFFC000
07FEAAABF400
2FFC0003FD00
7FFEAA43FF00
BFFFFF4BFF40
FFFFFE1FFF80
FFFFFC2FFFC0
FFFFF87FFFC0
FFFFF0FFFFC0
FFFFD1FFFFC0
FFFFC3FFFFC0
FFFF4BFFFFC0
FFFE0FFFFFC0
FFFD2FFFFFC0
FFF81556FFC0
FFFC0001FFC0
FFFFFFFFFFC0
FFFFFFFFFFC0
FFFFFFFFFF80
BFFFFFFFFF40
7FFFFFFFFF00
1FFFFFFFFD00
07FFFFFFF400
006FFFFE4000
ENDCHAR
STARTCHAR Zcaron
ENCODING 381
SWIDTH 578 0
DWIDTH 21 0
BBX 21 34 0 0
BITMAP
000AA1A90000
003FFFFF4000
00BFFFFFC000
00BF7F6FC000
00BF2F2FC000
007F5E3FC000
007FCD7F8000
003FD8BF4000
002FE1FF0000
001FFBFE0000
00BFFFFF4000
07FEAAAFF400
2FFC0003FD00
7FFEAA43FF00
BFFFFF4BFF40
FFFFFE1FFF80
FFFFFC2FFFC0
FFFFF87FFFC0
FFFFF0FFFFC0
FFFFD1FFFFC0
FFFFC3FFFFC0
FFFF4BFFFFC0
FFFE0FFFFFC0
FFFD2FFFFFC0
FFF81556FFC0
FFFC0001FFC0
FFFFFFFFFFC0
FFFFFFFFFFC0
FFFFFFFFFF80
BFFFFFFFFF40
7FFFFFFFFF00
1FFFFFFFFD00
07FFFFFFF400
006FFFFE4000
ENDCHAR
STARTCHAR zcaron
ENCODING 382
SWIDTH 578 0
DWIDTH 21 0
BBX 21 34 0 0
BITMAP
000AA1A90000
003FFFFF4000
00BFFFFFC000
00BF7F6FC000
00BF2F2FC000
007F5E3FC000
007FCD7F8000
003FD8BF4000
002FE1FF0000
001FFBFE0000
00BFFFFF4000
07FEAAAFF400
2FFC0003FD00
7FFEAA43FF00
BFFFFF4BFF40
FFFFFE1FFF80
FFFFFC2FFFC0
FFFFF87FFFC0
FFFFF0FFFFC0
FFFFD1FFFFC0
FFFFC3FFFFC0
FFFF4BFFFFC0
FFFE0FFFFFC0
FFFD2FFFFFC0
FFF81556FFC0
FFFC0001FFC0
FFFFFFFFFFC0
FFFFFFFFFFC0
FFFFFFFFFF80
BFFFFFFFFF40
7FFFFFFFFF00
1FFFFFFFFD00
07FFFFFFF400
006FFFFE4000
ENDCHAR
STARTCHAR longs
ENCODING 383
SWIDTH 578 0
DWIDTH 21 0
BBX 21 24 0 0
BITMAP
00AFFFFE4000
07FFFFFFF400
2FFFE5BFFD00
7FFE050BFF00
BFF87FD2FF40
FFF2FFF4FF80
FFE3FFFCBFC0
FFD7FFFCBFC0
FFD7F5FCBFC0
FFE3F5FCBFC0
FFF2F5F4FFC0
FFF8B5E2FFC0
FFFE75DBFFC0
FFFFF5FFFFC0
FFFFF6FFFFC0
FFFFFFFFFFC0
FFFFFFFFFFC0
FFFFFFFFFFC0
FFFFFFFFFF80
BFFFFFFFFF40
7FFFFFFFFF00
1FFFFFFFFD00
07FFFFFFF400
006FFFFE4000
ENDCHAR
STARTCHAR florin
ENCODING 402
SWIDTH 578 0
DWIDTH 21 0
BBX 21 24 0 0
BITMAP
00AFFFFE4000
07FFFAAFF400
2FFFE00FFD00
7FFFC6AFFF00
BFFF87FFFF40
FFFF87FFFF80
FFFF87FFFFC0
FFFF87FFFFC0
FFFC003FFFC0
FFFE46BFFFC0
FFFF87FFFFC0
FFFF87FFFFC0
FFFF87FFFFC0
FFFF87FFFFC0
FFFF87FFFFC0
FFFF87FFFFC0
FFFF87FFFFC0
FFFE87FFFFC0
FFF41FFFFF80
BFFABFFFFF40
7FFFFFFFFF00
1FFFFFFFFD00
07FFFFFFF400
006FFFFE4000
ENDCHAR
STARTCHAR uni01CD
ENCODING 461
SWIDTH 578 0
DWIDTH 21 0
BBX 21 34 0 0
BITMAP
0006A4AA0000
002FFFFF8000
007FFFFFD000
007F6F9FD000
007F5F5FD000
007F8F2FD000
003FDA3FC000
002FE5BF8000
001FF0FF4000
000FFFFF0000
00AFFFFF4000
07FFFAFFF400
2FFC0007FD00
7FF86A92FF00
BFF4BFE1FF40
FFF4BFE1FF80
FFF4FFE1FFC0
FFF0FFF1FFC0
FFF0FFF0FFC0
FFF00000FFC0
FFE05550FFC0
FFE1FFF4BFC0
FFE1FFF4BFC0
FFD2FFF8BFC0
FFD2FFF87FC0
FFD2FFF87FC0
FFFFFFFFFFC0
FFFFFFFFFFC0
FFFFFFFFFF80
BFFFFFFFFF40
7FFFFFFFFF00
1FFFFFFFFD00
07FFFFFFF400
006FFFFE4000
ENDCHAR
STARTCHAR uni01CE
ENCODING 462
SWIDTH 578 0
DWIDTH 21 0
BBX 21 34 0 0
BITMAP
0006A46A4000
001FFFFFC000
003FFFFFE000
003F9FDBE000
003F8F8FE000
003FCB5FE000
002FD72FD000
001FF27FC000
000FF4BF8000
000BFEFF4000
00AFFFFF8000
07FBAABFF400
2FF40007FD00
7FFAAA92FF00
BFFFFFE2FF40
FFFFFFE2FF80
FFFFFFE2FFC0
FFFFFFE2FFC0
FFFA5552FFC0
FFE00002FFC0
FFD2AA92FFC0
FFD3FFE2FFC0
FFD3FFE2FFC0
FFD2FFE2FFC0
FFD01502FFC0
FFF40002FFC0
FFFFFFFFFFC0
FFFFFFFFFFC0
FFFFFFFFFF80
BFFFFFFFFF40
7FFFFFFFFF00
1FFFFFFFFD00
07FFFFFFF400
006FFFFE4000
ENDCHAR
STARTCHAR uni01CF
ENCODING 463
SWIDTH 578 0
DWIDTH 21 0
BBX 21 34 0 0
BITMAP
0002A46A4000
001FFFFFD000
002FFFFFE000
003F9FDBF000
003FCB8FF000
002FD75FE000
001FE32FE000
000FF23FD000
000FF47FC000
000BFEFF8000
00AFFFFF8000
07FAAAAAB400
2FF40000BD00
7FFAA46AFF00
BFFFF4BFFF40
FFFFF4BFFF80
FFFFF4BFFFC0
FFFFF4BFFFC0
FFFFF4BFFFC0
FFFFF4BFFFC0
FFFFF4BFFFC0
FFFFF4BFFFC0
FFFFF4BFFFC0
FFFFF4BFFFC0
FFF55015BFC0
FFF40000BFC0
FFFFFFFFFFC0
FFFFFFFFFFC0
FFFFFFFFFF80
BFFFFFFFFF40
7FFFFFFFFF00
1FFFFFFFFD00
07FFFFFFF400
006FFFFE4000
ENDCHAR
STARTCHAR uni01D0
ENCODING 464
SWIDTH 578 0
DWIDTH 21 0
BBX 21 34 0 0
BITMAP
0006A46A4000
001FFFFFD000
003FFFFFE000
003F9FDBF000
003F8F8FF000
002FDB5FE000
002FE72FD000
001FF23FD000
000FF47FC000
000BFEFF8000
00AFFFFF8000
07FAAAAAB400
2FF40000BD00
7FFAA46AFF00
BFFFF4BFFF40
FFFFF4BFFF80
FFFFF4BFFFC0
FFFFF4BFFFC0
FFFFF4BFFFC0
FFFFF4BFFFC0
FFFFF4BFFFC0
FFFFF4BFFFC0
FFFFF4BFFFC0
FFFFF4BFFFC0
FFF55015BFC0
FFF40000BFC0
FFFFFFFFFFC0
FFFFFFFFFFC0
FFFFFFFFFF80
BFFFFFFFFF40
7FFFFFFFFF00
1FFFFFFFFD00
07FFFFFFF400
006FFFFE4000
ENDCHAR
STARTCHAR uni01D1
ENCODING 465
SWIDTH 578 0
DWIDTH 21 0
BBX 21 34 0 0
BITMAP
0006A46A0000
001FFFFFC000
003FFFFFE000
007FAFDFE000
003F8F8FE000
003FCB5FE000
002FD73FD000
001FE27FC000
000FF4BF8000
000BFEFF4000
00AFFFFF8000
07FFEAAFF400
2FF40000BD00
7FF0AAA47F00
BFE1FFFC7F40
FFE1FFFC7F80
FFE1FFFC7FC0
FFE1FFFC7FC0
FFE1FFFC7FC0
FFE1FFFC7FC0
FFE1FFFC7FC0
FFE1FFFC7FC0
FFE1FFFC7FC0
FFE1FFF87FC0
FFF01540BFC0
FFF80001FFC0
FFFFFFFFFFC0
FFFFFFFFFFC0
FFFFFFFFFF80
BFFFFFFFFF40
7FFFFFFFFF00
1FFFFFFFFD00
07FFFFFFF400
006FFFFE4000
ENDCHAR
STARTCHAR uni01D3
ENCODING 467
SWIDTH 578 0
DWIDTH 21 0
BBX 21 34 0 0
BITMAP
0006A46A4000
001FFFFFD000
003FFFFFE000
003F9FDBE000
003F8F8FE000
002FCB5FE000
002FE72FD000
001FF23FC000
000FF4BF8000
000BFEFF4000
00AFFFFF8000
07EBFFFEB400
2FE2FFF87D00
7FE2FFF87F00
BFE2FFF87F40
FFE2FFF87F80
FFE2FFF87FC0
FFE2FFF87FC0
FFE2FFF87FC0
FFE2FFF87FC0
FFE2FFF87FC0
FFE2FFF87FC0
FFE2FFF87FC0
FFE1FFF87FC0
FFF01540BFC0
FFF80001FFC0
FFFFFFFFFFC0
FFFFFFFFFFC0
FFFFFFFFFF80
BFFFFFFFFF40
7FFFFFFFFF00
1FFFFFFFFD00
07FFFFFFF400
006FFFFE4000
ENDCHAR
STARTCHAR uni01D4
ENCODING 468
SWIDTH 578 0
DWIDTH 21 0
BBX 21 34 0 0
BITMAP
0006A46A4000
001FFFFFD000
003FFFFFE000
003F9FDBF000
003F8F8FF000
002FDB5FE000
002FE72FD000
001FF23FD000
000FF47FC000
000BFEFF8000
00AFFFFF8000
07EBFFFEB400
2FE2FFF87D00
7FE2FFF87F00
BFE2FFF87F40
FFE2FFF87F80
FFE2FFF87FC0
FFE2FFF87FC0
FFE2FFF87FC0
FFE2FFF87FC0
FFE2FFF87FC0
FFE2FFF87FC0
FFE2FFF87FC0
FFE1FFF87FC0
FFF01540BFC0
FFF80001FFC0
FFFFFFFFFFC0
FFFFFFFFFFC0
FFFFFFFFFF80
BFFFFFFFFF40
7FFFFFFFFF00
1FFFFFFFFD00
07FFFFFFF400
006FFFFE4000
ENDCHAR
STARTCHAR uni0200
ENCODING 512
SWIDTH 578 0
DWIDTH 21 0
BBX 21 35 0 0
BITMAP
005454000000
01FFFF400000
02FFFFD00000
07FFFFE00000
0FCBCBF40000
1FE3E3FC0000
0FF6F5FD0000
07F8FCFF0000
02FD7E7F4000
00FF7F7F8000
007FFFFF8000
00BFFFFFC000
07FFFAFFF400
2FFC0007FD00
7FF86A92FF00
BFF4BFE1FF40
FFF4BFE1FF80
FFF4FFE1FFC0
FFF0FFF1FFC0
FFF0FFF0FFC0
FFF00000FFC0
FFE05550FFC0
FFE1FFF4BFC0
FFE1FFF4BFC0
FFD2FFF8BFC0
FFD2FFF87FC0
FFD2FFF87FC0
FFFFFFFFFFC0
FFFFFFFFFFC0
FFFFFFFFFF80
BFFFFFFFFF40
7FFFFFFFFF00
1FFFFFFFFD00
07FFFFFFF400
006FFFFE4000
ENDCHAR
STARTCHAR uni0201
ENCODING 513
SWIDTH 578 0
DWIDTH 21 0
BBX 21 35 0 0
BITMAP
005454000000
01FFFF400000
02FFFFD00000
07FFFFE00000
0FCBCBF40000
1FE3E3FC0000
0FF6F5FD0000
07F8FCFF0000
02FD7E7F4000
00FF7F7F8000
007FFFFF8000
00BFFFFFC000
07FFAABFF400
2FF40007FD00
7FFAAA92FF00
BFFFFFE2FF40
FFFFFFE2FF80
FFFFFFE2FFC0
FFFFFFE2FFC0
FFFA5552FFC0
FFE00002FFC0
FFD2AA92FFC0
FFD3FFE2FFC0
FFD3FFE2FFC0
FFD2FFE2FFC0
FFD01502FFC0
FFF40002FFC0
FFFFFFFFFFC0
FFFFFFFFFFC0
FFFFFFFFFF80
BFFFFFFFFF40
7FFFFFFFFF00
1FFFFFFFFD00
07FFFFFFF400
006FFFFE4000
ENDCHAR
STARTCHAR uni0202
ENCODING 514
SWIDTH 578 0
DWIDTH 21 0
BBX 21 34 0 0
BITMAP
000015400000
0006FFF90000
002FFFFF8000
00BFFFFFE000
01FFFFFFF400
02FFE5BFF800
02FF401FF800
02FF1F4FF800
01FFAFEFF400
00BFFFFFE000
00BFFFFFC000
07FFEABFF400
2FFC0007FD00
7FF86A92FF00
BFF4BFE1FF40
FFF4BFE1FF80
FFF4FFE1FFC0
FFF0FFF1FFC0
FFF0FFF0FFC0
FFF00000FFC0
FFE05550FFC0
FFE1FFF4BFC0
FFE1FFF4BFC0
FFD2FFF8BFC0
FFD2FFF87FC0
FFD2FFF87FC0
FFFFFFFFFFC0
FFFFFFFFFFC0
FFFFFFFFFF80
BFFFFFFFFF40
7FFFFFFFFF00
1FFFFFFFFD00
07FFFFFFF400
006FFFFE4000
ENDCHAR
STARTCHAR uni0203
ENCODING 515
SWIDTH 578 0
DWIDTH 21 0
BBX 21 34 0 0
BITMAP
000015400000
0006FFF90000
002FFFFF8000
00BFFFFFE000
01FFFFFFF400
02FFE5BFF800
02FF401FF800
02FF1F4FF800
01FFAFEFF400
00BFFFFFE000
00BFFFFFC000
07FEAAAFF400
2FF40007FD00
7FFAAA92FF00
BFFFFFE2FF40
FFFFFFE2FF80
FFFFFFE2FFC0
FFFFFFE2FFC0
FFFA5552FFC0
FFE00002FFC0
FFD2AA92FFC0
FFD3FFE2FFC0
FFD3FFE2FFC0
FFD2FFE2FFC0
FFD01502FFC0
FFF40002FFC0
FFFFFFFFFFC0
FFFFFFFFFFC0
FFFFFFFFFF80
BFFFFFFFFF40
7FFFFFFFFF00
1FFFFFFFFD00
07FFFFFFF400
006FFFFE4000
ENDCHAR
STARTCHAR uni0204
ENCODING 516
SWIDTH 578 0
DWIDTH 21 0
BBX 21 35 0 0
BITMAP
005454000000
01FFFF400000
02FFFFD00000
07FFFFE00000
0FCBCBF40000
1FE3E3FC0000
0FF6F5FD0000
07F8FCFF0000
02FD7E7F4000
00FF7F7F8000
007FFFFF8000
00BFFFFFC000
07FEAAABF400
2FFC0001FD00
7FFC2AAAFF00
BFFC3FFFFF40
FFFC3FFFFF80
FFFC3FFFFFC0
FFFC3FFFFFC0
FFFC0007FFC0
FFFC1557FFC0
FFFC3FFFFFC0
FFFC3FFFFFC0
FFFC3FFFFFC0
FFFC3FFFFFC0
FFFC1555FFC0
FFFC0000FFC0
FFFFFFFFFFC0
FFFFFFFFFFC0
FFFFFFFFFF80
BFFFFFFFFF40
7FFFFFFFFF00
1FFFFFFFFD00
07FFFFFFF400
006FFFFE4000
ENDCHAR
STARTCHAR uni0205
ENCODING 517
SWIDTH 578 0
DWIDTH 21 0
BBX 21 35 0 0
BITMAP
005454000000
01FFFF400000
02FFFFD00000
07FFFFE00000
0FCBCBF40000
1FE3E3FC0000
0FF6F5FD0000
07F8FCFF0000
02FD7E7F4000
00FF7F7F8000
007FFFFF8000
00BFFFFFC000
07FFAABFF400
2FF00007FD00
7FD1AA92FF00
BFD2FFE2FF40
FFD2FFE2FF80
FFD2FFD2FFC0
FFD00002FFC0
FFD15556FFC0
FFD2FFFFFFC0
FFD2FFFFFFC0
FFD2FFFFFFC0
FFD2FFFFFFC0
FFD1AA9BFFC0
FFF00007FFC0
FFFEAAABFFC0
FFFFFFFFFFC0
FFFFFFFFFFC0
FFFFFFFFFF80
BFFFFFFFFF40
7FFFFFFFFF00
1FFFFFFFFD00
07FFFFFFF400
006FFFFE4000
ENDCHAR
STARTCHAR uni0206
ENCODING 518
SWIDTH 578 0
DWIDTH 21 0
BBX 21 34 0 0
BITMAP
000015400000
0006FFF90000
002FFFFF8000
00BFFFFFE000
01FFFFFFF400
02FFE5BFF800
02FF401FF800
02FF1F4FF800
01FFAFEFF400
00BFFFFFE000
00BFFFFFC000
07FEAAAAF400
2FFC0001FD00
7FFC2AAAFF00
BFFC3FFFFF40
FFFC3FFFFF80
FFFC3FFFFFC0
FFFC3FFFFFC0
FFFC0007FFC0
FFFC1557FFC0
FFFC3FFFFFC0
FFFC3FFFFFC0
FFFC3FFFFFC0
FFFC3FFFFFC0
FFFC1555FFC0
FFFC0000FFC0
FFFFFFFFFFC0
FFFFFFFFFFC0
FFFFFFFFFF80
BFFFFFFFFF40
7FFFFFFFFF00
1FFFFFFFFD00
07FFFFFFF400
006FFFFE4000
ENDCHAR
STARTCHAR uni0207
ENCODING 519
SWIDTH 578 0
DWIDTH 21 0
BBX 21 34 0 0
BITMAP
000015400000
0006FFF90000
002FFFFF8000
00BFFFFFE000
01FFFFFFF400
02FFE5BFF800
02FF401FF800
02FF1F4FF800
01FFAFEFF400
00BFFFFFE000
00BFFFFFC000
07FEAAAFF400
2FF00007FD00
7FD1AA92FF00
BFD2FFE2FF40
FFD2FFE2FF80
FFD2FFD2FFC0
FFD00002FFC0
FFD15556FFC0
FFD2FFFFFFC0
FFD2FFFFFFC0
FFD2FFFFFFC0
FFD2FFFFFFC0
FFD1AA9BFFC0
FFF00007FFC0
FFFEAAABFFC0
FFFFFFFFFFC0
FFFFFFFFFFC0
FFFFFFFFFF80
BFFFFFFFFF40
7FFFFFFFFF00
1FFFFFFFFD00
07FFFFFFF400
006FFFFE4000
ENDCHAR
STARTCHAR uni0208
ENCODING 520
SWIDTH 578 0
DWIDTH 21 0
BBX 21 35 0 0
BITMAP
005454000000
01FFFF400000
02FFFFD00000
07FFFFE00000
0FCBCBF40000
1FE3E3FC0000
0FF6F5FD0000
07F8FCFF0000
02FD7E7F4000
00FF7F7F8000
007FFFFF8000
00BFFFFFC000
07FEAAAAB400
2FF40000BD00
7FFAA46AFF00
BFFFF4BFFF40
FFFFF4BFFF80
FFFFF4BFFFC0
FFFFF4BFFFC0
FFFFF4BFFFC0
FFFFF4BFFFC0
FFFFF4BFFFC0
FFFFF4BFFFC0
FFFFF4BFFFC0
FFFFF4BFFFC0
FFF55015BFC0
FFF40000BFC0
FFFFFFFFFFC0
FFFFFFFFFFC0
FFFFFFFFFF80
BFFFFFFFFF40
7FFFFFFFFF00
1FFFFFFFFD00
07FFFFFFF400
006FFFFE4000
ENDCHAR
STARTCHAR uni0209
ENCODING 521
SWIDTH 578 0
DWIDTH 21 0
BBX 21 35 0 0
BITMAP
005454000000
01FFFF400000
02FFFFD00000
07FFFFE00000
0FCBCBF40000
1FE3E3FC0000
0FF6F5FD0000
07F8FCFF0000
02FD7E7F4000
00FF7F7F8000
007FFFFF8000
00BFFFFFC000
07FEAAAAB400
2FF40000BD00
7FFAA46AFF00
BFFFF4BFFF40
FFFFF4BFFF80
FFFFF4BFFFC0
FFFFF4BFFFC0
FFFFF4BFFFC0
FFFFF4BFFFC0
FFFFF4BFFFC0
FFFFF4BFFFC0
FFFFF4BFFFC0
FFFFF4BFFFC0
FFF55015BFC0
FFF40000BFC0
FFFFFFFFFFC0
FFFFFFFFFFC0
FFFFFFFFFF80
BFFFFFFFFF40
7FFFFFFFFF00
1FFFFFFFFD00
07FFFFFFF400
006FFFFE4000
ENDCHAR
STARTCHAR uni020A
ENCODING 522
SWIDTH 578 0
DWIDTH 21 0
BBX 21 34 0 0
BITMAP
000015400000
0006FFF90000
002FFFFF8000
00BFFFFFE000
01FFFFFFF400
02FFE5BFF800
02FF401FF800
02FF1F4FF800
01FFAFEFF400
00BFFFFFE000
00BFFFFFC000
07FAAAAAB400
2FF40000BD00
7FFAA46AFF00
BFFFF4BFFF40
FFFFF4BFFF80
FFFFF4BFFFC0
FFFFF4BFFFC0
FFFFF4BFFFC0
FFFFF4BFFFC0
FFFFF4BFFFC0
FFFFF4BFFFC0
FFFFF4BFFFC0
FFFFF4BFFFC0
FFF55015BFC0
FFF40000BFC0
FFFFFFFFFFC0
FFFFFFFFFFC0
FFFFFFFFFF80
BFFFFFFFFF40
7FFFFFFFFF00
1FFFFFFFFD00
07FFFFFFF400
006FFFFE4000
ENDCHAR
STARTCHAR uni020B
ENCODING 523
SWIDTH 578 0
DWIDTH 21 0
BBX 21 34 0 0
BITMAP
000015400000
0006FFF90000
002FFFFF8000
00BFFFFFE000
01FFFFFFF400
02FFE5BFF800
02FF401FF800
02FF1F4FF800
01FFAFEFF400
00BFFFFFE000
00BFFFFFC000
07FAAAAAB400
2FF40000BD00
7FFAA46AFF00
BFFFF4BFFF40
FFFFF4BFFF80
FFFFF4BFFFC0
FFFFF4BFFFC0
FFFFF4BFFFC0
FFFFF4BFFFC0
FFFFF4BFFFC0
FFFFF4BFFFC0
FFFFF4BFFFC0
FFFFF4BFFFC0
FFF55015BFC0
FFF40000BFC0
FFFFFFFFFFC0
FFFFFFFFFFC0
FFFFFFFFFF80
BFFFFFFFFF40
7FFFFFFFFF00
1FFFFFFFFD00
07FFFFFFF400
006FFFFE4000
ENDCHAR
STARTCHAR uni020C
ENCODING 524
SWIDTH 578 0
DWIDTH 21 0
BBX 21 35 0 0
BITMAP
005454000000
01FFFF400000
02FFFFD00000
07FFFFE00000
0FCBCBF40000
1FE3E3FC0000
0FF6F5FD0000
07F8FCFF0000
02FD7E7F4000
00FF7F7F8000
007FFFFF8000
00BFFFFFC000
07FFEAAFF400
2FF40000BD00
7FF0AAA47F00
BFE1FFFC7F40
FFE1FFFC7F80
FFE1FFFC7FC0
FFE1FFFC7FC0
FFE1FFFC7FC0
FFE1FFFC7FC0
FFE1FFFC7FC0
FFE1FFFC7FC0
FFE1FFFC7FC0
FFE1FFF87FC0
FFF01540BFC0
FFF80001FFC0
FFFFFFFFFFC0
FFFFFFFFFFC0
FFFFFFFFFF80
BFFFFFFFFF40
7FFFFFFFFF00
1FFFFFFFFD00
07FFFFFFF400
006FFFFE4000
ENDCHAR
STARTCHAR uni020D
ENCODING 525
SWIDTH 578 0
DWIDTH 21 0
BBX 21 35 0 0
BITMAP
005454000000
01FFFF400000
02FFFFD00000
07FFFFE00000
0FCBCBF40000
1FE3E3FC0000
0FF6F5FD0000
07F8FCFF0000
02FD7E7F4000
00FF7F7F8000
007FFFFF8000
00BFFFFFC000
07FFEAAFF400
2FF40000BD00
7FF0AAA47F00
BFE1FFFC7F40
FFE1FFFC7F80
FFE1FFFC7FC0
FFE1FFFC7FC0
FFE1FFFC7FC0
FFE1FFFC7FC0
FFE1FFFC7FC0
FFE1FFFC7FC0
FFE1FFFC7FC0
FFE1FFF87FC0
FFF01540BFC0
FFF80001FFC0
FFFFFFFFFFC0
FFFFFFFFFFC0
FFFFFFFFFF80
BFFFFFFFFF40
7FFFFFFFFF00
1FFFFFFFFD00
07FFFFFFF400
006FFFFE4000
ENDCHAR
STARTCHAR uni020E
ENCODING 526
SWIDTH 578 0
DWIDTH 21 0
BBX 21 34 0 0
BITMAP
000015400000
0006FFF90000
002FFFFF8000
00BFFFFFE000
01FFFFFFF400
02FFE5BFF800
02FF401FF800
02FF1F4FF800
01FFAFEFF400
00BFFFFFE000
00BFFFFFC000
07FFAAABF400
2FF40000BD00
7FF0AAA47F00
BFE1FFFC7F40
FFE1FFFC7F80
FFE1FFFC7FC0
FFE1FFFC7FC0
FFE1FFFC7FC0
FFE1FFFC7FC0
FFE1FFFC7FC0
FFE1FFFC7FC0
FFE1FFFC7FC0
FFE1FFF87FC0
FFF01540BFC0
FFF80001FFC0
FFFFFFFFFFC0
FFFFFFFFFFC0
FFFFFFFFFF80
BFFFFFFFFF40
7FFFFFFFFF00
1FFFFFFFFD00
07FFFFFFF400
006FFFFE4000
ENDCHAR
STARTCHAR uni020F
ENCODING 527
SWIDTH 578 0
DWIDTH 21 0
BBX 21 34 0 0
BITMAP
000015400000
0006FFF90000
002FFFFF8000
00BFFFFFE000
01FFFFFFF400
02FFE5BFF800
02FF401FF800
02FF1F4FF800
01FFAFEFF400
00BFFFFFE000
00BFFFFFC000
07FFAAABF400
2FF40000BD00
7FF0AAA47F00
BFE1FFFC7F40
FFE1FFFC7F80
FFE1FFFC7FC0
FFE1FFFC7FC0
FFE1FFFC7FC0
FFE1FFFC7FC0
FFE1FFFC7FC0
FFE1FFFC7FC0
FFE1FFFC7FC0
FFE1FFF87FC0
FFF01540BFC0
FFF80001FFC0
FFFFFFFFFFC0
FFFFFFFFFFC0
FFFFFFFFFF80
BFFFFFFFFF40
7FFFFFFFFF00
1FFFFFFFFD00
07FFFFFFF400
006FFFFE4000
ENDCHAR
STARTCHAR uni0210
ENCODING 528
SWIDTH 578 0
DWIDTH 21 0
BBX 21 35 0 0
BITMAP
005454000000
01FFFF400000
02FFFFD00000
07FFFFE00000
0FCBCBF40000
1FE3E3FC0000
0FF6F5FD0000
07F8FCFF0000
02FD7E7F4000
00FF7F7F8000
007FFFFF8000
00BFFFFFC000
07FAAABFF400
2FF00003FD00
7FF0AA91FF00
BFF0FFE1FF40
FFF0FFF1FF80
FFF0FFF1FFC0
FFF0FFE2FFC0
FFF05547FFC0
FFF0001BFFC0
FFF0AA92FFC0
FFF0FFF1FFC0
FFF0FFF0FFC0
FFF0FFF0FFC0
FFF0FFF0FFC0
FFF0FFF0FFC0
FFFFFFFFFFC0
FFFFFFFFFFC0
FFFFFFFFFF80
BFFFFFFFFF40
7FFFFFFFFF00
1FFFFFFFFD00
07FFFFFFF400
006FFFFE4000
ENDCHAR
STARTCHAR uni0211
ENCODING 529
SWIDTH 578 0
DWIDTH 21 0
BBX 21 35 0 0
BITMAP
005454000000
01FFFF400000
02FFFFD00000
07FFFFE00000
0FCBCBF40000
1FE3E3FC0000
0FF6F5FD0000
07F8FCFF0000
02FD7E7F4000
00FF7F7F8000
007FFFFF8000
00BFFFFFC000
07FAAABFF400
2FF00003FD00
7FF0AA91FF00
BFF0FFE1FF40
FFF0FFF1FF80
FFF0FFF1FFC0
FFF0FFE2FFC0
FFF05547FFC0
FFF0001BFFC0
FFF0AA92FFC0
FFF0FFF1FFC0
FFF0FFF0FFC0
FFF0FFF0FFC0
FFF0FFF0FFC0
FFF0FFF0FFC0
FFFFFFFFFFC0
FFFFFFFFFFC0
FFFFFFFFFF80
BFFFFFFFFF40
7FFFFFFFFF00
1FFFFFFFFD00
07FFFFFFF400
006FFFFE4000
ENDCHAR
STARTCHAR uni0212
ENCODING 530
SWIDTH 578 0
DWIDTH 21 0
BBX 21 34 0 0
BITMAP
000015400000
0006FFF90000
002FFFFF8000
00BFFFFFE000
01FFFFFFF400
02FFE5BFF800
02FF401FF800
02FF1F4FF800
01FFAFEFF400
00BFFFFFE000
00BFFFFFC000
07FAAAAFF400
2FF00003FD00
7FF0AA91FF00
BFF0FFE1FF40
FFF0FFF1FF80
FFF0FFF1FFC0
FFF0FFE2FFC0
FFF05547FFC0
FFF0001BFFC0
FFF0AA92FFC0
FFF0FFF1FFC0
FFF0FFF0FFC0
FFF0FFF0FFC0
FFF0FFF0FFC0
FFF0FFF0FFC0
FFFFFFFFFFC0
FFFFFFFFFFC0
FFFFFFFFFF80
BFFFFFFFFF40
7FFFFFFFFF00
1FFFFFFFFD00
07FFFFFFF400
006FFFFE4000
ENDCHAR
STARTCHAR uni0213
ENCODING 531
SWIDTH 578 0
DWIDTH 21 0
BBX 21 34 0 0
BITMAP
000015400000
0006FFF90000
002FFFFF8000
00BFFFFFE000
01FFFFFFF400
02FFE5BFF800
02FF401FF800
02FF1F4FF800
01FFAFEFF400
00BFFFFFE000
00BFFFFFC000
07FAAAAFF400
2FF00003FD00
7FF0AA91FF00
BFF0FFE1FF40
FFF0FFF1FF80
FFF0FFF1FFC0
FFF0FFE2FFC0
FFF05547FFC0
FFF0001BFFC0
FFF0AA92FFC0
FFF0FFF1FFC0
FFF0FFF0FFC0
FFF0FFF0FFC0
FFF0FFF0FFC0
FFF0FFF0FFC0
FFFFFFFFFFC0
FFFFFFFFFFC0
FFFFFFFFFF80
BFFFFFFFFF40
7FFFFFFFFF00
1FFFFFFFFD00
07FFFFFFF400
006FFFFE4000
ENDCHAR
STARTCHAR uni0214
ENCODING 532
SWIDTH 578 0
DWIDTH 21 0
BBX 21 35 0 0
BITMAP
005454000000
01FFFF400000
02FFFFD00000
07FFFFE00000
0FCBCBF40000
1FE3E3FC0000
0FF6F5FD0000
07F8FCFF0000
02FD7E7F4000
00FF7F7F8000
007FFFFF8000
00BFFFFFC000
07FBFFFEB400
2FE2FFF87D00
7FE2FFF87F00
BFE2FFF87F40
FFE2FFF87F80
FFE2FFF87FC0
FFE2FFF87FC0
FFE2FFF87FC0
FFE2FFF87FC0
FFE2FFF87FC0
FFE2FFF87FC0
FFE2FFF87FC0
FFE1FFF87FC0
FFF01540BFC0
FFF80001FFC0
FFFFFFFFFFC0
FFFFFFFFFFC0
FFFFFFFFFF80
BFFFFFFFFF40
7FFFFFFFFF00
1FFFFFFFFD00
07FFFFFFF400
006FFFFE4000
ENDCHAR
STARTCHAR uni0215
ENCODING 533
SWIDTH 578 0
DWIDTH 21 0
BBX 21 35 0 0
BITMAP
005454000000
01FFFF400000
02FFFFD00000
07FFFFE00000
0FCBCBF40000
1FE3E3FC0000
0FF6F5FD0000
07F8FCFF0000
02FD7E7F4000
00FF7F7F8000
007FFFFF8000
00BFFFFFC000
07FBFFFEB400
2FE2FFF87D00
7FE2FFF87F00
BFE2FFF87F40
FFE2FFF87F80
FFE2FFF87FC0
FFE2FFF87FC0
FFE2FFF87FC0
FFE2FFF87FC0
FFE2FFF87FC0
FFE2FFF87FC0
FFE2FFF87FC0
FFE1FFF87FC0
FFF01540BFC0
FFF80001FFC0
FFFFFFFFFFC0
FFFFFFFFFFC0
FFFFFFFFFF80
BFFFFFFFFF40
7FFFFFFFFF00
1FFFFFFFFD00
07FFFFFFF400
006FFFFE4000
ENDCHAR
STARTCHAR uni0216
ENCODING 534
SWIDTH 578 0
DWIDTH 21 0
BBX 21 34 0 0
BITMAP
000015400000
0006FFF90000
002FFFFF8000
00BFFFFFE000
01FFFFFFF400
02FFE5BFF800
02FF401FF800
02FF1F4FF800
01FFAFEFF400
00BFFFFFE000
00BFFFFFC000
07EBFFFEB400
2FE2FFF87D00
7FE2FFF87F00
BFE2FFF87F40
FFE2FFF87F80
FFE2FFF87FC0
FFE2FFF87FC0
FFE2FFF87FC0
FFE2FFF87FC0
FFE2FFF87FC0
FFE2FFF87FC0
FFE2FFF87FC0
FFE1FFF87FC0
FFF01540BFC0
FFF80001FFC0
FFFFFFFFFFC0
FFFFFFFFFFC0
FFFFFFFFFF80
BFFFFFFFFF40
7FFFFFFFFF00
1FFFFFFFFD00
07FFFFFFF400
006FFFFE4000
ENDCHAR
STARTCHAR uni0217
ENCODING 535
SWIDTH 578 0
DWIDTH 21 0
BBX 21 34 0 0
BITMAP
000015400000
0006FFF90000
002FFFFF8000
00BFFFFFE000
01FFFFFFF400
02FFE5BFF800
02FF401FF800
02FF1F4FF800
01FFAFEFF400
00BFFFFFE000
00BFFFFFC000
07EBFFFEB400
2FE2FFF87D00
7FE2FFF87F00
BFE2FFF87F40
FFE2FFF87F80
FFE2FFF87FC0
FFE2FFF87FC0
FFE2FFF87FC0
FFE2FFF87FC0
FFE2FFF87FC0
FFE2FFF87FC0
FFE2FFF87FC0
FFE1FFF87FC0
FFF01540BFC0
FFF80001FFC0
FFFFFFFFFFC0
FFFFFFFFFFC0
FFFFFFFFFF80
BFFFFFFFFF40
7FFFFFFFFF00
1FFFFFFFFD00
07FFFFFFF400
006FFFFE4000
ENDCHAR
STARTCHAR uni0218
ENCODING 536
SWIDTH 578 0
DWIDTH 21 0
BBX 21 24 0 0
BITMAP
00AFFFFE4000
07FEAAAAF400
2FF80001FD00
7FF46AA6FF00
BFF0FFFFFF40
FFF0FFFFFF80
FFF0FFFFFFC0
FFF4AAAFFFC0
FFF80001FFC0
FFFE9550BFC0
FFFFFFF4BFC0
FFFFFFF8BFC0
FFFFFFF8BFC0
FFFFFFF4BFC0
FFFC1540BFC0
FFF80002FFC0
FFFFFFFFFFC0
FFFFF5BFFFC0
FFFFF07FFF80
BFFFF4BFFF40
7FFFF8FFFF00
1FFFFAFFFD00
07FFFFFFF400
006FFFFE4000
ENDCHAR
STARTCHAR uni0219
ENCODING 537
SWIDTH 578 0
DWIDTH 21 0
BBX 21 24 0 0
BITMAP
00AFFFFE4000
07FEAAAAF400
2FF80001FD00
7FF46AA6FF00
BFF0FFFFFF40
FFF0FFFFFF80
FFF0FFFFFFC0
FFF4AAAFFFC0
FFF80001FFC0
FFFE9550BFC0
FFFFFFF4BFC0
FFFFFFF8BFC0
FFFFFFF8BFC0
FFFFFFF4BFC0
FFFC1540BFC0
FFF80002FFC0
FFFFFFFFFFC0
FFFFF5BFFFC0
FFFFF07FFF80
BFFFF4BFFF40
7FFFF8FFFF00
1FFFFAFFFD00
07FFFFFFF400
006FFFFE4000
ENDCHAR
STARTCHAR uni021A
ENCODING 538
SWIDTH 578 0
DWIDTH 21 0
BBX 21 24 0 0
BITMAP
00AFFFFE4000
07FAAAAAB400
2FF40000BD00
7FFAA46AFF00
BFFFF4BFFF40
FFFFF4BFFF80
FFFFF4BFFFC0
FFFFF4BFFFC0
FFFFF4BFFFC0
FFFFF4BFFFC0
FFFFF4BFFFC0
FFFFF4BFFFC0
FFFFF4BFFFC0
FFFFF4BFFFC0
FFFFF4BFFFC0
FFFFF4BFFFC0
FFFFFFFFFFC0
FFFFF5BFFFC0
FFFFF07FFF80
BFFFF47FFF40
7FFFFCBFFF00
1FFFF9FFFD00
07FFFFFFF400
006FFFFE4000
ENDCHAR
STARTCHAR uni021B
ENCODING 539
SWIDTH 578 0
DWIDTH 21 0
BBX 21 24 0 0
BITMAP
00AFFFFE4000
07FAAAAAB400
2FF40000BD00
7FFAA46AFF00
BFFFF4BFFF40
FFFFF4BFFF80
FFFFF4BFFFC0
FFFFF4BFFFC0
FFFFF4BFFFC0
FFFFF4BFFFC0
FFFFF4BFFFC0
FFFFF4BFFFC0
FFFFF4BFFFC0
FFFFF4BFFFC0
FFFFF4BFFFC0
FFFFF4BFFFC0
FFFFFFFFFFC0
FFFFF5BFFFC0
FFFFF07FFF80
BFFFF47FFF40
7FFFFCBFFF00
1FFFF9FFFD00
07FFFFFFF400
006FFFFE4000
ENDCHAR
STARTCHAR circumflex
ENCODING 710
SWIDTH 355 0
DWIDTH 13 0
BBX 13 13 0 0
BITMAP
00AA4000
03FFE000
0BFFF400
0FEBF800
1FD1FD00
3FC8FE00
7F5CBF00
BF2D7F40
FE3E3F80
FEBF6FC0
FFFFFF80
BFFFFF40
15555500
ENDCHAR
STARTCHAR caron
ENCODING 711
SWIDTH 355 0
DWIDTH 13 0
BBX 13 12 0 0
BITMAP
1A91A900
7FFFFF40
FFFFFF80
FE7F6FC0
FE3E3F80
BF6D7F80
BF9CBF40
7FC8FF00
3FD2FF00
2FFBFE00
1FFFFC00
05555400
ENDCHAR
STARTCHAR breve
ENCODING 728
SWIDTH 428 0
DWIDTH 15 0
BBX 16 11 0 0
BITMAP
00155000
02FFFE40
1FFFFFE0
7FFFFFF8
BFFFFFFC
FFEFFBFD
FF8BD3FD
FF8007FD
7FE55FFC
2FFFFFF4
0BFFFFD0
ENDCHAR
STARTCHAR dotaccent
ENCODING 729
SWIDTH 428 0
DWIDTH 15 0
BBX 16 11 0 0
BITMAP
00155000
02FFFE40
1FFFFFE0
7FFFFFF8
BFFFFFFC
FFF9BFFD
FFF47FFD
FFF97FFD
BFFFFFFC
7FFFFFF8
1AAAAAA0
ENDCHAR
STARTCHAR ring
ENCODING 730
SWIDTH 368 0
DWIDTH 13 0
BBX 14 12 0 0
BITMAP
00040000
01FFE000
0BFFFD00
2FFFFF00
7F807F80
BE192FC0
FE3F5FD0
FE3F1FD0
FF042FD0
BF95BFC0
7FFFFF80
3FFFFF00
ENDCHAR
STARTCHAR ogonek
ENCODING 731
SWIDTH 101 0
DWIDTH 4 0
BBX 4 6 0 -6
BITMAP
2D
B4
E0
E0
BE
15
ENDCHAR
STARTCHAR tilde
ENCODING 732
SWIDTH 428 0
DWIDTH 15 0
BBX 16 12 0 0
BITMAP
00169000
02FFFE40
0FFFFFD0
3FFFFFF4
7FFFFFFC
FFFFFFFD
FFFFFFFD
FF56E2FD
FE0042FD
BE2E47FC
3FFFFFF4
1FFFFFE0
ENDCHAR
STARTCHAR hungarumlaut
ENCODING 733
SWIDTH 419 0
DWIDTH 15 0
BBX 15 13 0 0
BITMAP
00154540
00BFFFC0
02FFFFD0
03FFFFF0
0BF5F5F8
1FE3E2FC
2FDBD7F8
7F9F8FF0
BF2F6FD0
FEBE7F80
FFFFFF00
BFFFFD00
15555400
ENDCHAR
STARTCHAR uni030F
ENCODING 783
SWIDTH 419 0
DWIDTH 15 0
BBX 15 13 0 0
BITMAP
05515000
0BFFF800
1FFFFE00
3FFFFF40
7D7D3F80
FF2F2FD0
BF8F8FF0
2FDBD7F4
1FF3F3FC
0BFAF9FC
02FFFFFC
01FFFFF8
00555550
ENDCHAR
STARTCHAR mu
ENCODING 956
SWIDTH 578 0
DWIDTH 21 0
BBX 21 24 0 0
BITMAP
00AFFFFE4000
07EAFFFEB400
2FE2FFF87D00
7FE2FFF87F00
BFE2FFF87F40
FFE2FFF87F80
FFE2FFF87FC0
FFE2FFF87FC0
FFE2FFF87FC0
FFE2FFF87FC0
FFE2FFF87FC0
FFE2FFF87FC0
FFE2FFF87FC0
FFE2FFF87FC0
FFE05540BFC0
FFE00001FFC0
FFE2FFFFFFC0
FFFBFFFFFFC0
FFFFFFFFFF80
BFFFFFFFFF40
7FFFFFFFFF00
1FFFFFFFFD00
07FFFFFFF400
006FFFFE4000
ENDCHAR
STARTCHAR pi
ENCODING 960
SWIDTH 578 0
DWIDTH 21 0
BBX 21 24 0 0
BITMAP
00AFFFFE4000
07FFA5BFF400
2FF81547FD00
7FD2FFF4BF00
BF4B406E2F40
FE2E2A4F8F80
FD7E3F8FCBC0
FCFD7F8FE7C0
F8FD7FCBF3C0
F9FD154BF3C0
F9FC6A8BF3C0
F8FCBFC7E3C0
FCBCBFD7D7C0
FD78BFD7CBC0
FF1EFFFB1FC0
FF87FFF87FC0
FFF46A91FFC0
FFFE401BFFC0
FFFFFFFFFF80
BFFFFFFFFF40
7FFFFFFFFF00
1FFFFFFFFD00
07FFFFFFF400
006FFFFE4000
ENDCHAR
STARTCHAR uni1E60
ENCODING 7776
SWIDTH 578 0
DWIDTH 21 0
BBX 21 33 0 0
BITMAP
000015500000
0006FFFE4000
002FFFFFE000
007FFFFFF400
00FFFFFFFC00
01FFF9BFFD00
01FFF47FFD00
00FFF9BFFC00
00FFFFFFFC00
00FFFFFFF400
07FFFFFFF400
2FF80001FD00
7FF46AA6FF00
BFF0FFFFFF40
FFF0FFFFFF80
FFF0FFFFFFC0
FFF4AAAFFFC0
FFF80001FFC0
FFFE9550BFC0
FFFFFFF4BFC0
FFFFFFF8BFC0
FFFFFFF8BFC0
FFFFFFF4BFC0
FFFC1540BFC0
FFF80002FFC0
FFFFFFFFFFC0
FFFFFFFFFFC0
FFFFFFFFFF80
BFFFFFFFFF40
7FFFFFFFFF00
1FFFFFFFFD00
07FFFFFFF400
006FFFFE4000
ENDCHAR
STARTCHAR uni1E8E
ENCODING 7822
SWIDTH 578 0
DWIDTH 21 0
BBX 21 33 0 0
BITMAP
000055500000
0007FFFE0000
002FFFFFD000
00BFFFFFF400
01FFFFFFF800
01FFF5BFFC00
02FFF0BFFC00
01FFF5BFFC00
00FFFFFFF800
00FFFFFFF400
07FFFFFFF400
2FF4BFF0BD00
7FF83FE1FF00
BFFC2FD2FF40
FFFE1F83FF80
FFFF0F4BFFC0
FFFF4B0FFFC0
FFFF821FFFC0
FFFFD02FFFC0
FFFFE07FFFC0
FFFFF0BFFFC0
FFFFF4FFFFC0
FFFFF4FFFFC0
FFFFF4FFFFC0
FFFFF4FFFFC0
FFFFFFFFFFC0
FFFFFFFFFFC0
FFFFFFFFFF80
BFFFFFFFFF40
7FFFFFFFFF00
1FFFFFFFFD00
07FFFFFFF400
006FFFFE4000
ENDCHAR
STARTCHAR uni1E8F
ENCODING 7823
SWIDTH 578 0
DWIDTH 21 0
BBX 21 33 0 0
BITMAP
000055500000
0007FFFE0000
002FFFFFD000
00BFFFFFF400
01FFFFFFF800
01FFF5BFFC00
02FFF0BFFC00
01FFF5BFFC00
00FFFFFFF800
00FFFFFFF400
07FFFFFFF400
2FF4BFF0BD00
7FF83FE1FF00
BFFC2FD2FF40
FFFE1F83FF80
FFFF0F4BFFC0
FFFF4B0FFFC0
FFFF821FFFC0
FFFFD02FFFC0
FFFFE07FFFC0
FFFFF0BFFFC0
FFFFF4FFFFC0
FFFFF4FFFFC0
FFFFF4FFFFC0
FFFFF4FFFFC0
FFFFFFFFFFC0
FFFFFFFFFFC0
FFFFFFFFFF80
BFFFFFFFFF40
7FFFFFFFFF00
1FFFFFFFFD00
07FFFFFFF400
006FFFFE4000
ENDCHAR
STARTCHAR uni1EBC
ENCODING 7868
SWIDTH 578 0
DWIDTH 21 0
BBX 21 35 0 0
BITMAP
00001A500000
0006FFFE0000
001FFFFFC000
007FFFFFF000
00FFFFFFF800
01FFFFFFFC00
01FFFFFFFC00
01FE5BD3FC00
01FD1043FC00
00FD7D4BF800
007FFFFFF000
00BFFFFFD000
07FEAAAAF400
2FFC0001FD00
7FFC2AAAFF00
BFFC3FFFFF40
FFFC3FFFFF80
FFFC3FFFFFC0
FFFC3FFFFFC0
FFFC0007FFC0
FFFC1557FFC0
FFFC3FFFFFC0
FFFC3FFFFFC0
FFFC3FFFFFC0
FFFC3FFFFFC0
FFFC1555FFC0
FFFC0000FFC0
FFFFFFFFFFC0
FFFFFFFFFFC0
FFFFFFFFFF80
BFFFFFFFFF40
7FFFFFFFFF00
1FFFFFFFFD00
07FFFFFFF400
006FFFFE4000
ENDCHAR
STARTCHAR uni1EF8
ENCODING 7928
SWIDTH 578 0
DWIDTH 21 0
BBX 21 35 0 0
BITMAP
00005A500000
0006FFFE0000
002FFFFFC000
007FFFFFE000
00FFFFFFF400
01FFFFFFF800
01FFFFFFFC00
02FE5BC3FC00
01FD1047FC00
00FD7D4BF800
00BFFFFFF000
00BFFFFFD000
07FAFFFAB400
2FF4BFF0BD00
7FF83FE1FF00
BFFC2FD2FF40
FFFE1F83FF80
FFFF0F4BFFC0
FFFF4B0FFFC0
FFFF821FFFC0
FFFFD02FFFC0
FFFFE07FFFC0
FFFFF0BFFFC0
FFFFF4FFFFC0
FFFFF4FFFFC0
FFFFF4FFFFC0
FFFFF4FFFFC0
FFFFFFFFFFC0
FFFFFFFFFFC0
FFFFFFFFFF80
BFFFFFFFFF40
7FFFFFFFFF00
1FFFFFFFFD00
07FFFFFFF400
006FFFFE4000
ENDCHAR
STARTCHAR uni1EF9
ENCODING 7929
SWIDTH 578 0
DWIDTH 21 0
BBX 21 35 0 0
BITMAP
00005A500000
0006FFFE0000
002FFFFFC000
007FFFFFE000
00FFFFFFF400
01FFFFFFF800
01FFFFFFFC00
02FE5BC3FC00
01FD1047FC00
00FD7D4BF800
00BFFFFFF000
00BFFFFFD000
07FAFFFAB400
2FF4BFF0BD00
7FF83FE1FF00
BFFC2FD2FF40
FFFE1F83FF80
FFFF0F4BFFC0
FFFF4B0FFFC0
FFFF821FFFC0
FFFFD02FFFC0
FFFFE07FFFC0
FFFFF0BFFFC0
FFFFF4FFFFC0
FFFFF4FFFFC0
FFFFF4FFFFC0
FFFFF4FFFFC0
FFFFFFFFFFC0
FFFFFFFFFFC0
FFFFFFFFFF80
BFFFFFFFFF40
7FFFFFFFFF00
1FFFFFFFFD00
07FFFFFFF400
006FFFFE4000
ENDCHAR
STARTCHAR endash
ENCODING 8211
SWIDTH 428 0
DWIDTH 15 0
BBX 16 24 0 0
BITMAP
00AFF900
07FFFF80
2FFFFFF0
7FFFFFF8
BFFFFFFC
FFFFFFFD
FF4003FD
FF4003FD
FFFFFFFD
FFFFFFFD
FFFFFFFD
FFFFFFFD
FFFFFFFD
FFFFFFFD
FFFFFFFD
FFFFFFFD
FFFFFFFD
FFFFFFFD
FFFFFFFD
BFFFFFFC
7FFFFFF8
1FFFFFE0
07FFFF80
006FE900
ENDCHAR
STARTCHAR emdash
ENCODING 8212
SWIDTH 428 0
DWIDTH 15 0
BBX 16 24 0 0
BITMAP
00AFF900
07FFFF80
2FFFFFF0
7FFFFFF8
BFFFFFFC
FFFFFFFD
00000000
00000000
FFFFFFFD
FFFFFFFD
FFFFFFFD
FFFFFFFD
FFFFFFFD
FFFFFFFD
FFFFFFFD
FFFFFFFD
FFFFFFFD
FFFFFFFD
FFFFFFFD
BFFFFFFC
7FFFFFF8
1FFFFFE0
07FFFF80
006FE900
ENDCHAR
STARTCHAR quoteleft
ENCODING 8216
SWIDTH 428 0
DWIDTH 15 0
BBX 16 24 0 0
BITMAP
00AFF900
07FEFF80
2FFC7FF0
7FF8BFF8
BFF82FFC
FFF82FFD
FFFFFFFD
FFFFFFFD
FFFFFFFD
FFFFFFFD
FFFFFFFD
FFFFFFFD
FFFFFFFD
FFFFFFFD
FFFFFFFD
FFFFFFFD
FFFFFFFD
FFFFFFFD
FFFFFFFD
BFFFFFFC
7FFFFFF8
1FFFFFE0
07FFFF80
006FE900
ENDCHAR
STARTCHAR quoteright
ENCODING 8217
SWIDTH 428 0
DWIDTH 15 0
BBX 16 24 0 0
BITMAP
00AFF900
07FABF80
2FF82FF0
7FF82FF8
BFFD3FFC
FFFDBFFD
FFFFFFFD
FFFFFFFD
FFFFFFFD
FFFFFFFD
FFFFFFFD
FFFFFFFD
FFFFFFFD
FFFFFFFD
FFFFFFFD
FFFFFFFD
FFFFFFFD
FFFFFFFD
FFFFFFFD
BFFFFFFC
7FFFFFF8
1FFFFFE0
07FFFF80
006FE900
ENDCHAR
STARTCHAR quotesinglbase
ENCODING 8218
SWIDTH 428 0
DWIDTH 15 0
BBX 16 24 0 0
BITMAP
00AFF900
07FFFF80
2FFFFFF0
7FFFFFF8
BFFFFFFC
FFFFFFFD
FFFFFFFD
FFFFFFFD
FFFFFFFD
FFFFFFFD
FFFFFFFD
FFFFFFFD
FFFFFFFD
FFFEBFFD
FFF82FFD
FFF82FFD
FFFD3FFD
FFFD7FFD
FFFFFFFD
BFFFFFFC
7FFFFFF8
1FFFFFE0
07FFFF80
006FE900
ENDCHAR
STARTCHAR quotedblleft
ENCODING 8220
SWIDTH 428 0
DWIDTH 15 0
BBX 16 24 0 0
BITMAP
00AFF900
07FBEF80
2FD78FF0
7FC71BF8
BF8207FC
FF8207FD
FFFFFFFD
FFFFFFFD
FFFFFFFD
FFFFFFFD
FFFFFFFD
FFFFFFFD
FFFFFFFD
FFFFFFFD
FFFFFFFD
FFFFFFFD
FFFFFFFD
FFFFFFFD
FFFFFFFD
BFFFFFFC
7FFFFFF8
1FFFFFE0
07FFFF80
006FE900
ENDCHAR
STARTCHAR quotedblright
ENCODING 8221
SWIDTH 428 0
DWIDTH 15 0
BBX 16 24 0 0
BITMAP
00AFF900
07EAAB80
2FC143F0
7FD183F8
BFF2D7FC
FFE3DBFD
FFFFFFFD
FFFFFFFD
FFFFFFFD
FFFFFFFD
FFFFFFFD
FFFFFFFD
FFFFFFFD
FFFFFFFD
FFFFFFFD
FFFFFFFD
FFFFFFFD
FFFFFFFD
FFFFFFFD
BFFFFFFC
7FFFFFF8
1FFFFFE0
07FFFF80
006FE900
ENDCHAR
STARTCHAR quotedblbase
ENCODING 8222
SWIDTH 428 0
DWIDTH 15 0
BBX 16 24 0 0
BITMAP
00AFF900
07FFFF80
2FFFFFF0
7FFFFFF8
BFFFFFFC
FFFFFFFD
FFFFFFFD
FFFFFFFD
FFFFFFFD
FFFFFFFD
FFFFFFFD
FFFFFFFD
FFFFFFFD
FFEAEBFD
FFC143FD
FFC143FD
FFF1D7FD
FFE3CBFD
FFFFFFFD
BFFFFFFC
7FFFFFF8
1FFFFFE0
07FFFF80
006FE900
ENDCHAR
STARTCHAR dagger
ENCODING 8224
SWIDTH 578 0
DWIDTH 21 0
BBX 21 24 0 0
BITMAP
00AFFFFE4000
07FFFAFFF400
2FFFF4BFFD00
7FFFF4BFFF00
BFFF505BFF40
FFFF0007FF80
FFFFA4AFFFC0
FFFFF4BFFFC0
FFFFF4BFFFC0
FFFFF4BFFFC0
FFFFF4BFFFC0
FFFFF4BFFFC0
FFFFF4BFFFC0
FFFFF4BFFFC0
FFFFF4BFFFC0
FFFFF4BFFFC0
FFFFFFFFFFC0
FFFFFFFFFFC0
FFFFFFFFFF80
BFFFFFFFFF40
7FFFFFFFFF00
1FFFFFFFFD00
07FFFFFFF400
006FFFFE4000
ENDCHAR
STARTCHAR daggerdbl
ENCODING 8225
SWIDTH 578 0
DWIDTH 21 0
BBX 21 24 0 0
BITMAP
00AFFFFE4000
07FFFAFFF400
2FFFF4BFFD00
7FFFF4BFFF00
BFFF505BFF40
FFFF0007FF80
FFFFA4AFFFC0
FFFFF4BFFFC0
FFFFF4BFFFC0
FFFFF4BFFFC0
FFFFF4BFFFC0
FFFFA46BFFC0
FFFF0007FFC0
FFFF945BFFC0
FFFFF4BFFFC0
FFFFF4BFFFC0
FFFFFFFFFFC0
FFFFFFFFFFC0
FFFFFFFFFF80
BFFFFFFFFF40
7FFFFFFFFF00
1FFFFFFFFD00
07FFFFFFF400
006FFFFE4000
ENDCHAR
STARTCHAR bullet
ENCODING 8226
SWIDTH 578 0
DWIDTH 21 0
BBX 21 24 0 0
BITMAP
00AFFFFE4000
07FFFFFFF400
2FFFFFFFFD00
7FFE401BFF00
BFF80001FF40
FFF00000BF80
FFE00000BFC0
FFE00000BFC0
FFE00000BFC0
FFE00000BFC0
FFE00000BFC0
FFE00000BFC0
FFE00000BFC0
FFF40000FFC0
FFFD0006FFC0
FFFFAAAFFFC0
FFFFFFFFFFC0
FFFFFFFFFFC0
FFFFFFFFFF80
BFFFFFFFFF40
7FFFFFFFFF00
1FFFFFFFFD00
07FFFFFFF400
006FFFFE4000
ENDCHAR
STARTCHAR ellipsis
ENCODING 8230
SWIDTH 578 0
DWIDTH 21 0
BBX 21 24 0 0
BITMAP
00AFFFFE4000
07FFFFFFF400
2FFFFFFFFD00
7FFFFFFFFF00
BFFFFFFFFF40
FFFFFFFFFF80
FFFFFFFFFFC0
FFFFFFFFFFC0
FFFFFFFFFFC0
FFFFFFFFFFC0
FFFFFFFFFFC0
FFFFFFFFFFC0
FFFFFFFFFFC0
FFEBEBFBFFC0
FF83C2D1FFC0
FF83C2D1FFC0
FFFFFFFFFFC0
FFFFFFFFFFC0
FFFFFFFFFF80
BFFFFFFFFF40
7FFFFFFFFF00
1FFFFFFFFD00
07FFFFFFF400
006FFFFE4000
ENDCHAR
STARTCHAR perthousand
ENCODING 8240
SWIDTH 640 0
DWIDTH 23 0
BBX 23 24 0 0
BITMAP
00AFFFFFE800
07FFFFFFFF40
2E6FEBFFFFE0
6007C3FFFFF4
919287FFFFF8
D2D24BFFFFFC
D1430FFFFFFC
F0061FFFFFFC
FEBE2FFFFFFC
FFFD3E6FF9BC
FFFC3402C01C
FFF861918648
FFF4A1E14B88
FFF0E0518508
FFE1F403D01C
FFFFFFAFFABC
FFFFFFFFFFFC
FFFFFFFFFFFC
FFFFFFFFFFFC
BFFFFFFFFFF8
7FFFFFFFFFF4
1FFFFFFFFFD0
07FFFFFFFF40
006FFFFFE400
ENDCHAR
STARTCHAR guilsinglleft
ENCODING 8249
SWIDTH 578 0
DWIDTH 21 0
BBX 21 24 0 0
BITMAP
00AFFFFE4000
07FFFFFFF400
2FFFFFFFFD00
7FFFFF9FFF00
BFFFFE1FFF40
FFFFFC3FFF80
FFFFF4BFFFC0
FFFFE2FFFFC0
FFFF87FFFFC0
FFFF0FFFFFC0
FFFF0FFFFFC0
FFFF87FFFFC0
FFFFE1FFFFC0
FFFFF4BFFFC0
FFFFFD3FFFC0
FFFFFF1FFFC0
FFFFFF9FFFC0
FFFFFFFFFFC0
FFFFFFFFFF80
BFFFFFFFFF40
7FFFFFFFFF00
1FFFFFFFFD00
07FFFFFFF400
006FFFFE4000
ENDCHAR
STARTCHAR guilsinglright
ENCODING 8250
SWIDTH 578 0
DWIDTH 21 0
BBX 21 24 0 0
BITMAP
00AFFFFE4000
07FFFFFFF400
2FFFFFFFFD00
7FFF9FFFFF00
BFFF8BFFFF40
FFFFD3FFFF80
FFFFF1FFFFC0
FFFFF8BFFFC0
FFFFFD2FFFC0
FFFFFF0FFFC0
FFFFFF1FFFC0
FFFFFD2FFFC0
FFFFF8BFFFC0
FFFFF1FFFFC0
FFFFD3FFFFC0
FFFF8BFFFFC0
FFFF9FFFFFC0
FFFFFFFFFFC0
FFFFFFFFFF80
BFFFFFFFFF40
7FFFFFFFFF00
1FFFFFFFFD00
07FFFFFFF400
006FFFFE4000
ENDCHAR
STARTCHAR fraction
ENCODING 8260
SWIDTH 428 0
DWIDTH 15 0
BBX 16 24 0 0
BITMAP
00AFF900
07FFAF80
2FFE1FF0
7FFE1FF8
BFFD2FFC
FFFD2FFD
FFFC3FFD
FFFC3FFD
FFF87FFD
FFF87FFD
FFF4BFFD
FFF4BFFD
FFF0FFFD
FFF0FFFD
FFE1FFFD
FFE1FFFD
FFFFFFFD
FFFFFFFD
FFFFFFFD
BFFFFFFC
7FFFFFF8
1FFFFFE0
07FFFF80
006FE900
ENDCHAR
STARTCHAR Euro
ENCODING 8364
SWIDTH 578 0
DWIDTH 21 0
BBX 21 24 0 0
BITMAP
00AFFFFE4000
07FEAAABF400
2FF00007FD00
7FE1AAABFF00
BFD2FFFFFF40
FFD2FFFFFF80
FE0001FFFFC0
FE4056FFFFC0
FFD2FFFFFFC0
FE5156FFFFC0
FE0001FFFFC0
FFD2FFFFFFC0
FFD2FFFFFFC0
FFE2FFFFFFC0
FFE01547FFC0
FFF80007FFC0
FFFFFFFFFFC0
FFFFFFFFFFC0
FFFFFFFFFF80
BFFFFFFFFF40
7FFFFFFFFF00
1FFFFFFFFD00
07FFFFFFF400
006FFFFE4000
ENDCHAR
STARTCHAR trademark
ENCODING 8482
SWIDTH 578 0
DWIDTH 21 0
BBX 21 24 0 0
BITMAP
00AFFFFE4000
07FFFFFFF400
2FFFFFFFFD00
7FFFFFFFFF00
BFFFFFFFFF40
FFFFFFFFFF80
FFFFFFFFFFC0
FFD567F6FFC0
FFD061D2FFC0
FFF5E042FFC0
FFF5E112FFC0
FFF5E222FFC0
FFFAE777FFC0
FFFFFFFFFFC0
FFFFFFFFFFC0
FFFFFFFFFFC0
FFFFFFFFFFC0
FFFFFFFFFFC0
FFFFFFFFFF80
BFFFFFFFFF40
7FFFFFFFFF00
1FFFFFFFFD00
07FFFFFFF400
006FFFFE4000
ENDCHAR
STARTCHAR product
ENCODING 8719
SWIDTH 578 0
DWIDTH 21 0
BBX 21 24 0 0
BITMAP
00AFFFFE4000
07FFA5BFF400
2FF81547FD00
7FD2FFF4BF00
BF4BFFFE2F40
FE2F000B8F80
FD7F2A97CBC0
FCFF2FD3E7C0
F8FF2FE3F3C0
F9FF2FD7F3C0
F9FF0007F3C0
F8FF1AAFE3C0
FCBF2FFFD7C0
FD7F2FFFCBC0
FF1F2FFF1FC0
FF87FFF87FC0
FFF46A91FFC0
FFFE401BFFC0
FFFFFFFFFF80
BFFFFFFFFF40
7FFFFFFFFF00
1FFFFFFFFD00
07FFFFFFF400
006FFFFE4000
ENDCHAR
STARTCHAR minus
ENCODING 8722
SWIDTH 428 0
DWIDTH 15 0
BBX 16 24 0 0
BITMAP
00AFF900
07FFFF80
2FFFFFF0
7FFFFFF8
BFFFFFFC
FFFFFFFD
FF4003FD
FF4003FD
FFFFFFFD
FFFFFFFD
FFFFFFFD
FFFFFFFD
FFFFFFFD
FFFFFFFD
FFFFFFFD
FFFFFFFD
FFFFFFFD
FFFFFFFD
FFFFFFFD
BFFFFFFC
7FFFFFF8
1FFFFFE0
07FFFF80
006FE900
ENDCHAR
STARTCHAR notequal
ENCODING 8800
SWIDTH 578 0
DWIDTH 21 0
BBX 21 24 0 0
BITMAP
00AFFFFE4000
07FFFFFFF400
2FFFFFFFFD00
7FFFFE2FFF00
BFFFFC3FFF40
FFE00002FF80
FFE00002FFC0
FFFFE1FFFFC0
FFEA81ABFFC0
FFE00002FFC0
FFEA0AABFFC0
FFFE1FFFFFC0
FFFEBFFFFFC0
FFFFFFFFFFC0
FFFFFFFFFFC0
FFFFFFFFFFC0
FFFFFFFFFFC0
FFFFFFFFFFC0
FFFFFFFFFF80
BFFFFFFFFF40
7FFFFFFFFF00
1FFFFFFFFD00
07FFFFFFF400
006FFFFE4000
ENDCHAR
STARTCHAR uni2706
ENCODING 9990
SWIDTH 578 0
DWIDTH 21 0
BBX 21 24 0 0
BITMAP
00AFFFFE4000
07FFF6FFF400
2FFFFD7FFD00
7FFFE69FFF00
BFFFFDABFF40
FFFEE737FF80
FFF87677FFC0
FFF21B63FFC0
FFF04FFFFFC0
FFF07FFFFFC0
FFF47FFFFFC0
FFF83FFFFFC0
FFFC1FFFFFC0
FFFE0BEFFFC0
FFFF414BFFC0
FFFFD047FFC0
FFFFF822FFC0
FFFFFFAFFFC0
FFFFFFFFFF80
BFFFFFFFFF40
7FFFFFFFFF00
1FFFFFFFFD00
07FFFFFFF400
006FFFFE4000
ENDCHAR
STARTCHAR uni2708
ENCODING 9992
SWIDTH 578 0
DWIDTH 21 0
BBX 21 24 0 0
BITMAP
00AAAAAA4000
064040106400
2800BAD00900
60002F400200
800009000140
800009000080
807409068080
801F496E0080
8003FFF80080
8000BFD00080
80002F400080
80000E000080
80000E000080
80000E000080
80000D000080
800008000080
800000000080
800000000080
80001A000080
80003F400140
60003F400200
18001A000900
064000006400
006AAAAA4000
ENDCHAR
STARTCHAR uniF6D6
ENCODING 63190
SWIDTH 419 0
DWIDTH 15 0
BBX 15 13 0 0
BITMAP
05515000
0BFFF800
1FFFFE00
3FFFFF40
7D7D3F80
FF2F2FD0
BF8F8FF0
2FDBD7F4
1FF3F3FC
0BFAF9FC
02FFFFFC
01FFFFF8
00555550
ENDCHAR
STARTCHAR uFFFF2
ENCODING 1048562
SWIDTH 578 0
DWIDTH 21 0
BBX 21 24 0 0
BITMAP
00AAAAAA4000
064000006400
280008000900
60000D000200
80000E000140
80000E000080
80000E000080
80002F400080
8000FFD00080
8007FFF80080
801F496E0080
807409068080
800009000080
800009000080
80002F400080
8000B6D00080
800040100080
800000000080
80001A000080
80003F400140
60003F400200
18001A000900
064000006400
006AAAAA4000
ENDCHAR
STARTCHAR uFFFF3
ENCODING 1048563
SWIDTH 578 0
DWIDTH 21 0
BBX 21 24 0 0
BITMAP
00AAAAAA4000
064000006400
28000A000900
60000B800200
80000BE00140
80024B780080
8007DB2D0080
8001FB780080
80007FE00080
80001F800080
80002FC00080
8000BFF00080
8002EB780080
80078B2D0080
80010BB40080
80000BD00080
80000B400080
800005000080
800000000080
800000000140
600000000200
180000000900
064000006400
006AAAAA4000
ENDCHAR
STARTCHAR uFFFF4
ENCODING 1048564
SWIDTH 578 0
DWIDTH 21 0
BBX 21 24 0 0
BITMAP
00AFFFFE4000
07FFFFFFF400
2FFFFFFFFD00
7FFFF5FFFF00
BFFFF5FFFF40
FFFD75C7FF80
FFF4F5E2FFC0
FFE2F5F8FFC0
FFE7F5FCBFC0
FFD7F6FCBFC0
FFD7FFFCBFC0
FFE3FFF8BFC0
FFF1FFF5FFC0
FFF86F82FFC0
FFFE001FFFC0
FFFFEABFFFC0
FFFFFFFFFFC0
FFFFFFFFFFC0
FFFFFFFFFF80
BFFFFFFFFF40
7FFFFFFFFF00
1FFFFFFFFD00
07FFFFFFF400
006FFFFE4000
ENDCHAR
STARTCHAR uFFFF5
ENCODING 1048565
SWIDTH 578 0
DWIDTH 21 0
BBX 21 24 0 0
BITMAP
00AFFFFE4000
07FFBFEFF400
2FFF452FFD00
7FFFD0BFFF00
BFFFF6FFFF40
FFFFF6FFFF80
FF8BF6F97FC0
FFE0B691FFC0
FFFC0007FFC0
FFFF402FFFC0
FFFFD0BFFFC0
FFFFF1FFFFC0
FFFFF1FFFFC0
FFFFF1FFFFC0
FFFFF2FFFFC0
FFFFF7FFFFC0
FFFFFFFFFFC0
FFFFFFFFFFC0
FFFFE5FFFF80
BFFFC0BFFF40
7FFFC0BFFF00
1FFFE5FFFD00
07FFFFFFF400
006FFFFE4000
ENDCHAR
STARTCHAR uFFFF6
ENCODING 1048566
SWIDTH 578 0
DWIDTH 21 0
BBX 21 24 0 0
BITMAP
00AFFFFE4000
07FFFFFFF400
2FFFF7FFFD00
7FFFF2FFFF00
BFFFF1FFFF40
FFFFF1FFFF80
FFFFF1FFFFC0
FFFFD0BFFFC0
FFFF002FFFC0
FFF80007FFC0
FFE0B291FFC0
FF8BF2F97FC0
FFFFF2FFFFC0
FFFFF2FFFFC0
FFFFD0FFFFC0
FFFF592FFFC0
FFFFBFEFFFC0
FFFFFFFFFFC0
FFFFE5FFFF80
BFFFC0BFFF40
7FFFC0BFFF00
1FFFE5FFFD00
07FFFFFFF400
006FFFFE4000
ENDCHAR
STARTCHAR uFFFF8
ENCODING 1048568
SWIDTH 578 0
DWIDTH 21 0
BBX 21 24 0 0
BITMAP
00AFFFFE4000
07FFFFFFF400
2FFFFFFFFD00
7FFF90BFFF00
BFFF2A2FFF40
FFFE95AFFF80
FFFF406FFFC0
FFFC190BFFC0
FFF84457FFC0
FFF3E1F3FFC0
FFE3E1F6FFC0
FFE14051FFC0
FFE00001FFC0
FFE00001FFC0
FFF00003FFC0
FFF80007FFC0
FFFE002FFFC0
FFFFFAFFFFC0
FFFFE6FFFF80
BFFFC0BFFF40
7FFF80BFFF00
1FFFD5FFFD00
07FFFFFFF400
006FFFFE4000
ENDCHAR
STARTCHAR uFFFF9
ENCODING 1048569
SWIDTH 578 0
DWIDTH 21 0
BBX 21 24 0 0
BITMAP
00AAAAAA4000
064000006400
280000000900
60000A000200
80000A000140
80028A380080
800B0A1D0080
801D0A070080
80180A034080
802809034080
802800034080
801C00074080
800E000A0080
8007907D0080
8001FFE00080
800015400080
800000000080
800000000080
800000000080
800000000140
600000000200
180000000900
064000006400
006AAAAA4000
ENDCHAR
STARTCHAR uFFFFB
ENCODING 1048571
SWIDTH 578 0
DWIDTH 21 0
BBX 21 24 0 0
BITMAP
00AFFFFE4000
07FFEBFFF400
2FFFE2FFFD00
7FFFE0BFFF00
BFFEE12FFF40
FFF0E24BFF80
FFF8224BFFC0
FFFE002FFFC0
FFFF80BFFFC0
FFFFC0FFFFC0
FFFF407FFFC0
FFFC111FFFC0
FFF0A287FFC0
FFFAE10BFFC0
FFFFE03FFFC0
FFFFE0FFFFC0
FFFFE7FFFFC0
FFFFFFFFFFC0
FFFFFFFFFF80
BFFFFFFFFF40
7FFFFFFFFF00
1FFFFFFFFD00
07FFFFFFF400
006FFFFE4000
ENDCHAR
STARTCHAR uFFFFC
ENCODING 1048572
SWIDTH 578 0
DWIDTH 21 0
BBX 21 24 0 0
BITMAP
00AFFFFE4000
07FFFFFFF400
2FFE556FFD00
7FE00001FF00
BF41BFE42F40
FD1F956E0B80
FEB40506DFC0
FFD1FFE4BFC0
FFEB506EBFC0
FFFC1507FFC0
FFFDBFD7FFC0
FFFFE0FFFFC0
FFFFD0BFFFC0
FFFFE1FFFFC0
FFFFFFFFFFC0
FFFFFFFFFFC0
FFFFFFFFFFC0
FFFFFFFFFFC0
FFFFFFFFFF80
BFFFFFFFFF40
7FFFFFFFFF00
1FFFFFFFFD00
07FFFFFFF400
006FFFFE4000
ENDCHAR
STARTCHAR uFFFFD
ENCODING 1048573
SWIDTH 578 0
DWIDTH 21 0
BBX 21 24 0 0
BITMAP
00AFFFFE4000
07FFFFFFF400
2FFFEAFFFD00
7FFE001FFF00
BFF80007FF40
FFF00002FF80
FFE00001FFC0
FFE00001FFC0
FFE190A1FFC0
FFE3E1F6FFC0
FFF6D1F7FFC0
FFF84807FFC0
FFFC190BFFC0
FFFF407FFFC0
FFFE55AFFFC0
FFFF193FFFC0
FFFFD1FFFFC0
FFFFFFFFFFC0
FFFFE6FFFF80
BFFFC0BFFF40
7FFF80BFFF00
1FFFD5FFFD00
07FFFFFFF400
006FFFFE4000
ENDCHAR
STARTCHAR uFFFFE
ENCODING 1048574
SWIDTH 578 0
DWIDTH 21 0
BBX 21 24 0 0
BITMAP
00AFFFFE4000
07FFFFFFF400
2FFFFFFFFD00
7F001E002F00
BE2A886A4F40
FD7FC87F8F80
FD3FC8BF8FC0
FE154CBF8FC0
FF151CBF8FC0
FD3FC8BF8FC0
FD7FC8BF8FC0
FD3FC87F8FC0
FE000D001FC0
FF956F95BFC0
FFFFFFFFFFC0
FFFFFFFFFFC0
FFFFFFFFFFC0
FFFFFFFFFFC0
FFFFFFFFFF80
BFFFFFFFFF40
7FFFFFFFFF00
1FFFFFFFFD00
07FFFFFFF400
006FFFFE4000
ENDCHAR
STARTCHAR uFFFFF
ENCODING 1048575
SWIDTH 578 0
DWIDTH 21 0
BBX 21 24 0 0
BITMAP
00AAAAAA4000
064000006400
280015000900
6001FFE00200
8007FFF80140
800FFFFD0080
801FFFFE0080
801FFFFE0080
801E6F5E0080
801C1E090080
80092E080080
8007B7F80080
8003E6F40080
8000BF800080
8001AA500080
8000E6C00080
80002E000080
800000000080
800019000080
80003F400140
60007F400200
18002A000900
064000006400
006AAAAA4000
ENDCHAR
STARTCHAR .notdef
ENCODING -1
SWIDTH 1000 0
DWIDTH 36 0
BBX 1 1 0 0
BITMAP
00
ENDCHAR
STARTCHAR glyph1
ENCODING -1
SWIDTH 0 0
DWIDTH 0 0
BBX 1 1 0 0
BITMAP
00
ENDCHAR
ENDFONT
